<svg width="914" height="614" viewBox="0 0 914 614" style="fill:none;stroke:none;fill-rule:evenodd;clip-rule:evenodd;stroke-linecap:round;stroke-linejoin:round;stroke-miterlimit:1.5;" version="1.1" xmlns="http://www.w3.org/2000/svg" xmlns:xlink="http://www.w3.org/1999/xlink"><style id="fontImports">@import url("https://fonts.googleapis.com/css2?family=Shantell+Sans:wght@300..800&display=block");</style><g id="items" style="isolation: isolate"><g id="blend" style="mix-blend-mode:screen"><g id="g-root-ti_1ur5vrd1tsukui-fill" data-item-order="-521821" data-item-id="ti_1ur5vrd1tsukui" data-item-class="Shape Stroke Fill" data-item-index="none" data-renderer-id="0" transform="translate(3, 3)"><g id="ti_1ur5vrd1tsukui-fill" stroke="none" fill="#505050"><g><path d="M 10 585.64L 874 585.64L 874 597.64L 898 303.82L 874 10L 874 22L 10 22"></path></g></g></g><g id="g-root-1.Vector_sy_magrux1rkxvcz-fill" data-item-order="-245372" data-item-id="1.Vector_sy_magrux1rkxvcz" data-item-class="ScenePart Part Indexed Indexed_1 Fill Stroke" data-item-index="1" data-renderer-id="0" transform="translate(15, 335)"><g id="1.Vector_sy_magrux1rkxvcz-fill" stroke="none" fill="#293f64"><g><path d="M 189.5 112.3L 193.6 97.8L 176.2 85.9L 170.3 106.9ZM 176.2 85.9L 155.1 101.7L 171.8 114.2L 193.6 97.8ZM 171.8 114.2L 191.4 60.1L 174.1 49L 155.1 101.7ZM 174.1 49L 128.6 93.8L 144.6 106.2L 191.4 60.1ZM 144.6 106.2L 195.8 17.8L 179.3 6.4L 128.6 93.8ZM 179.3 6.4L 105.3 97.4L 122.5 108L 195.8 17.8ZM 122.5 108L 164.5 14.2L 146.9 4.5L 105.3 97.4ZM 146.9 4.5L 84.6 99.5L 102.2 109.2L 164.5 14.2ZM 102.2 109.2L 145.5 15.3L 128.3 4.7L 84.6 99.5ZM 128.3 4.7L 56.8 94.5L 73.6 105.4L 145.5 15.3ZM 73.6 105.4L 121 14.1L 104 3.6L 56.8 94.5ZM 104 3.6L 32 102.4L 49.1 112.9L 121 14.1ZM 49.1 112.9L 97.8 19L 81 7.9L 32 102.4ZM 81 7.9L 18.8 83.8L 35.8 94.7L 97.8 19ZM 35.8 94.7L 75 14.7L 58.2 3.5L 18.8 83.8ZM 58.2 3.5L 20 47.3L 37 58.2L 75 14.7ZM 37 58.2L 53.8 20.8L 39.8 3.1L 20 47.3ZM 39.8 3.1L 7.5 9.5L 22.3 27L 53.8 20.8ZM 22.3 27L 26.4 16L 7.8 8.9L 7.5 9.5Z" fill-rule="nonzero"></path></g></g></g><g id="g-root-2.Vector_sy_magrux1rkxvd0-fill" data-item-order="-245370" data-item-id="2.Vector_sy_magrux1rkxvd0" data-item-class="ScenePart Part Indexed Fill Stroke" data-item-index="2" data-renderer-id="0" transform="translate(183, 287)"><g id="2.Vector_sy_magrux1rkxvd0-fill" stroke="none" fill="#2b503e"><g><path d="M 182.6 159L 184.5 158.8L 184.4 138.8L 181.4 139ZM 184.4 138.8L 149.5 137.2L 157.8 157.6L 184.5 158.8ZM 157.8 157.6L 189.1 124.1L 176.5 108.4L 149.5 137.2ZM 176.5 108.4L 124.5 139.6L 137.5 155.1L 189.1 124.1ZM 137.5 155.1L 196.6 86.7L 182.6 72.3L 124.5 139.6ZM 182.6 72.3L 95.2 143.8L 109.7 157.8L 196.6 86.7ZM 109.7 157.8L 196.4 45.1L 181.4 31.8L 95.2 143.8ZM 181.4 31.8L 68.3 141.3L 82.8 155.1L 196.4 45.1ZM 82.8 155.1L 197.6 21.4L 183.1 7.6L 68.3 141.3ZM 183.1 7.6L 38.7 145.5L 53.5 159.1L 197.6 21.4ZM 53.5 159.1L 167.8 17.4L 153 3.9L 38.7 145.5ZM 153 3.9L 15.9 136.9L 30.5 150.5L 167.8 17.4ZM 30.5 150.5L 140.5 19.4L 126 5.6L 15.9 136.9ZM 126 5.6L 19.7 105.3L 34.7 118.6L 140.5 19.4ZM 34.7 118.6L 107.8 19.8L 93.3 5.8L 19.7 105.3ZM 93.3 5.8L 14.5 69.4L 28.9 83.5L 107.8 19.8ZM 28.9 83.5L 79.7 17.6L 65.9 2.8L 14.5 69.4ZM 65.9 2.8L 21.5 32.6L 36 47L 79.7 17.6ZM 36 47L 53.2 21.2L 40.6 4L 21.5 32.6ZM 40.6 4L 10.2 12.9L 25.8 29.2L 53.2 21.2ZM 25.8 29.2L 31.4 12.9L 12.4 6.5L 10.2 12.9Z" fill-rule="nonzero"></path></g></g></g><g id="g-root-3.Vector_sy_magrux1rkxvd1-fill" data-item-order="-245368" data-item-id="3.Vector_sy_magrux1rkxvd1" data-item-class="ScenePart Part Indexed Fill Stroke" data-item-index="3" data-renderer-id="0" transform="translate(351, 239)"><g id="3.Vector_sy_magrux1rkxvd1-fill" stroke="none" fill="#4f4a20"><g><path d="M 183.4 208.4L 194.1 199.5L 185.8 180.5L 170.6 193ZM 185.8 180.5L 146.8 185.8L 154.5 204.9L 194.1 199.5ZM 154.5 204.9L 190.2 178.9L 179.9 161.7L 146.8 185.8ZM 179.9 161.7L 113.8 194.1L 125.3 210.7L 190.2 178.9ZM 125.3 210.7L 189.6 149.6L 177.6 133.3L 113.8 194.1ZM 177.6 133.3L 76.2 189.9L 87.8 206.3L 189.6 149.6ZM 87.8 206.3L 196.1 110L 183.5 94.4L 76.2 189.9ZM 183.5 94.4L 46.8 193.3L 59.8 208.6L 196.1 110ZM 59.8 208.6L 191 77.5L 177.9 62.4L 46.8 193.3ZM 177.9 62.4L 15.9 185.1L 28.6 200.6L 191 77.5ZM 28.6 200.6L 194.5 54.9L 182 39.3L 15.9 185.1ZM 182 39.3L 18.3 159L 31 174.5L 194.5 54.9ZM 31 174.5L 195.4 23.6L 182.6 8.3L 18.3 159ZM 182.6 8.3L 22.4 130.4L 35.3 145.7L 195.4 23.6ZM 35.3 145.7L 166.7 21.9L 154.2 6.3L 22.4 130.4ZM 154.2 6.3L 18.2 97.7L 30.5 113.5L 166.7 21.9ZM 30.5 113.5L 132.4 20.5L 120.3 4.5L 18.2 97.7ZM 120.3 4.5L 16.8 67.9L 28.9 84L 132.4 20.5ZM 28.9 84L 101.8 17.6L 90.1 1.2L 16.8 67.9ZM 90.1 1.2L 22.4 38.5L 35 54.4L 101.8 17.6ZM 35 54.4L 65.6 20.7L 55.6 1.9L 22.4 38.5ZM 55.6 1.9L 17.7 7.4L 25.3 26.5L 65.6 20.7ZM 25.3 26.5L 31.3 22.3L 19.9 5.9L 17.7 7.4Z" fill-rule="nonzero"></path></g></g></g><g id="g-root-4.Vector_sy_dfg8p51rkxszy-fill" data-item-order="-245366" data-item-id="4.Vector_sy_dfg8p51rkxszy" data-item-class="ScenePart Part Indexed Fill Stroke" data-item-index="4" data-renderer-id="0" transform="translate(519, 191)"><g id="4.Vector_sy_dfg8p51rkxszy-fill" stroke="none" fill="#5a3f27"><g><path d="M 189.7 251.8L 195.2 247.4L 187.1 228.1L 177.1 236.4ZM 187.1 228.1L 139.6 233.5L 146.6 252.8L 195.2 247.4ZM 146.6 252.8L 189.9 224.1L 180.6 206.2L 139.6 233.5ZM 180.6 206.2L 102.7 236.7L 112.2 254.4L 189.9 224.1ZM 112.2 254.4L 193.7 198L 183.2 180.9L 102.7 236.7ZM 183.2 180.9L 71.6 241.7L 82.8 258.4L 193.7 198ZM 82.8 258.4L 193.6 168.7L 182.2 152.2L 71.6 241.7ZM 182.2 152.2L 29 241.7L 40.2 258.3L 193.6 168.7ZM 40.2 258.3L 194.4 140.2L 183.2 123.6L 29 241.7ZM 183.2 123.6L 20.8 220.6L 31.9 237.2L 194.4 140.2ZM 31.9 237.2L 189.4 119.3L 178.3 102.6L 20.8 220.6ZM 178.3 102.6L 22.5 194.4L 33.4 211.2L 189.4 119.3ZM 33.4 211.2L 193.6 96.2L 183.1 79.1L 22.5 194.4ZM 183.1 79.1L 15.4 165.8L 25.9 182.9L 193.6 96.2ZM 25.9 182.9L 191.2 62.9L 180.5 46L 15.4 165.8ZM 180.5 46L 22.2 132.3L 32.9 149.2L 191.2 62.9ZM 32.9 149.2L 192.1 32.9L 181.1 16.2L 22.2 132.3ZM 181.1 16.2L 15.6 114.5L 26.9 131L 192.1 32.9ZM 26.9 131L 169.4 20.1L 158.3 3.5L 15.6 114.5ZM 158.3 3.5L 21.7 81.7L 32.5 98.5L 169.4 20.1ZM 32.5 98.5L 138 22.5L 128 5L 21.7 81.7ZM 128 5L 16.3 53.8L 26.4 71.3L 138 22.5ZM 26.4 71.3L 93.8 21.5L 83.6 4.2L 16.3 53.8ZM 83.6 4.2L 21.9 31.7L 31.5 49.3L 93.8 21.5ZM 31.5 49.3L 65.8 26.8L 60.2 6.5L 21.9 31.7ZM 60.2 6.5L 15.3 4.6L 17.5 24.8L 65.8 26.8ZM 17.5 24.8L 20.1 24L 14.9 4.7L 15.3 4.6Z" fill-rule="nonzero"></path></g></g></g><g id="g-root-5.Vector_sy_dfg8p51rkxszz-fill" data-item-order="-245364" data-item-id="5.Vector_sy_dfg8p51rkxszz" data-item-class="ScenePart Part Indexed Fill Stroke" data-item-index="5" data-renderer-id="0" transform="translate(687, 143)"><g id="5.Vector_sy_dfg8p51rkxszz-fill" stroke="none" fill="#692e2c"><g><path d="M 183.1 303.8L 193.1 298.1L 187 278.6L 173.3 286.4ZM 187 278.6L 142 282.7L 149 302.2L 193.1 298.1ZM 149 302.2L 188.4 275.3L 179.5 257.1L 142 282.7ZM 179.5 257.1L 92.6 284.8L 100.5 303.3L 188.4 275.3ZM 100.5 303.3L 195.4 251.8L 186.7 233.8L 92.6 284.8ZM 186.7 233.8L 58 289.5L 67.7 307.1L 195.4 251.8ZM 67.7 307.1L 188.9 225.1L 179 207.7L 58 289.5ZM 179 207.7L 17.6 282.4L 27.1 300.1L 188.9 225.1ZM 27.1 300.1L 193.2 197.5L 183.6 179.9L 17.6 282.4ZM 183.6 179.9L 18.8 257.6L 28.3 275.2L 193.2 197.5ZM 28.3 275.2L 192.7 175.7L 183.3 158L 18.8 257.6ZM 183.3 158L 21.2 232.8L 30.8 250.4L 192.7 175.7ZM 30.8 250.4L 191.7 148.3L 182 130.8L 21.2 232.8ZM 182 130.8L 15.5 209.4L 25 227L 191.7 148.3ZM 25 227L 189 126.3L 179.5 108.7L 15.5 209.4ZM 179.5 108.7L 23 182.5L 32.8 200L 189 126.3ZM 32.8 200L 191.1 97.1L 181.2 79.7L 23 182.5ZM 181.2 79.7L 21.1 158.5L 30.8 176L 191.1 97.1ZM 30.8 176L 193.2 75.5L 183.8 57.8L 21.1 158.5ZM 183.8 57.8L 23.7 129.5L 33.1 147.2L 193.2 75.5ZM 33.1 147.2L 191.3 50.5L 182.2 32.6L 23.7 129.5ZM 182.2 32.6L 20.6 99.9L 29.6 117.9L 191.3 50.5ZM 29.6 117.9L 196 19.6L 186.7 1.8L 20.6 99.9ZM 186.7 1.8L 22.7 77.9L 32.3 95.5L 196 19.6ZM 32.3 95.5L 146.9 23.1L 137.4 5.5L 22.7 77.9ZM 137.4 5.5L 22.9 57.5L 32.8 75L 146.9 23.1ZM 32.8 75L 114 19.3L 105 1.2L 22.9 57.5ZM 105 1.2L 19.8 29.9L 28.2 48.2L 114 19.3ZM 28.2 48.2L 65.3 26.1L 59.3 6.4L 19.8 29.9ZM 59.3 6.4L 13.2 9.2L 18.2 28.9L 65.3 26.1ZM 18.2 28.9L 25.1 25.7L 16.5 7.6L 13.2 9.2Z" fill-rule="nonzero"></path></g></g></g><g id="g-root-cn_4g2kae1vgxse8-fill" data-item-order="0" data-item-id="cn_4g2kae1vgxse8" data-item-class="Curve Stroke" data-item-index="none" data-renderer-id="0" transform="translate(477, 154.811279296875)"></g><g id="g-root-voti_4g2dxl1rl4vey-fill" data-item-order="0" data-item-id="voti_4g2dxl1rl4vey" data-item-class="Icon Stroke SceneTarget Indexed" data-item-index="4" data-renderer-id="0" transform="translate(591, 131)"></g><g id="g-root-tx_jouerunr_4jt8g91rkxukg-fill" data-item-order="0" data-item-id="tx_jouerunr_4jt8g91rkxukg" data-item-class="Label Stroke SceneTarget Indexed InsideFill" data-item-index="5" data-renderer-id="0" transform="translate(711, 155)"><g id="tx_jouerunr_4jt8g91rkxukg-fill" stroke="none" fill="#A3A3A3"><g><text style="font: 20px &quot;Shantell Sans&quot;, cursive; white-space: pre;"><tspan x="16.6" y="35">Jouer un rôle</tspan></text></g></g></g><g id="g-root-cycl_1q5pxpi1y8foqu-fill" data-item-order="0" data-item-id="cycl_1q5pxpi1y8foqu" data-item-class="Icon Stroke SceneTarget Indexed" data-item-index="3" data-renderer-id="0" transform="translate(423, 179)"></g><g id="g-root-cn_zpohfa1v73si1-fill" data-item-order="0" data-item-id="cn_zpohfa1v73si1" data-item-class="Curve Stroke" data-item-index="none" data-renderer-id="0" transform="translate(309, 203)"></g><g id="g-root-tx_votersur_1qa39551rkxssh-fill" data-item-order="0" data-item-id="tx_votersur_1qa39551rkxssh" data-item-class="Label Stroke SceneTarget Indexed InsideFill" data-item-index="4" data-renderer-id="0" transform="translate(543, 203)"><g id="tx_votersur_1qa39551rkxssh-fill" stroke="none" fill="#A3A3A3"><g><text style="font: 20px &quot;Shantell Sans&quot;, cursive; white-space: pre;"><tspan x="16.91" y="35">Voter sur les </tspan><tspan x="19.89" y="59">propositions</tspan></text></g></g></g><g id="g-root-idea_1lvip6x1rl4umn-fill" data-item-order="0" data-item-id="idea_1lvip6x1rl4umn" data-item-class="Icon Stroke SceneTarget Indexed" data-item-index="2" data-renderer-id="0" transform="translate(255, 227)"></g><g id="g-root-cn_hs5jqu1uwvshs-fill" data-item-order="0" data-item-id="cn_hs5jqu1uwvshs" data-item-class="Curve Stroke" data-item-index="none" data-renderer-id="0" transform="translate(141, 251)"></g><g id="g-root-tx_particip_1cymqrt1rkxudg-fill" data-item-order="0" data-item-id="tx_particip_1cymqrt1rkxudg" data-item-class="Label Stroke SceneTarget Indexed Indexed_1 InsideFill" data-item-index="1" data-renderer-id="0" transform="translate(39, 347)"><g id="tx_particip_1cymqrt1rkxudg-fill" stroke="none" fill="#A3A3A3"><g><text style="font: 20px &quot;Shantell Sans&quot;, cursive; white-space: pre;"><tspan x="13.73" y="35">Participer aux </tspan><tspan x="26.98" y="59">discussions</tspan></text></g></g></g><g id="g-root-tx_acqurird_1heg8w91rkxtl6-fill" data-item-order="0" data-item-id="tx_acqurird_1heg8w91rkxtl6" data-item-class="Label Stroke SceneTarget Indexed InsideFill" data-item-index="3" data-renderer-id="0" transform="translate(375, 251)"><g id="tx_acqurird_1heg8w91rkxtl6-fill" stroke="none" fill="#A3A3A3"><g><text style="font: 20px &quot;Shantell Sans&quot;, cursive; white-space: pre;"><tspan x="17.51" y="35">Acquérir des </tspan><tspan x="22.82" y="59">tokens REG</tspan></text></g></g></g><g id="g-root-3_8vt51rl4w77-fill" data-item-order="0" data-item-id="3_8vt51rl4w77" data-item-class="Icon Stroke SceneTarget Indexed Indexed_1" data-item-index="1" data-renderer-id="0" transform="translate(87, 275)"></g><g id="g-root-tx_soumettr_1heg8w91rkxtl7-fill" data-item-order="0" data-item-id="tx_soumettr_1heg8w91rkxtl7" data-item-class="Label Stroke SceneTarget Indexed InsideFill" data-item-index="2" data-renderer-id="0" transform="translate(201, 299)"><g id="tx_soumettr_1heg8w91rkxtl7-fill" stroke="none" fill="#A3A3A3"><g><text style="font: 20px &quot;Shantell Sans&quot;, cursive; white-space: pre;"><tspan x="16.41" y="35">Soumettre des </tspan><tspan x="27.39" y="59">propositions</tspan></text></g></g></g><g id="g-root-cn_1cuvghi1vqhvri-fill" data-item-order="0" data-item-id="cn_1cuvghi1vqhvri" data-item-class="Curve Stroke" data-item-index="none" data-renderer-id="0" transform="translate(645, 105.855224609375)"></g><g id="g-root-lapt_1hfp72h1rl4vew-fill" data-item-order="0" data-item-id="lapt_1hfp72h1rl4vew" data-item-class="Icon Stroke SceneTarget Indexed" data-item-index="5" data-renderer-id="0" transform="translate(759, 83)"></g><g id="g-root-ti_1ur5vrd1tsukui-stroke" data-item-order="-521821" data-item-id="ti_1ur5vrd1tsukui" data-item-class="Shape Stroke Fill" data-item-index="none" data-renderer-id="0" transform="translate(3, 3)"><g id="ti_1ur5vrd1tsukui-stroke" fill="none" stroke-linecap="round" stroke-linejoin="round" stroke-miterlimit="4" stroke="#A3A3A3" stroke-width="2"><g><path d="M 10 585.64L 874 585.64L 874 597.64L 898 303.82L 874 10L 874 22L 10 22"></path></g></g></g><g id="g-root-1.Vector_sy_magrux1rkxvcz-stroke" data-item-order="-245372" data-item-id="1.Vector_sy_magrux1rkxvcz" data-item-class="ScenePart Part Indexed Indexed_1 Fill Stroke" data-item-index="1" data-renderer-id="0" transform="translate(15, 335)"><g id="1.Vector_sy_magrux1rkxvcz-stroke" fill="none" stroke-linecap="round" stroke-linejoin="round" stroke-miterlimit="4" stroke="#A3A3A3" stroke-width="2"><g><path d="M 190 10C 160.1 9.2 130.2 11.4 100.3 10C 74.2 8.8 48.1 8.8 22 10C 20 10.1 18 10.4 16 10C 12.7 9.4 10.1 12.7 10 16C 9.9 19.3 12.7 21.7 16 22C 18 22.2 20 22.2 22 22C 20.8 50 23.8 78.1 22 106C 47.7 106.6 73.5 107.8 99.2 106C 129.4 103.9 159.7 106.6 190 106C 190.2 74 190.2 42 190 10M 190 10L 22 10L 16 10C 12.6863 10 10 12.686 10 16C 10 19.314 12.6863 22 16 22L 22 22L 22 106L 190 106L 190 10Z"></path></g></g></g><g id="g-root-2.Vector_sy_magrux1rkxvd0-stroke" data-item-order="-245370" data-item-id="2.Vector_sy_magrux1rkxvd0" data-item-class="ScenePart Part Indexed Fill Stroke" data-item-index="2" data-renderer-id="0" transform="translate(183, 287)"><g id="2.Vector_sy_magrux1rkxvd0-stroke" fill="none" stroke-linecap="round" stroke-linejoin="round" stroke-miterlimit="4" stroke="#A3A3A3" stroke-width="2"><g><path d="M 22 10C 20 9.6 18 9.9 16 10C 12.7 10.1 10.3 12.7 10 16C 9.7 19.3 12.7 22.4 16 22C 18 21.8 20 21.6 22 22C 22.1 37.4 21.6 52.7 22 68.1C 22.4 81.8 20.4 95.7 22 109.4C 23.7 124.2 21.8 139.1 22 154C 36 154.2 50.1 153.4 64.1 154C 79.1 154.7 94.2 152.7 109.2 154C 122 155.1 135 153 147.9 154C 161.9 155.1 176 154.3 190 154C 190.1 139.5 189.3 125 190 110.6C 190.8 95.4 188.2 80 190 64.9C 192.2 46.7 190.6 28.3 190 10C 164.2 9.1 138.4 10.9 112.6 10C 82.4 9 52.2 8.3 22 10M 22 10L 16 10C 12.686 10 10 12.686 10 16C 10 19.314 12.686 22 16 22L 22 22L 22 154L 190 154L 190 10L 22 10Z"></path></g></g></g><g id="g-root-3.Vector_sy_magrux1rkxvd1-stroke" data-item-order="-245368" data-item-id="3.Vector_sy_magrux1rkxvd1" data-item-class="ScenePart Part Indexed Fill Stroke" data-item-index="3" data-renderer-id="0" transform="translate(351, 239)"><g id="3.Vector_sy_magrux1rkxvd1-stroke" fill="none" stroke-linecap="round" stroke-linejoin="round" stroke-miterlimit="4" stroke="#A3A3A3" stroke-width="2"><g><path d="M 22 10C 20 9.9 17.9 9.4 16 10C 12.8 10.9 10.6 12.8 10 16C 9.4 19.3 12.7 21.7 16 22C 18 22.2 20 21.9 22 22C 21.9 53 23.3 84 22 114.9C 20.8 143.9 20.4 173 22 202C 40.9 203.1 59.9 203.3 78.8 202C 99 200.6 119.4 200.6 139.6 202C 156.4 203.1 173.2 201.4 190 202C 189.4 182.1 190.4 162.1 190 142.2C 189.5 118.7 189.1 95.2 190 71.8C 190.8 51.2 191.5 30.5 190 10C 178.8 9.3 167.4 8.5 156.3 10C 144.9 11.5 133.3 9.8 121.8 10C 111.6 10.2 101.4 9.9 91.2 10C 80.5 10.1 69.6 10.7 58.9 10C 46.6 9.2 34.3 10.5 22 10M 22 10L 16 10C 12.686 10 10 12.686 10 16C 10 19.314 12.686 22 16 22L 22 22L 22 202L 190 202L 190 10L 22 10Z"></path></g></g></g><g id="g-root-4.Vector_sy_dfg8p51rkxszy-stroke" data-item-order="-245366" data-item-id="4.Vector_sy_dfg8p51rkxszy" data-item-class="ScenePart Part Indexed Fill Stroke" data-item-index="4" data-renderer-id="0" transform="translate(519, 191)"><g id="4.Vector_sy_dfg8p51rkxszy-stroke" fill="none" stroke-linecap="round" stroke-linejoin="round" stroke-miterlimit="4" stroke="#A3A3A3" stroke-width="2"><g><path d="M 22 10C 20.2 10.8 18 10.1 16 10C 12.7 9.8 10.3 12.7 10 16C 9.7 19.3 12.7 22.2 16 22C 18 21.9 20.1 21.3 22 22C 22.1 47.7 23.7 73.4 22 99.1C 20.4 122.6 20.2 146.3 22 169.7C 24.1 196.4 20.1 223.3 22 250C 37.3 249.1 52.7 250.1 68 250C 82.1 249.9 96.3 250.5 110.4 250C 123.5 249.6 136.6 249.1 149.7 250C 163.1 250.9 176.7 248.4 190 250C 191.5 225.3 191.8 200.5 190 175.8C 188 148.3 191.2 120.7 190 93.2C 188.8 65.5 189.5 37.7 190 10C 164.5 10 139.1 10.8 113.6 10C 83.1 9 52.5 11.9 22 10M 22 10L 16 10C 12.686 10 10 12.686 10 16C 10 19.314 12.686 22 16 22L 22 22L 22 250L 190 250L 190 10L 22 10Z"></path></g></g></g><g id="g-root-5.Vector_sy_dfg8p51rkxszz-stroke" data-item-order="-245364" data-item-id="5.Vector_sy_dfg8p51rkxszz" data-item-class="ScenePart Part Indexed Fill Stroke" data-item-index="5" data-renderer-id="0" transform="translate(687, 143)"><g id="5.Vector_sy_dfg8p51rkxszz-stroke" fill="none" stroke-linecap="round" stroke-linejoin="round" stroke-miterlimit="4" stroke="#A3A3A3" stroke-width="2"><g><path d="M 22 10C 20.1 10.5 18 9.8 16 10C 12.7 10.3 9.7 12.7 10 16C 10.3 19.3 12.7 22 16 22C 18 22 20.1 22.6 22 22C 23.8 44.6 23.7 67.5 22 90.1C 20.3 113 22 135.9 22 158.8C 22 182.1 21.6 205.3 22 228.6C 22.4 251.7 20.9 274.9 22 298C 48.3 297.4 74.7 298.8 101 298C 130.7 297.1 160.3 298.1 190 298C 191.8 272.1 189.4 246 190 220C 190.6 196.1 190.5 172.2 190 148.4C 189.5 127.4 189.3 106.3 190 85.3C 190.9 60.2 190.6 35.1 190 10C 176 9.8 162 10.4 148 10C 134.9 9.6 121.8 10.7 108.7 10C 94.5 9.2 80.3 9.4 66.2 10C 51.5 10.7 36.7 10.3 22 10M 22 10L 16 10C 12.686 10 10 12.686 10 16C 10 19.314 12.686 22 16 22L 22 22L 22 298L 190 298L 190 10L 22 10Z"></path></g></g></g><g id="g-root-cn_4g2kae1vgxse8-stroke" data-item-order="0" data-item-id="cn_4g2kae1vgxse8" data-item-class="Curve Stroke" data-item-index="none" data-renderer-id="0" transform="translate(477, 154.811279296875)"><g id="cn_4g2kae1vgxse8-stroke" fill="none" stroke-linecap="round" stroke-linejoin="round" stroke-miterlimit="4" stroke="#A3A3A3" stroke-width="2"><g><path d="M 10 58.188721C 13.666667 54.655387 17.333333 51.088721 21 47.488721C 28.266667 40.355387 36.3 34.188721 45.1 28.988721C 53.833333 23.788721 63.066667 19.688721 72.8 16.688721C 82.6 13.688721 92.566667 11.855387 102.7 11.188721C 107.833333 10.855387 112.933333 10.522054 118 10.188721"></path></g></g></g><g id="g-root-voti_4g2dxl1rl4vey-stroke" data-item-order="0" data-item-id="voti_4g2dxl1rl4vey" data-item-class="Icon Stroke SceneTarget Indexed" data-item-index="4" data-renderer-id="0" transform="translate(591, 131)"><g id="voti_4g2dxl1rl4vey-stroke" fill="none" stroke-linecap="round" stroke-linejoin="round" stroke-miterlimit="4" stroke="#A3A3A3" stroke-width="2"><g><path d="M 28 31C 28.200001 30 27 28.6 26 29C 24.200001 29.6 22 29.4 20 29C 19 28.799999 17.6 30 18 31M 33 31C 33 29.799999 33.799999 28.799999 35 29C 41.599998 29.6 48.400002 28.4 55 29C 56.200001 29 56.799999 30 57 31C 57.400002 32.599998 57.200001 34.400002 57 36C 56.799999 37.200001 56 38 55 38C 48.400002 37.599998 41.400002 36.400002 35 38C 34 38.200001 32.799999 37.200001 33 36C 33.200001 34.400002 33.400002 32.599998 33 31M 18 17C 18.200001 16 19 15.2 20 15C 22 14.6 24 15.2 26 15C 27 14.8 28.200001 16 28 17C 27.6 18.6 27.6 20.4 28 22C 28.200001 23 27.200001 24 26 24C 24 23.799999 22 23.799999 20 24C 19 24.200001 18.200001 23 18 22C 17.6 20.4 18.4 18.6 18 17M 33 17C 33.200001 16 34 15.2 35 15C 41.400002 13.4 48.400002 14.6 55 15C 56.200001 15 57.400002 16 57 17C 56.400002 18.6 57.400002 20.4 57 22C 56.799999 23 56 23.799999 55 24C 48.400002 24.799999 41.400002 22 35 24C 34 24.4 33.200001 23.200001 33 22C 32.799999 20.4 32.799999 18.6 33 17M 10 10M 38.200001 57C 38.400002 56.200001 38 55.400002 38.400002 54.799999C 39.599998 52 36.599998 48 33.599998 48.400002C 31.200001 48.599998 28.6 47.799999 26.4 46.799999C 26 43.599998 27.200001 40.200001 26.4 37C 25.799999 35 24.6 34 22.6 33.400002C 20.6 32.599998 18.200001 35.200001 18.799999 37C 20.6 42.200001 17.200001 48.400002 18.799999 53.599998C 17.799999 53 17 52 16 51.400002C 14.6 50.599998 12.6 50.400002 11.8 51.799999C 11.2 53.200001 10.4 54.799999 11.6 55.799999C 12 56 12.2 56.599998 12.6 57M 28 31.006001C 28 29.90143 27.10457 29.006001 26 29.006001L 20 29.006001C 18.895432 29.006001 18 29.90143 18 31.006001M 33 31.007999C 33 29.903431 33.895432 29.007999 35 29.007999L 55 29.007999C 56.104568 29.007999 57 29.903431 57 31.007999L 57 36.007999C 57 37.112572 56.104568 38.007999 55 38.007999L 35 38.007999C 33.895432 38.007999 33 37.112572 33 36.007999L 33 31.007999ZM 18 17.006001C 18 15.90143 18.895432 15.006001 20 15.006001L 26 15.006001C 27.10457 15.006001 28 15.90143 28 17.006001L 28 22.006001C 28 23.110569 27.10457 24.006001 26 24.006001L 20 24.006001C 18.895432 24.006001 18 23.110569 18 22.006001L 18 17.006001ZM 33 17.004C 33 15.89943 33.895432 15.004 35 15.004L 55 15.004C 56.104568 15.004 57 15.89943 57 17.004L 57 22.004C 57 23.10857 56.104568 24.004 55 24.004L 35 24.004C 33.895432 24.004 33 23.10857 33 22.004L 33 17.004ZM 10 10M 38.134003 57L 38.334 54.754002C 38.607002 51.748859 36.605682 49.008499 33.66 48.354L 26.360001 46.73L 26.360001 37.049999C 26.360001 34.978935 24.681068 33.300003 22.610001 33.300003C 20.538933 33.300003 18.860001 34.978935 18.860001 37.050003L 18.860001 53.650002L 15.903999 51.431999C 14.683374 50.517773 12.976372 50.639645 11.898007 51.718006C 10.819642 52.796371 10.697771 54.503376 11.612 55.723999L 12.559999 56.987999"></path></g></g></g><g id="g-root-tx_jouerunr_4jt8g91rkxukg-stroke" data-item-order="0" data-item-id="tx_jouerunr_4jt8g91rkxukg" data-item-class="Label Stroke SceneTarget Indexed InsideFill" data-item-index="5" data-renderer-id="0" transform="translate(711, 155)"></g><g id="g-root-cycl_1q5pxpi1y8foqu-stroke" data-item-order="0" data-item-id="cycl_1q5pxpi1y8foqu" data-item-class="Icon Stroke SceneTarget Indexed" data-item-index="3" data-renderer-id="0" transform="translate(423, 179)"><g id="cycl_1q5pxpi1y8foqu-stroke" fill="none" stroke-linecap="round" stroke-linejoin="round" stroke-miterlimit="4" stroke="#A3A3A3" stroke-width="2"><g><path d="M 22.4 54C 13 47.400002 9 36 12.8 25C 16.6 14 28.799999 10.6 40.200001 11.8M 45.599998 14C 54.799999 21 57.799999 31.6 55.200001 42.799999C 52.799999 54.200001 38.599998 60.799999 28 56.200001M 15.4 55.799999C 17.799999 56 20 54.400002 22.6 54C 21.799999 51.599998 20.4 49.200001 20.6 46.799999M 52.599998 12.2C 50.200001 12.2 48 14 45.599998 14C 45.400002 16.6 47 18.799999 47.400002 21.200001M 27.6 26.6C 28.799999 30.200001 30.799999 32 34.400002 33.400002C 37.799999 34.799999 42.400002 30.200001 41.200001 26.6C 40 23.200001 38.200001 19.6 34.400002 19.799999C 30.6 20 28.6 23.200001 27.6 26.6M 45 44C 43.599998 39.400002 39.200001 36.799999 34.400002 36.599998C 29.799999 36.400002 24.200001 39.200001 24 44M 29.6 21.799999C 32.400002 25.799999 37.400002 25.200001 41.200001 26.6"></path><path d="M 22.498001 53.922001C 12.425649 48.129044 8.255886 35.733505 12.779187 25.030682C 17.302488 14.327861 29.098013 8.679682 40.272003 11.866M 45.501999 14.078C 55.547821 19.844528 59.737869 32.181885 55.281662 42.873634C 50.825455 53.565388 39.113617 59.275005 27.946001 56.200001M 15.360001 55.832001L 22.5 53.917999L 20.586 46.778M 52.639999 12.168L 45.5 14.082L 47.414001 21.222M 27.58 26.681999C 27.579121 30.435947 30.622051 33.479591 34.375999 33.479591C 38.129948 33.479591 41.172874 30.435947 41.171997 26.681999C 41.172874 22.928051 38.129948 19.884411 34.375999 19.884411C 30.622051 19.884411 27.579121 22.928051 27.58 26.681999M 44.948002 43.931999C 43.346466 39.538643 39.169159 36.615215 34.493 36.615215C 29.816841 36.615215 25.639532 39.538643 24.038 43.931999M 29.6 21.844C 31.917999 26.152 37.066002 26.681999 41.166 26.681999"></path></g></g></g><g id="g-root-cn_zpohfa1v73si1-stroke" data-item-order="0" data-item-id="cn_zpohfa1v73si1" data-item-class="Curve Stroke" data-item-index="none" data-renderer-id="0" transform="translate(309, 203)"><g id="cn_zpohfa1v73si1-stroke" fill="none" stroke-linecap="round" stroke-linejoin="round" stroke-miterlimit="4" stroke="#A3A3A3" stroke-width="2"><g><path d="M 10 58C 13.866667 54.8 17.733333 51.6 21.6 48.4C 29.333333 41.933333 37.6 36.233333 46.4 31.3C 55.133333 26.433333 64.266667 22.366667 73.8 19.1C 83.333333 15.9 93.1 13.6 103.1 12.2C 108.033333 11.466667 113 10.733333 118 10"></path></g></g></g><g id="g-root-tx_votersur_1qa39551rkxssh-stroke" data-item-order="0" data-item-id="tx_votersur_1qa39551rkxssh" data-item-class="Label Stroke SceneTarget Indexed InsideFill" data-item-index="4" data-renderer-id="0" transform="translate(543, 203)"></g><g id="g-root-idea_1lvip6x1rl4umn-stroke" data-item-order="0" data-item-id="idea_1lvip6x1rl4umn" data-item-class="Icon Stroke SceneTarget Indexed" data-item-index="2" data-renderer-id="0" transform="translate(255, 227)"><g id="idea_1lvip6x1rl4umn-stroke" fill="none" stroke-linecap="round" stroke-linejoin="round" stroke-miterlimit="4" stroke="#A3A3A3" stroke-width="2"><g><path d="M 37 33C 35 32.799999 32.799999 33.599998 31 33M 40 22C 39.799999 18.6 37.200001 15.6 34 16C 30.799999 15.6 28.4 18.799999 28 22C 27.6 24 29 26.200001 31 27C 31.200001 27.6 31.200001 28.4 31 29C 33 29 35 28.799999 37 29C 37.200001 28.4 37 27.6 37 27C 39 26.4 40.200001 24 40 22M 14.6 46.400002C 14 48.400002 16 50 18 50C 20 49.799999 22 48.400002 21.6 46.400002C 21 44.599998 19.799999 43.400002 18 43C 16.200001 42.599998 14.8 44.599998 14.6 46.400002M 25 57C 23.4 54.200001 21.200001 52.599998 18 51.599998C 14.8 50.400002 11.8 53.799999 11 57C 15.4 55.400002 20.4 57.200001 25 57M 30.6 46.400002C 30.200001 48.400002 32 49.799999 34 50C 36 50 37 48.400002 37.599998 46.400002C 38 44.599998 35.799999 43.200001 34 43C 32 42.599998 31.200001 44.599998 30.6 46.400002M 41 57C 39.799999 53.799999 37.200001 51 34 51.599998C 30.799999 52.200001 28.6 54 27 57C 31.6 57.400002 36.400002 58 41 57M 46.599998 46.400002C 47 48.400002 48 49.599998 50 50C 51.799999 50.400002 54.200001 48.200001 53.599998 46.400002C 52.799999 44.599998 52 43.200001 50 43C 48 42.799999 46.799999 44.599998 46.599998 46.400002M 57 57C 57 53.599998 53.200001 51.799999 50 51.599998C 46.799999 51.200001 44.599998 54 43 57C 47.599998 57 52.400002 56 57 57M 34 11C 34.200001 11.6 34.200001 12.4 34 13M 41.799999 14.2C 41.400002 14.8 41 15.4 40.400002 15.6M 45 21C 44.400002 21.200001 43.599998 21 43 21M 26.200001 14.2C 26.799999 14.6 27 15.4 27.6 15.6M 23 21C 23.6 20.799999 24.4 21 25 21M 32 37C 33.400002 37.200001 34.799999 37.200001 36 37M 37 32.968002L 31 32.968002M 40 21.968C 39.906944 18.693611 37.274391 16.061058 34 15.968C 30.725613 16.061058 28.093058 18.693611 28 21.968C 28.045399 24.047924 29.186134 25.949152 31 26.967999L 31 28.968L 37 28.968L 37 26.968C 38.813286 25.948555 39.953796 24.047695 40 21.968ZM 14.5 46.467999C 14.5 48.400997 16.067003 49.968002 18 49.968002C 19.932997 49.968002 21.5 48.400997 21.5 46.468002C 21.5 44.535004 19.932997 42.968002 18 42.968002C 16.067003 42.968002 14.5 44.535004 14.5 46.468002ZM 25 56.967999C 24.184053 53.768185 21.302212 51.528988 18 51.528988C 14.697788 51.528988 11.815947 53.768185 11 56.968002ZM 30.5 46.467999C 30.500002 48.400997 32.067005 49.968002 34 49.968002C 35.932999 49.968002 37.5 48.400997 37.5 46.468002C 37.5 44.535004 35.932999 42.968002 34 42.968002C 32.067005 42.968002 30.500002 44.535004 30.500002 46.468002ZM 41 56.967999C 40.184052 53.768185 37.302212 51.528988 34 51.528988C 30.697788 51.528988 27.815947 53.768185 27 56.968002ZM 46.5 46.467999C 46.5 48.400997 48.067005 49.968002 50 49.968002C 51.932999 49.968002 53.5 48.400997 53.5 46.468002C 53.5 44.535004 51.932999 42.968002 50 42.968002C 48.067005 42.968002 46.5 44.535004 46.5 46.468002ZM 57 56.967999C 56.184055 53.768185 53.302212 51.528988 50 51.528988C 46.697788 51.528988 43.815948 53.768185 43 56.968002ZM 34 10.968L 34 12.968M 41.778 14.190001L 40.363998 15.604M 45 20.968L 43 20.968M 26.222 14.190001L 27.636 15.604M 23 20.968L 25 20.968M 32 36.968002L 36 36.968002"></path></g></g></g><g id="g-root-cn_hs5jqu1uwvshs-stroke" data-item-order="0" data-item-id="cn_hs5jqu1uwvshs" data-item-class="Curve Stroke" data-item-index="none" data-renderer-id="0" transform="translate(141, 251)"><g id="cn_hs5jqu1uwvshs-stroke" fill="none" stroke-linecap="round" stroke-linejoin="round" stroke-miterlimit="4" stroke="#A3A3A3" stroke-width="2"><g><path d="M 10 58C 13.866667 54.8 17.733333 51.6 21.6 48.4C 29.333333 41.933333 37.6 36.233333 46.4 31.3C 55.133333 26.433333 64.266667 22.366667 73.8 19.1C 83.333333 15.9 93.1 13.6 103.1 12.2C 108.033333 11.466667 113 10.733333 118 10"></path></g></g></g><g id="g-root-tx_particip_1cymqrt1rkxudg-stroke" data-item-order="0" data-item-id="tx_particip_1cymqrt1rkxudg" data-item-class="Label Stroke SceneTarget Indexed Indexed_1 InsideFill" data-item-index="1" data-renderer-id="0" transform="translate(39, 347)"></g><g id="g-root-tx_acqurird_1heg8w91rkxtl6-stroke" data-item-order="0" data-item-id="tx_acqurird_1heg8w91rkxtl6" data-item-class="Label Stroke SceneTarget Indexed InsideFill" data-item-index="3" data-renderer-id="0" transform="translate(375, 251)"></g><g id="g-root-3_8vt51rl4w77-stroke" data-item-order="0" data-item-id="3_8vt51rl4w77" data-item-class="Icon Stroke SceneTarget Indexed Indexed_1" data-item-index="1" data-renderer-id="0" transform="translate(87, 275)"><g id="3_8vt51rl4w77-stroke" fill="none" stroke-linecap="round" stroke-linejoin="round" stroke-miterlimit="4" stroke="#A3A3A3" stroke-width="2"><g><path d="M 21 27C 20.799999 28 22 29.4 23 29C 24.200001 28.6 25.799999 29.4 27 29C 28.6 31.4 31.6 32.599998 33 35C 32.200001 33.200001 33.400002 31 33 29C 38.200001 29.6 43.799999 30.6 49 29C 50 28.6 50.799999 28 51 27C 51.799999 22.4 49.200001 17.4 51 13C 51.400002 12 50 11.2 49 11C 40.400002 9.6 31.4 13.2 23 11C 22 10.8 20.6 12 21 13C 22.799999 17.4 22.4 22.6 21 27M 15.6 39.599998C 16.200001 41.799999 17.6 44.200001 20 44C 22.4 43.799999 23.799999 41.799999 24.6 39.599998C 25.200001 37.200001 22.4 34.400002 20 35C 17.6 35.599998 14.8 37.200001 15.6 39.599998M 26.4 48.599998C 23.4 47.200001 20.6 45.400002 17.4 46.400002C 14.2 47.400002 12.6 50.200001 11 53M 43.599998 39.599998C 43 42 45.599998 44 48 44C 50.400002 44 53.400002 41.799999 52.599998 39.599998C 51.599998 37.200001 50.400002 34.200001 48 35C 45.599998 35.799999 43.400002 37 43.599998 39.599998M 41.599998 48.599998C 44 46.200001 47.599998 45 50.599998 46.400002C 53.599998 47.799999 55.400002 50.200001 57 53M 29.6 43.599998C 28.6 45.799999 31.6 47.599998 34 48C 36.400002 48.400002 38.200001 46 38.599998 43.599998C 38.799999 41 36.400002 38.200001 34 39C 31.6 39.799999 29.200001 41 29.6 43.599998M 43 57C 42.799999 52.799999 38.200001 51 34 50C 29.799999 49.200001 26.4 53 25 57M 42 16C 43.400002 17.4 45 18.4 46 20C 44.400002 20.799999 43.400002 22.799999 42 24M 30 16C 28.799999 17.4 27.4 18.799999 26 20C 27.200001 21.4 28.200001 23.200001 30 24M 38 16C 37.799999 19 34.599998 21 34 24M 21 27C 21 28.10457 21.895432 29 23 29L 27 29L 33 35L 33 29L 49 29C 50.104568 29 51 28.10457 51 27L 51 13C 51 11.895431 50.104568 11 49 11L 23 11C 21.895432 11 21 11.895431 21 13ZM 15.5 39.5C 15.5 41.985283 17.514719 44 20 44C 22.485281 44 24.5 41.985283 24.5 39.5C 24.5 37.014717 22.485281 35 20 35C 17.514719 35 15.5 37.014717 15.5 39.5M 26.34 48.540001C 23.952589 46.282539 20.547699 45.459248 17.392637 46.37656C 14.237577 47.293873 11.804879 49.814404 11 53M 43.5 39.5C 43.5 41.985283 45.514717 44 48 44C 50.485283 44 52.5 41.985283 52.5 39.5C 52.5 37.014717 50.485283 35 48 35C 45.514717 35 43.5 37.014717 43.5 39.5M 41.66 48.540001C 44.047413 46.282539 47.452305 45.459248 50.607365 46.37656C 53.762424 47.293873 56.195122 49.814404 57 53M 29.5 43.5C 29.5 45.985283 31.514719 48 34 48C 36.485283 48 38.5 45.985283 38.5 43.5C 38.5 41.014717 36.485283 39 34 39C 31.514719 39 29.5 41.014717 29.5 43.5M 43 57C 41.933315 52.902744 38.233833 50.043076 34 50.043076C 29.766167 50.043076 26.066687 52.902744 25 57M 42 16L 46 20L 42 24M 30 16L 26 20L 30 24M 38 16L 34 24"></path></g></g></g><g id="g-root-tx_soumettr_1heg8w91rkxtl7-stroke" data-item-order="0" data-item-id="tx_soumettr_1heg8w91rkxtl7" data-item-class="Label Stroke SceneTarget Indexed InsideFill" data-item-index="2" data-renderer-id="0" transform="translate(201, 299)"></g><g id="g-root-cn_1cuvghi1vqhvri-stroke" data-item-order="0" data-item-id="cn_1cuvghi1vqhvri" data-item-class="Curve Stroke" data-item-index="none" data-renderer-id="0" transform="translate(645, 105.855224609375)"><g id="cn_1cuvghi1vqhvri-stroke" fill="none" stroke-linecap="round" stroke-linejoin="round" stroke-miterlimit="4" stroke="#A3A3A3" stroke-width="2"><g><path d="M 10 59.142114C 13.466667 55.275448 16.933333 51.408781 20.4 47.542114C 27.266667 39.875448 35.1 33.275448 43.9 27.742114C 52.7 22.275448 62.066667 18.142114 72 15.342114C 81.933333 12.475448 92.1 11.075448 102.5 11.142114C 107.633333 11.142114 112.8 11.142114 118 11.142114"></path></g></g></g><g id="g-root-lapt_1hfp72h1rl4vew-stroke" data-item-order="0" data-item-id="lapt_1hfp72h1rl4vew" data-item-class="Icon Stroke SceneTarget Indexed" data-item-index="5" data-renderer-id="0" transform="translate(759, 83)"><g id="lapt_1hfp72h1rl4vew-stroke" fill="none" stroke-linecap="round" stroke-linejoin="round" stroke-miterlimit="4" stroke="#A3A3A3" stroke-width="2"><g><path d="M 51 45.599998C 51 49 51 52.400002 51.799999 55.599998M 13.6 16.799999C 13.6 19.4 15.8 21.799999 18.6 21.6C 21.200001 21.6 23.4 19.4 23.4 16.799999C 23.6 14 21.200001 11.2 18.6 11.8C 15.8 12.4 12.6 14.2 13.6 16.799999M 32.799999 29.4C 30.200001 30.4 27.200001 30.4 24.6 29.4C 22.200001 28.4 20.799999 25.4 18.4 24.6C 17.6 23.6 17 24 17 24C 15.8 23.6 14.8 24.200001 14.2 25C 14 26.200001 13.6 26.4 13.6 26.4C 15 31.4 11.4 36.400002 12.2 41.400002C 12.4 42.799999 13 44.200001 14.4 44.599998C 18 45.200001 21.6 46 25 47C 26 49 25.799999 51.200001 25.799999 53.400002C 25.799999 55 27.200001 56 28.799999 56.200001C 30.799999 56.400002 32.200001 54.400002 31.799999 52.799999C 31.200001 50 31.4 47 30.799999 44.200001C 30.6 43 29.799999 41.400002 28.6 41.599998C 25 42.200001 21.6 40.599998 18.4 39.200001C 19.4 37.200001 18.4 34.799999 19 32.799999C 19.6 33.599998 20.799999 34.200001 21.6 34.799999C 22.200001 35.200001 22.799999 35.599998 23.4 35.400002C 26.6 34.799999 29.799999 34.599998 32.799999 35.400002C 34.400002 35.799999 35.799999 34 35.799999 32.400002C 36 30.799999 34.400002 29 32.799999 29.4M 48 28.6C 48.400002 31.6 47.400002 34.799999 46.599998 37.599998C 44.200001 37.200001 41.799999 37.599998 39.400002 37.599998M 39.799999 45.599998C 40.200001 48.799999 40.200001 52.400002 39 55.599998M 36 41.599998C 42 43.799999 48.599998 41.599998 54.799999 41.599998C 54.799999 41.599998 55.599998 41.799999 55.799999 42.599998C 56 43.200001 55.599998 44 55.799999 44.599998C 55.799999 44.599998 55.799999 45.200001 54.799999 45.599998C 48.799999 47 42.200001 45.599998 36 45.599998C 36 45.599998 35 45.599998 35 44.599998C 35 44 35.200001 43.200001 35 42.599998C 35 42.599998 35 41.400002 36 41.599998M 51.046001 45.542L 51.872002 55.566002M 13.616 16.74C 13.615882 19.452908 15.815094 21.652214 18.528 21.652214C 21.240906 21.652214 23.440119 19.452908 23.440001 16.74C 23.440119 14.027094 21.240906 11.827785 18.528 11.827785C 15.815094 11.827785 13.615882 14.027094 13.616 16.74M 32.826 29.4L 32.809998 29.4L 24.51 29.448L 18.422001 24.542C 18.364 24.493999 18.298 24.462 18.236 24.42C 18.14175 24.34798 18.043602 24.281212 17.942001 24.220001C 17.836899 24.168045 17.728695 24.122625 17.618 24.084C 17.544001 24.063999 17.476 24.028 17.4 24C 17.252392 23.959078 17.101992 23.928997 16.950001 23.91C 16.908001 23.91 16.869999 23.889999 16.826 23.886L 16.826 23.886C 16.76 23.886 16.694 23.886 16.625999 23.886C 15.699132 23.851845 14.810165 24.255583 14.226 24.976002L 14.2 25C 14.15 25.060001 14.116 25.130001 14.072001 25.200001C 14.028 25.27 13.941999 25.382 13.888 25.482C 13.836222 25.58881 13.790156 25.698299 13.75 25.809998C 13.722 25.883999 13.688 25.952 13.664 26.028C 13.624603 26.168978 13.595856 26.312716 13.578 26.458C 13.578 26.507999 13.554 26.552 13.55 26.6L 13.55 26.628L 13.55 26.628L 12.134 41.321999C 11.995907 42.818745 12.986786 44.186653 14.452 44.521999L 25.094 46.956001L 25.813999 53.495998C 25.979542 55.019844 27.267193 56.173813 28.800001 56.172001C 28.910872 56.172604 29.021698 56.167263 29.131998 56.155998C 30.779779 55.974869 31.968327 54.49165 31.786001 52.844002L 30.832001 44.183998C 30.693638 42.912731 29.764637 41.868908 28.518 41.584L 18.358 39.265999L 19 32.708L 21.576 34.799999C 22.109709 35.230057 22.774588 35.464386 23.459999 35.464001L 23.478001 35.464001L 32.844002 35.41C 34.500565 35.404625 35.839233 34.057571 35.834267 32.401001C 35.829296 30.744434 34.482567 29.405436 32.826 29.41ZM 47.942001 28.656L 46.57 37.641998L 39.348 37.697998M 39.764 45.542L 38.938 55.566002M 35.966 41.66L 54.844002 41.66C 54.844002 41.66 55.880001 41.66 55.880001 42.695999L 55.880001 44.507999C 55.880001 44.507999 55.880001 45.543999 54.844002 45.543999L 35.966 45.543999C 35.966 45.543999 34.93 45.543999 34.93 44.507999L 34.93 42.695999C 34.93 42.695999 34.93 41.66 35.966 41.66"></path></g></g></g></g></g></svg>