<svg width="852" height="289" viewBox="0 0 852 289" style="fill:none;stroke:none;fill-rule:evenodd;clip-rule:evenodd;stroke-linecap:round;stroke-linejoin:round;stroke-miterlimit:1.5;" version="1.1" xmlns="http://www.w3.org/2000/svg" xmlns:xlink="http://www.w3.org/1999/xlink"><style id="fontImports">@import url("https://fonts.googleapis.com/css2?family=Shantell+Sans:wght@300..800&display=block");</style><g id="items" style="isolation: isolate"><g id="blend" style="mix-blend-mode:screen"><g id="g-root-4.cu_sy_1q7l3i01qqp8uj-fill" data-item-order="-64508" data-item-id="4.cu_sy_1q7l3i01qqp8uj" data-item-class="ScenePart Part Indexed Fill Stroke" data-item-index="4" data-renderer-id="0" transform="translate(442, 105)"><g id="4.cu_sy_1q7l3i01qqp8uj-fill" stroke="none" fill="#4f4a20"><g><path d="M 81.469 86.464C 81.815 87.751 82 89.104 82 90.5C 82 99.06 75.06 106 66.5 106C 63.433 106 60.575 105.109 58.169 103.573C 56.496 104.481 54.561 105 52.5 105C 49.212 105 46.247 103.68 44.151 101.565C 43.147 101.849 42.09 102 41 102C 34.373 102 29 96.404 29 89.5C 29 88.374 29.143 87.283 29.411 86.246C 27.314 84.326 26 81.566 26 78.5C 26 74.9 27.812 71.723 30.574 69.831C 29.569 67.943 29 65.788 29 63.5C 29 56.044 35.044 50 42.5 50C 43.036 50 43.566 50.031 44.086 50.092C 47.712 47.518 52.175 46 57 46C 62.757 46 67.997 48.161 71.918 51.698C 73.024 51.248 74.233 51 75.5 51C 80.747 51 85 55.253 85 60.5C 85 62.899 84.111 65.09 82.644 66.762C 84.733 69.227 86 72.46 86 76C 86 80.162 84.249 83.899 81.469 86.464ZM 18 34C 18 38.418278 21.581722 42 26 42C 30.418278 42 34 38.418278 34 34C 34 29.581722 30.418278 26 26 26C 21.581722 26 18 29.581722 18 34M 18 14C 18 16.209137 16.209137 18 14 18C 11.790863 18 10 16.209137 10 14C 10 11.790863 11.790863 10 14 10C 16.209137 10 18 11.790863 18 14"></path></g></g></g><g id="g-root-3.cu_sy_1q7l3i01qqp8ui-fill" data-item-order="-64506" data-item-id="3.cu_sy_1q7l3i01qqp8ui" data-item-class="ScenePart Part Indexed Fill Stroke" data-item-index="3" data-renderer-id="0" transform="translate(302, 105)"><g id="3.cu_sy_1q7l3i01qqp8ui-fill" stroke="none" fill="#562d69"><g><path d="M 28.274 49.698C 27.102 49.247 25.83 49 24.5 49C 18.701 49 14 53.701 14 59.5C 14 60.412 14.116 61.297 14.335 62.141C 11.636 65.308 10 69.457 10 74C 10 79.691 12.567 84.764 16.576 88.063C 16.203 89.14 16 90.296 16 91.5C 16 97.299 20.701 102 26.5 102C 27.29 102 28.06 101.913 28.8 101.747C 31.354 104.365 34.979 106 39 106C 43.501 106 47.507 103.951 50.068 100.768C 51.652 102.158 53.727 103 56 103C 60.971 103 65 98.971 65 94C 65 93.139 64.879 92.307 64.654 91.519C 67.982 87.645 70 82.564 70 77C 70 72.663 68.773 68.618 66.656 65.211C 66.881 64.176 67 63.102 67 62C 67 53.716 60.284 47 52 47C 50.211 47 48.495 47.313 46.904 47.888C 44.542 46.682 41.853 46 39 46C 34.933 46 31.199 47.386 28.274 49.698ZM 62 34C 62 38.418278 65.581722 42 70 42C 74.418278 42 78 38.418278 78 34C 78 29.581722 74.418278 26 70 26C 65.581722 26 62 29.581722 62 34M 86 14C 86 16.209137 84.209137 18 82 18C 79.790863 18 78 16.209137 78 14C 78 11.790863 79.790863 10 82 10C 84.209137 10 86 11.790863 86 14"></path></g></g></g><g id="g-root-2.cu_sy_241rs1qqp88x-fill" data-item-order="-64504" data-item-id="2.cu_sy_241rs1qqp88x" data-item-class="ScenePart Part Indexed Fill Stroke" data-item-index="2" data-renderer-id="0" transform="translate(474, 9)"><g id="2.cu_sy_241rs1qqp88x-fill" stroke="none" fill="#224754"><g><path d="M 83 70C 87.95 70 92.518 68.402 96.194 65.706C 97.782 66.533 99.586 67 101.5 67C 107.851 67 113 61.851 113 55.5C 113 52.514 111.862 49.794 109.996 47.75C 112.435 45.827 114 42.846 114 39.5C 114 37.08 113.181 34.852 111.806 33.076C 111.934 32.237 112 31.376 112 30.5C 112 21.387 104.837 14 96 14C 95.01 14 94.04 14.093 93.099 14.27C 90.011 11.613 85.95 10 81.5 10C 76.933 10 72.774 11.7 69.658 14.483C 68.661 14.169 67.6 14 66.5 14C 60.701 14 56 18.701 56 24.5C 56 27.072 56.925 29.428 58.46 31.254C 56.915 33.417 56 36.098 56 39C 56 41.302 56.575 43.464 57.584 45.339C 55.359 47.746 54 50.964 54 54.5C 54 61.956 60.044 68 67.5 68C 69.122 68 70.677 67.714 72.118 67.19C 75.327 68.978 79.041 70 83 70ZM 28 40C 28 44.418278 31.581722 48 36 48C 40.418278 48 44 44.418278 44 40C 44 35.581722 40.418278 32 36 32C 31.581722 32 28 35.581722 28 40M 18 40C 18 42.209137 16.209167 44 14 44C 11.790863 44 10 42.209137 10 40C 10 37.790863 11.790863 36 14 36C 16.209167 36 18 37.790863 18 40"></path></g></g></g><g id="g-root-1.cu_sy_241rs1qqp88w-fill" data-item-order="-64502" data-item-id="1.cu_sy_241rs1qqp88w" data-item-class="ScenePart Part Indexed Indexed_1 Fill Stroke" data-item-index="1" data-renderer-id="0" transform="translate(242, 9)"><g id="1.cu_sy_241rs1qqp88w-fill" stroke="none" fill="#404b29"><g><path d="M 20.598 19C 20.565 19 20.533 19 20.5 19C 14.701 19 10 23.701 10 29.5C 10 32.574 11.321 35.339 13.426 37.259C 13.147 38.459 13 39.712 13 41C 13 41.745 13.049 42.478 13.145 43.196C 11.788 45.301 11 47.809 11 50.5C 11 57.956 17.044 64 24.5 64C 24.847 64 25.19 63.987 25.53 63.961C 29.172 67.682 34.308 70 40 70C 45.641 70 50.737 67.723 54.373 64.059C 55.621 64.662 57.021 65 58.5 65C 63.747 65 68 60.747 68 55.5C 68 52.628 66.726 50.055 64.712 48.313C 67.948 45.469 70 41.232 70 36.5C 70 32.425 68.478 28.717 65.99 25.95C 65.996 25.801 66 25.651 66 25.5C 66 20.253 61.747 16 56.5 16C 55.92 16 55.353 16.052 54.802 16.151C 50.681 12.338 45.12 10 39 10C 31.475 10 24.794 13.535 20.598 19ZM 80 40C 80 44.418278 83.581722 48 88 48C 92.418278 48 96 44.418278 96 40C 96 35.581722 92.418278 32 88 32C 83.581722 32 80 35.581722 80 40M 114 40C 114 42.209137 112.209137 44 110 44C 107.790863 44 106 42.209137 106 40C 106 37.790863 107.790863 36 110 36C 112.209137 36 114 37.790863 114 40"></path></g></g></g><g id="g-root-face_qriyuw1qqs1s5-fill" data-item-order="0" data-item-id="face_qriyuw1qqs1s5" data-item-class="Icon Stroke SceneTarget ColorFillGray ColorStrokeGray" data-item-index="0" data-renderer-id="0" transform="translate(374, 3)"></g><g id="g-root-tx_pouvoird_3zh141qqp79f-fill" data-item-order="0" data-item-id="tx_pouvoird_3zh141qqp79f" data-item-class="Label Stroke SceneTarget Indexed Indexed_1 ColorFillGray ColorStrokeGray" data-item-index="1" data-renderer-id="0" transform="translate(14, 27)"><g id="tx_pouvoird_3zh141qqp79f-fill" stroke="none" fill="#8e8e8e"><g><text style="font: bold 20px &quot;Shantell Sans&quot;, cursive; white-space: pre;"><tspan x="21.23" y="35">Pouvoir décisionnel</tspan></text></g></g></g><g id="g-root-brai_142zh881qqs078-fill" data-item-order="0" data-item-id="brai_142zh881qqs078" data-item-class="Icon Stroke SceneTarget Indexed Indexed_1 InsideFill" data-item-index="1" data-renderer-id="0" transform="translate(254, 21)"></g><g id="g-root-out_8z006w1qqs1z6-fill" data-item-order="0" data-item-id="out_8z006w1qqs1z6" data-item-class="Icon Stroke SceneTarget Indexed InsideFill" data-item-index="2" data-renderer-id="0" transform="translate(530, 21)"></g><g id="g-root-tx_transpar_qqa0oo1qqp79d-fill" data-item-order="0" data-item-id="tx_transpar_qqa0oo1qqp79d" data-item-class="Label Stroke SceneTarget Indexed ColorFillGray ColorStrokeGray" data-item-index="2" data-renderer-id="0" transform="translate(590, 27)"><g id="tx_transpar_qqa0oo1qqp79d-fill" stroke="none" fill="#8e8e8e"><g><text style="font: bold 20px &quot;Shantell Sans&quot;, cursive; white-space: pre;"><tspan x="12" y="35">Transparence totale</tspan></text></g></g></g><g id="g-root-tx_voixdire_detibc1qqp8ua-fill" data-item-order="0" data-item-id="tx_voixdire_detibc1qqp8ua" data-item-class="Label Stroke SceneTarget Indexed Indexed_1 ColorStrokeGray" data-item-index="1" data-renderer-id="0" transform="translate(2, 63)"><g id="tx_voixdire_detibc1qqp8ua-fill" stroke="none" fill="#8e8e8e"><g><text style="font: 20px &quot;Shantell Sans&quot;, cursive; white-space: pre;"><tspan x="35.25" y="35">Voix directe dans les </tspan><tspan x="20.84" y="59">décisions importantes.</tspan></text></g></g></g><g id="g-root-tx_opration_qqa0oo1qqp79c-fill" data-item-order="0" data-item-id="tx_opration_qqa0oo1qqp79c" data-item-class="Label Stroke SceneTarget Indexed ColorStrokeGray" data-item-index="2" data-renderer-id="0" transform="translate(590, 63)"><g id="tx_opration_qqa0oo1qqp79c-fill" stroke="none" fill="#8e8e8e"><g><text style="font: 20px &quot;Shantell Sans&quot;, cursive; white-space: pre;"><tspan x="12" y="35">Opérations et décisions </tspan><tspan x="12" y="59">enregistrées sur la </tspan><tspan x="12" y="83">blockchain.</tspan></text></g></g></g><g id="g-root-tx_rcompens_v5h1q01qqp9mv-fill" data-item-order="0" data-item-id="tx_rcompens_v5h1q01qqp9mv" data-item-class="Label Stroke SceneTarget Indexed ColorFillGray ColorStrokeGray" data-item-index="3" data-renderer-id="0" transform="translate(14, 159)"><g id="tx_rcompens_v5h1q01qqp9mv-fill" stroke="none" fill="#8e8e8e"><g><text style="font: bold 20px &quot;Shantell Sans&quot;, cursive; white-space: pre;"><tspan x="21.83" y="35">Récompenses attractives</tspan></text></g></g></g><g id="g-root-1_detibc1qqs16x-fill" data-item-order="0" data-item-id="1_detibc1qqs16x" data-item-class="Icon Stroke SceneTarget Indexed InsideFill" data-item-index="3" data-renderer-id="0" transform="translate(314, 153)"></g><g id="g-root-incr_1upa0vs1qqs077-fill" data-item-order="0" data-item-id="incr_1upa0vs1qqs077" data-item-class="Icon Stroke SceneTarget Indexed InsideFill" data-item-index="4" data-renderer-id="0" transform="translate(470, 153)"></g><g id="g-root-tx_innovati_1cwr27s1qqp79p-fill" data-item-order="0" data-item-id="tx_innovati_1cwr27s1qqp79p" data-item-class="Label Stroke SceneTarget Indexed ColorFillGray ColorStrokeGray" data-item-index="4" data-renderer-id="0" transform="translate(530, 159)"><g id="tx_innovati_1cwr27s1qqp79p-fill" stroke="none" fill="#8e8e8e"><g><text style="font: bold 20px &quot;Shantell Sans&quot;, cursive; white-space: pre;"><tspan x="12" y="35">Innovation constante</tspan></text></g></g></g><g id="g-root-tx_rcompens_zlajug1qqp8um-fill" data-item-order="0" data-item-id="tx_rcompens_zlajug1qqp8um" data-item-class="Label Stroke SceneTarget Indexed ColorStrokeGray" data-item-index="3" data-renderer-id="0" transform="translate(74, 195)"><g id="tx_rcompens_zlajug1qqp8um-fill" stroke="none" fill="#8e8e8e"><g><text style="font: 20px &quot;Shantell Sans&quot;, cursive; white-space: pre;"><tspan x="44.5" y="35">Récompenses pour </tspan><tspan x="16.3" y="59">l'engagement dans la </tspan><tspan x="95.77" y="83">gouvernance.</tspan></text></g></g></g><g id="g-root-tx_contribu_1lrrldk1qqp9ms-fill" data-item-order="0" data-item-id="tx_contribu_1lrrldk1qqp9ms" data-item-class="Label Stroke SceneTarget Indexed ColorStrokeGray" data-item-index="4" data-renderer-id="0" transform="translate(530, 195)"><g id="tx_contribu_1lrrldk1qqp9ms-fill" stroke="none" fill="#8e8e8e"><g><text style="font: 20px &quot;Shantell Sans&quot;, cursive; white-space: pre;"><tspan x="12" y="35">Contribuer à l'évolution de </tspan><tspan x="12" y="59">la plateforme.</tspan></text></g></g></g><g id="g-root-4.cu_sy_1q7l3i01qqp8uj-stroke" data-item-order="-64508" data-item-id="4.cu_sy_1q7l3i01qqp8uj" data-item-class="ScenePart Part Indexed Fill Stroke" data-item-index="4" data-renderer-id="0" transform="translate(442, 105)"><g id="4.cu_sy_1q7l3i01qqp8uj-stroke" fill="none" stroke-linecap="round" stroke-linejoin="round" stroke-miterlimit="4" stroke="#FFE60A" stroke-width="2" stroke-dasharray="5.0, 7.0"><g><path d="M 81.469 86.464C 81.815 87.751 82 89.104 82 90.5C 82 99.06 75.06 106 66.5 106C 63.433 106 60.575 105.109 58.169 103.573C 56.496 104.481 54.561 105 52.5 105C 49.212 105 46.247 103.68 44.151 101.565C 43.147 101.849 42.09 102 41 102C 34.373 102 29 96.404 29 89.5C 29 88.374 29.143 87.283 29.411 86.246C 27.314 84.326 26 81.566 26 78.5C 26 74.9 27.812 71.723 30.574 69.831C 29.569 67.943 29 65.788 29 63.5C 29 56.044 35.044 50 42.5 50C 43.036 50 43.566 50.031 44.086 50.092C 47.712 47.518 52.175 46 57 46C 62.757 46 67.997 48.161 71.918 51.698C 73.024 51.248 74.233 51 75.5 51C 80.747 51 85 55.253 85 60.5C 85 62.899 84.111 65.09 82.644 66.762C 84.733 69.227 86 72.46 86 76C 86 80.162 84.249 83.899 81.469 86.464ZM 18 34C 18 38.418278 21.581722 42 26 42C 30.418278 42 34 38.418278 34 34C 34 29.581722 30.418278 26 26 26C 21.581722 26 18 29.581722 18 34M 18 14C 18 16.209137 16.209137 18 14 18C 11.790863 18 10 16.209137 10 14C 10 11.790863 11.790863 10 14 10C 16.209137 10 18 11.790863 18 14"></path></g></g></g><g id="g-root-3.cu_sy_1q7l3i01qqp8ui-stroke" data-item-order="-64506" data-item-id="3.cu_sy_1q7l3i01qqp8ui" data-item-class="ScenePart Part Indexed Fill Stroke" data-item-index="3" data-renderer-id="0" transform="translate(302, 105)"><g id="3.cu_sy_1q7l3i01qqp8ui-stroke" fill="none" stroke-linecap="round" stroke-linejoin="round" stroke-miterlimit="4" stroke="#CD6AFB" stroke-width="2" stroke-dasharray="5.0, 7.0"><g><path d="M 28.274 49.698C 27.102 49.247 25.83 49 24.5 49C 18.701 49 14 53.701 14 59.5C 14 60.412 14.116 61.297 14.335 62.141C 11.636 65.308 10 69.457 10 74C 10 79.691 12.567 84.764 16.576 88.063C 16.203 89.14 16 90.296 16 91.5C 16 97.299 20.701 102 26.5 102C 27.29 102 28.06 101.913 28.8 101.747C 31.354 104.365 34.979 106 39 106C 43.501 106 47.507 103.951 50.068 100.768C 51.652 102.158 53.727 103 56 103C 60.971 103 65 98.971 65 94C 65 93.139 64.879 92.307 64.654 91.519C 67.982 87.645 70 82.564 70 77C 70 72.663 68.773 68.618 66.656 65.211C 66.881 64.176 67 63.102 67 62C 67 53.716 60.284 47 52 47C 50.211 47 48.495 47.313 46.904 47.888C 44.542 46.682 41.853 46 39 46C 34.933 46 31.199 47.386 28.274 49.698ZM 62 34C 62 38.418278 65.581722 42 70 42C 74.418278 42 78 38.418278 78 34C 78 29.581722 74.418278 26 70 26C 65.581722 26 62 29.581722 62 34M 86 14C 86 16.209137 84.209137 18 82 18C 79.790863 18 78 16.209137 78 14C 78 11.790863 79.790863 10 82 10C 84.209137 10 86 11.790863 86 14"></path></g></g></g><g id="g-root-2.cu_sy_241rs1qqp88x-stroke" data-item-order="-64504" data-item-id="2.cu_sy_241rs1qqp88x" data-item-class="ScenePart Part Indexed Fill Stroke" data-item-index="2" data-renderer-id="0" transform="translate(474, 9)"><g id="2.cu_sy_241rs1qqp88x-stroke" fill="none" stroke-linecap="round" stroke-linejoin="round" stroke-miterlimit="4" stroke="#1AC6FF" stroke-width="2" stroke-dasharray="5.0, 7.0"><g><path d="M 83 70C 87.95 70 92.518 68.402 96.194 65.706C 97.782 66.533 99.586 67 101.5 67C 107.851 67 113 61.851 113 55.5C 113 52.514 111.862 49.794 109.996 47.75C 112.435 45.827 114 42.846 114 39.5C 114 37.08 113.181 34.852 111.806 33.076C 111.934 32.237 112 31.376 112 30.5C 112 21.387 104.837 14 96 14C 95.01 14 94.04 14.093 93.099 14.27C 90.011 11.613 85.95 10 81.5 10C 76.933 10 72.774 11.7 69.658 14.483C 68.661 14.169 67.6 14 66.5 14C 60.701 14 56 18.701 56 24.5C 56 27.072 56.925 29.428 58.46 31.254C 56.915 33.417 56 36.098 56 39C 56 41.302 56.575 43.464 57.584 45.339C 55.359 47.746 54 50.964 54 54.5C 54 61.956 60.044 68 67.5 68C 69.122 68 70.677 67.714 72.118 67.19C 75.327 68.978 79.041 70 83 70ZM 28 40C 28 44.418278 31.581722 48 36 48C 40.418278 48 44 44.418278 44 40C 44 35.581722 40.418278 32 36 32C 31.581722 32 28 35.581722 28 40M 18 40C 18 42.209137 16.209167 44 14 44C 11.790863 44 10 42.209137 10 40C 10 37.790863 11.790863 36 14 36C 16.209167 36 18 37.790863 18 40"></path></g></g></g><g id="g-root-1.cu_sy_241rs1qqp88w-stroke" data-item-order="-64502" data-item-id="1.cu_sy_241rs1qqp88w" data-item-class="ScenePart Part Indexed Indexed_1 Fill Stroke" data-item-index="1" data-renderer-id="0" transform="translate(242, 9)"><g id="1.cu_sy_241rs1qqp88w-stroke" fill="none" stroke-linecap="round" stroke-linejoin="round" stroke-miterlimit="4" stroke="#A8DD38" stroke-width="2" stroke-dasharray="5.0, 7.0"><g><path d="M 20.598 19C 20.565 19 20.533 19 20.5 19C 14.701 19 10 23.701 10 29.5C 10 32.574 11.321 35.339 13.426 37.259C 13.147 38.459 13 39.712 13 41C 13 41.745 13.049 42.478 13.145 43.196C 11.788 45.301 11 47.809 11 50.5C 11 57.956 17.044 64 24.5 64C 24.847 64 25.19 63.987 25.53 63.961C 29.172 67.682 34.308 70 40 70C 45.641 70 50.737 67.723 54.373 64.059C 55.621 64.662 57.021 65 58.5 65C 63.747 65 68 60.747 68 55.5C 68 52.628 66.726 50.055 64.712 48.313C 67.948 45.469 70 41.232 70 36.5C 70 32.425 68.478 28.717 65.99 25.95C 65.996 25.801 66 25.651 66 25.5C 66 20.253 61.747 16 56.5 16C 55.92 16 55.353 16.052 54.802 16.151C 50.681 12.338 45.12 10 39 10C 31.475 10 24.794 13.535 20.598 19ZM 80 40C 80 44.418278 83.581722 48 88 48C 92.418278 48 96 44.418278 96 40C 96 35.581722 92.418278 32 88 32C 83.581722 32 80 35.581722 80 40M 114 40C 114 42.209137 112.209137 44 110 44C 107.790863 44 106 42.209137 106 40C 106 37.790863 107.790863 36 110 36C 112.209137 36 114 37.790863 114 40"></path></g></g></g><g id="g-root-face_qriyuw1qqs1s5-stroke" data-item-order="0" data-item-id="face_qriyuw1qqs1s5" data-item-class="Icon Stroke SceneTarget ColorFillGray ColorStrokeGray" data-item-index="0" data-renderer-id="0" transform="translate(374, 3)"><g id="face_qriyuw1qqs1s5-stroke" fill="none" stroke-linecap="round" stroke-linejoin="round" stroke-miterlimit="4" stroke="#8e8e8e" stroke-width="2"><g><path d="M 46.599998 39.681999C 43.599998 36.681999 37.599998 35.181999 34.599998 38.181999M 16.9 45.681999C 16.6 44.482002 16.6 43.281998 16.6 41.781998C 16.6 25.581999 29.799999 12.382 46 12.382C 62.199997 12.382 75.399994 25.581999 75.399994 41.781998C 75.399994 52.582001 69.699997 61.882004 61 66.981995M 40.449997 77.800003C 46.449997 75.399994 45.324997 70.111 44.125 65.311005L 53.677002 61.612C 55.891281 60.755096 57.049278 58.316589 56.314003 56.059002L 56.313999 56.058998C 55.93375 54.891376 55.08989 53.931606 53.980541 53.405022C 52.871193 52.878433 51.594067 52.831413 50.449001 53.275002L 32.875 60.084999C 31.375 60.685001 29.575001 59.485001 29.575001 57.985001L 29.458 55.144001C 29.410076 53.986492 28.88414 52.900726 28.005583 52.145561C 27.127028 51.390404 25.974579 51.03352 24.823002 51.160004L 24.823 51.16C 22.704519 51.393932 21.100885 53.183647 21.1 55.315002L 21.1 67.584999C 21.1 75.385002 28.299999 81.084999 35.800003 79.284996C 35.800003 79.284996 38.949997 78.399994 40.449997 77.800003ZM 31.825001 27.681999C 31.20368 27.681999 30.700001 27.178322 30.700001 26.556999C 30.700001 25.93568 31.20368 25.431999 31.825001 25.431999M 31.825001 27.681999C 32.44632 27.681999 32.950001 27.178322 32.950001 26.556999C 32.950001 25.93568 32.44632 25.431999 31.825001 25.431999M 47.800003 27.681999C 47.17868 27.681999 46.675003 27.178322 46.675003 26.556999C 46.675003 25.93568 47.17868 25.431999 47.800003 25.431999M 47.800003 27.681999C 48.421322 27.681999 48.925003 27.178322 48.925003 26.556999C 48.925003 25.93568 48.421322 25.431999 47.800003 25.431999"></path></g></g></g><g id="g-root-tx_pouvoird_3zh141qqp79f-stroke" data-item-order="0" data-item-id="tx_pouvoird_3zh141qqp79f" data-item-class="Label Stroke SceneTarget Indexed Indexed_1 ColorFillGray ColorStrokeGray" data-item-index="1" data-renderer-id="0" transform="translate(14, 27)"></g><g id="g-root-brai_142zh881qqs078-stroke" data-item-order="0" data-item-id="brai_142zh881qqs078" data-item-class="Icon Stroke SceneTarget Indexed Indexed_1 InsideFill" data-item-index="1" data-renderer-id="0" transform="translate(254, 21)"><g id="brai_142zh881qqs078-stroke" fill="none" stroke-linecap="round" stroke-linejoin="round" stroke-miterlimit="4" stroke="#94d50a" stroke-width="2"><g><path d="M 45.3745 28C 45.370701 30.353706 43.548065 32.304054 41.199997 32.466999C 42.570629 34.227547 42.761097 36.635216 41.684334 38.589371C 40.607574 40.543533 38.470482 41.668694 36.25 41.4505C 36.58239 42.567177 36.238178 43.775311 35.367168 44.549126C 34.496162 45.322941 33.255894 45.522476 32.186134 45.060886C 31.116377 44.599297 30.410616 43.560081 30.375999 42.3955C 28.981792 43.202236 27.262711 43.202236 25.8685 42.3955C 25.831738 43.558624 25.125643 44.595566 24.056885 45.055962C 22.988123 45.516357 21.749527 45.317142 20.87903 44.544842C 20.008533 43.772537 19.663195 42.566494 19.993 41.4505C 17.772518 41.668694 15.635428 40.543533 14.558667 38.589371C 13.481906 36.635216 13.672373 34.227547 15.043 32.467003C 12.694606 32.305889 10.871958 30.353914 10.871958 28C 10.871958 25.646086 12.694606 23.694111 15.043 23.533001C 13.672373 21.772451 13.481906 19.364786 14.558667 17.410627C 15.635428 15.456469 17.772518 14.331311 19.993 14.5495C 19.663195 13.433506 20.008533 12.22746 20.87903 11.455159C 21.749527 10.682858 22.988123 10.483645 24.056885 10.944041C 25.125643 11.404437 25.831738 12.441375 25.8685 13.6045C 27.262711 12.797763 28.981792 12.797763 30.376001 13.6045C 30.410616 12.439919 31.116377 11.400702 32.186134 10.939114C 33.255894 10.477526 34.496162 10.677058 35.367168 11.450873C 36.238178 12.224689 36.58239 13.432824 36.25 14.5495C 38.470482 14.331311 40.607574 15.456469 41.684334 17.410627C 42.761097 19.364786 42.570629 21.772451 41.200001 23.533001C 43.548065 23.695946 45.370701 25.646294 45.3745 28ZM 28.1245 34.75L 28.1245 36.25M 28.1245 30.25L 28.1245 31.75M 32.801498 30.25L 32.801498 31.75M 28.1245 21.25L 28.1245 22.75M 28.1245 16.75L 28.1245 18.25M 28.1245 39.25L 28.1245 40.75M 20.6245 19C 20.6245 20.242641 21.631861 21.25 22.8745 21.25C 24.117142 21.25 25.1245 20.242641 25.1245 19C 25.1245 17.75736 24.117142 16.75 22.8745 16.75C 21.631861 16.75 20.6245 17.75736 20.6245 19ZM 31.8745 22.75C 31.8745 23.992641 32.881859 25 34.1245 25C 35.367142 25 36.3745 23.992641 36.3745 22.75C 36.3745 21.50736 35.367142 20.5 34.1245 20.5C 32.881859 20.5 31.8745 21.50736 31.8745 22.75ZM 18.3745 35.5C 18.3745 36.742641 19.381859 37.75 20.6245 37.75C 21.867142 37.75 22.8745 36.742641 22.8745 35.5C 22.8745 34.257362 21.867142 33.25 20.6245 33.25C 19.381859 33.25 18.3745 34.257362 18.3745 35.5ZM 31.1245 36.25C 31.1245 37.492641 32.131859 38.5 33.3745 38.5C 34.617142 38.5 35.6245 37.492641 35.6245 36.25C 35.6245 35.007362 34.617142 34 33.3745 34C 32.131859 34 31.1245 35.007362 31.1245 36.25ZM 34.8745 29.5C 34.8745 30.742641 35.881859 31.75 37.1245 31.75C 38.367142 31.75 39.3745 30.742641 39.3745 29.5C 39.3745 28.25736 38.367142 27.25 37.1245 27.25C 35.881859 27.25 34.8745 28.25736 34.8745 29.5ZM 36.375999 22.75C 37.204426 22.75 37.875999 22.078428 37.875999 21.25L 37.875999 19M 14.6245 28.75L 16.8745 28.75C 17.702927 28.75 18.3745 28.078428 18.3745 27.25L 18.3745 25.75C 18.3745 24.921572 19.046074 24.25 19.8745 24.25L 21.3745 24.25C 22.202927 24.25 22.8745 23.578428 22.8745 22.75L 22.8745 21.25M 22.8745 35.5C 23.702927 35.5 24.3745 36.171574 24.3745 37L 24.3745 40M 35.6245 36.25L 38.6245 36.25"></path></g></g></g><g id="g-root-out_8z006w1qqs1z6-stroke" data-item-order="0" data-item-id="out_8z006w1qqs1z6" data-item-class="Icon Stroke SceneTarget Indexed InsideFill" data-item-index="2" data-renderer-id="0" transform="translate(530, 21)"><g id="out_8z006w1qqs1z6-stroke" fill="none" stroke-linecap="round" stroke-linejoin="round" stroke-miterlimit="4" stroke="#00b9ff" stroke-width="2"><g><path d="M 31.75 28C 31.75 25.928932 30.071068 24.25 28 24.25C 25.928932 24.25 24.25 25.928932 24.25 28L 24.25 33.25L 31.75 33.25ZM 28 28.75L 38.5 19M 31.75 28.75L 43 28.75C 44.242641 28.75 45.25 29.75736 45.25 31C 45.25 32.242641 44.242641 33.25 43 33.25L 13 33.25C 11.75736 33.25 10.75 32.242641 10.75 31C 10.75 29.75736 11.75736 28.75 13 28.75L 24.25 28.75M 43 33.25L 39.699997 43.819C 39.433361 44.671452 38.643181 45.25132 37.75 45.25L 18.25 45.25C 17.356819 45.25132 16.566639 44.671452 16.299999 43.819L 13 33.25M 25.75 36.25L 25.75 42.25M 21.25 36.25L 21.25 42.25M 30.25 36.25L 30.25 42.25M 34.75 36.25L 34.75 42.25M 21.25 21.25L 10.75 10.75M 16.75 10.75L 10.75 10.75L 10.75 16.75"></path></g></g></g><g id="g-root-tx_transpar_qqa0oo1qqp79d-stroke" data-item-order="0" data-item-id="tx_transpar_qqa0oo1qqp79d" data-item-class="Label Stroke SceneTarget Indexed ColorFillGray ColorStrokeGray" data-item-index="2" data-renderer-id="0" transform="translate(590, 27)"></g><g id="g-root-tx_voixdire_detibc1qqp8ua-stroke" data-item-order="0" data-item-id="tx_voixdire_detibc1qqp8ua" data-item-class="Label Stroke SceneTarget Indexed Indexed_1 ColorStrokeGray" data-item-index="1" data-renderer-id="0" transform="translate(2, 63)"></g><g id="g-root-tx_opration_qqa0oo1qqp79c-stroke" data-item-order="0" data-item-id="tx_opration_qqa0oo1qqp79c" data-item-class="Label Stroke SceneTarget Indexed ColorStrokeGray" data-item-index="2" data-renderer-id="0" transform="translate(590, 63)"></g><g id="g-root-tx_rcompens_v5h1q01qqp9mv-stroke" data-item-order="0" data-item-id="tx_rcompens_v5h1q01qqp9mv" data-item-class="Label Stroke SceneTarget Indexed ColorFillGray ColorStrokeGray" data-item-index="3" data-renderer-id="0" transform="translate(14, 159)"></g><g id="g-root-1_detibc1qqs16x-stroke" data-item-order="0" data-item-id="1_detibc1qqs16x" data-item-class="Icon Stroke SceneTarget Indexed InsideFill" data-item-index="3" data-renderer-id="0" transform="translate(314, 153)"><g id="1_detibc1qqs16x-stroke" fill="none" stroke-linecap="round" stroke-linejoin="round" stroke-miterlimit="4" stroke="#c147fa" stroke-width="2"><g><path d="M 39.941502 32.144501L 44.633499 40.27C 44.8405 40.626999 44.675499 40.869999 44.269001 40.795002L 39.232002 39.943001L 37.486 44.743C 37.345001 45.130001 37.056999 45.156998 36.847 44.803001L 32.347 37.193501M 16.0585 32.144501L 11.3665 40.27C 11.1595 40.626999 11.3245 40.869999 11.731 40.795002L 16.768 39.943001L 18.515499 44.743C 18.6565 45.1315 18.9445 45.156998 19.154501 44.803001L 23.654499 37.202499M 40 22.948C 40.000507 21.237289 38.957222 19.699411 37.3675 19.067499C 38.043762 17.496775 37.694008 15.672466 36.484772 14.463228C 35.275532 13.25399 33.451225 12.904235 31.880501 13.5805C 31.247925 11.99183 29.710728 10.949335 28.00075 10.949335C 26.290771 10.949335 24.753576 11.99183 24.120998 13.5805C 22.549809 12.901348 20.723257 13.249781 19.512411 14.459634C 18.301565 15.669487 17.951635 17.495752 18.629499 19.067501C 17.039551 19.698921 15.995775 21.236511 15.995775 22.947248C 15.995775 24.65799 17.039551 26.19558 18.629499 26.827C 17.953236 28.397724 18.30299 30.222034 19.512228 31.431273C 20.721466 32.640511 22.545774 32.990265 24.116501 32.313999C 24.747921 33.90395 26.285509 34.947723 27.99625 34.947723C 29.706989 34.947723 31.244577 33.90395 31.875999 32.313999C 33.446724 32.990265 35.271034 32.640511 36.48027 31.431273C 37.68951 30.222034 38.039265 28.397724 37.362999 26.827C 38.954529 26.197405 39.999992 24.659534 39.999996 22.947998ZM 34 19.198L 26.921501 26.278C 26.482103 26.717682 25.7694 26.717682 25.33 26.278L 22.75 23.698"></path></g></g></g><g id="g-root-incr_1upa0vs1qqs077-stroke" data-item-order="0" data-item-id="incr_1upa0vs1qqs077" data-item-class="Icon Stroke SceneTarget Indexed InsideFill" data-item-index="4" data-renderer-id="0" transform="translate(470, 153)"><g id="incr_1upa0vs1qqs077-stroke" fill="none" stroke-linecap="round" stroke-linejoin="round" stroke-miterlimit="4" stroke="#ffe000" stroke-width="2"><g><path d="M 10.756 44.875L 45.256001 44.875M 16.75 44.875L 16.75 41.125C 16.75 40.710785 16.414213 40.375 16 40.375L 13 40.375C 12.585787 40.375 12.25 40.710785 12.25 41.125L 12.25 44.875M 25.75 44.875L 25.75 35.125C 25.75 34.710785 25.414213 34.375 25 34.375L 22 34.375C 21.585787 34.375 21.25 34.710785 21.25 35.125L 21.25 44.875M 34.75 44.875L 34.75 29.125C 34.75 28.710787 34.414215 28.375 34 28.375L 31 28.375C 30.585787 28.375 30.25 28.710787 30.25 29.125L 30.25 44.875M 43.75 44.875L 43.75 23.125C 43.75 22.710787 43.414215 22.375 43 22.375L 40 22.375C 39.585785 22.375 39.25 22.710787 39.25 23.125L 39.25 44.875M 14.506 29.875L 41.506001 11.875M 40.756001 17.875L 41.506001 11.875L 35.506001 11.125"></path></g></g></g><g id="g-root-tx_innovati_1cwr27s1qqp79p-stroke" data-item-order="0" data-item-id="tx_innovati_1cwr27s1qqp79p" data-item-class="Label Stroke SceneTarget Indexed ColorFillGray ColorStrokeGray" data-item-index="4" data-renderer-id="0" transform="translate(530, 159)"></g><g id="g-root-tx_rcompens_zlajug1qqp8um-stroke" data-item-order="0" data-item-id="tx_rcompens_zlajug1qqp8um" data-item-class="Label Stroke SceneTarget Indexed ColorStrokeGray" data-item-index="3" data-renderer-id="0" transform="translate(74, 195)"></g><g id="g-root-tx_contribu_1lrrldk1qqp9ms-stroke" data-item-order="0" data-item-id="tx_contribu_1lrrldk1qqp9ms" data-item-class="Label Stroke SceneTarget Indexed ColorStrokeGray" data-item-index="4" data-renderer-id="0" transform="translate(530, 195)"></g></g></g></svg>