<?xml version="1.0" encoding="utf-8" standalone="yes"?>
<!DOCTYPE svg PUBLIC "-//W3C//DTD SVG 1.1//EN" "http://www.w3.org/Graphics/SVG/1.1/DTD/svg11.dtd">
<svg width="842" height="336" viewBox="0 0 842 336" style="fill:none;stroke:none;fill-rule:evenodd;clip-rule:evenodd;stroke-linecap:round;stroke-linejoin:round;stroke-miterlimit:1.5;" version="1.1" xmlns="http://www.w3.org/2000/svg" xmlns:xlink="http://www.w3.org/1999/xlink"><style id="fontImports">@import url("https://fonts.googleapis.com/css2?family=Shantell+Sans:wght@300..800&amp;display=block");</style><g id="items" style="isolation: isolate"><g id="blend" style="mix-blend-mode:screen"><g id="g-root--1.line_sy_mczjtl1t957uz-fill" data-item-order="-4891" data-item-id="-1.line_sy_mczjtl1t957uz" data-item-class="ScenePart Part Stroke ColorStrokeGray" data-item-index="-1" data-renderer-id="0" transform="translate(751, 169.99609375)"></g><g id="g-root--1.vector_sy_mczjtl1t957v0-fill" data-item-order="-4889" data-item-id="-1.vector_sy_mczjtl1t957v0" data-item-class="ScenePart Part Stroke ColorStrokeGray" data-item-index="-1" data-renderer-id="0" transform="translate(4, 169.99609375)"></g><g id="g-root-8.cu-smallCircle_sy_dhcjkp1t959fo-fill" data-item-order="-4887" data-item-id="8.cu-smallCircle_sy_dhcjkp1t959fo" data-item-class="ScenePart Part Indexed Stroke ColorStrokeGray" data-item-index="8" data-renderer-id="0" transform="translate(745, 167)"></g><g id="g-root-7.cu-smallCircle_sy_dhcjkp1t959fn-fill" data-item-order="-4885" data-item-id="7.cu-smallCircle_sy_dhcjkp1t959fn" data-item-class="ScenePart Part Indexed Stroke ColorStrokeGray" data-item-index="7" data-renderer-id="0" transform="translate(649, 167)"></g><g id="g-root-6.cu-smallCircle_sy_hx61p51t958ne-fill" data-item-order="-4883" data-item-id="6.cu-smallCircle_sy_hx61p51t958ne" data-item-class="ScenePart Part Indexed Stroke ColorStrokeGray" data-item-index="6" data-renderer-id="0" transform="translate(553, 167)"></g><g id="g-root-5.cu-smallCircle_sy_hx61p51t958nd-fill" data-item-order="-4881" data-item-id="5.cu-smallCircle_sy_hx61p51t958nd" data-item-class="ScenePart Part Indexed Stroke ColorStrokeGray" data-item-index="5" data-renderer-id="0" transform="translate(457, 167)"></g><g id="g-root-4.cu-smallCircle_sy_hx61p51t958nc-fill" data-item-order="-4879" data-item-id="4.cu-smallCircle_sy_hx61p51t958nc" data-item-class="ScenePart Part Indexed Stroke ColorStrokeGray" data-item-index="4" data-renderer-id="0" transform="translate(361, 167)"></g><g id="g-root-3.cu-smallCircle_sy_hx61p51t958nb-fill" data-item-order="-4877" data-item-id="3.cu-smallCircle_sy_hx61p51t958nb" data-item-class="ScenePart Part Indexed Stroke ColorStrokeGray" data-item-index="3" data-renderer-id="0" transform="translate(265, 167)"></g><g id="g-root-2.cu-smallCircle_sy_mczjtl1t957v2-fill" data-item-order="-4875" data-item-id="2.cu-smallCircle_sy_mczjtl1t957v2" data-item-class="ScenePart Part Indexed Stroke ColorStrokeGray" data-item-index="2" data-renderer-id="0" transform="translate(169, 167)"></g><g id="g-root-1.cu-smallCircle_sy_mczjtl1t957v1-fill" data-item-order="-4873" data-item-id="1.cu-smallCircle_sy_mczjtl1t957v1" data-item-class="ScenePart Part Indexed Indexed_1 Stroke ColorStrokeGray" data-item-index="1" data-renderer-id="0" transform="translate(73, 167)"></g><g id="g-root-tx_faq_dhcjkp1t959fp-fill" data-item-order="0" data-item-id="tx_faq_dhcjkp1t959fp" data-item-class="Label Stroke SceneTarget Indexed ColorStrokeGray" data-item-index="8" data-renderer-id="0" transform="translate(724, 242)"><g id="tx_faq_dhcjkp1t959fp-fill" stroke="none" fill="#A3A3A3"><g><text style="font: 20px &quot;Shantell Sans&quot;, cursive; white-space: pre;"><tspan x="14.46" y="35" dominant-baseline="ideographic">FAQ</tspan></text></g></g></g><g id="g-root-seve_8x4eft1tiqs5i-fill" data-item-order="0" data-item-id="seve_8x4eft1tiqs5i" data-item-class="Icon Stroke SceneTarget Indexed ColorStrokeGray" data-item-index="7" data-renderer-id="0" transform="translate(628, 110)"></g><g id="g-root-cros_1hbxwrd1tiqryg-fill" data-item-order="0" data-item-id="cros_1hbxwrd1tiqryg" data-item-class="Icon Stroke SceneTarget Indexed ColorStrokeGray" data-item-index="5" data-renderer-id="0" transform="translate(436, 110)"></g><g id="g-root-writ_zladcp1tiqr5u-fill" data-item-order="0" data-item-id="writ_zladcp1tiqr5u" data-item-class="Icon Stroke SceneTarget Indexed ColorStrokeGray" data-item-index="3" data-renderer-id="0" transform="translate(244, 110)"></g><g id="g-root-coin_qpnd3t1tiqryk-fill" data-item-order="0" data-item-id="coin_qpnd3t1tiqryk" data-item-class="Icon Stroke SceneTarget Indexed Indexed_1 ColorStrokeGray" data-item-index="1" data-renderer-id="0" transform="translate(52, 110)"></g><g id="g-root-tx_ressourc_4mc0ex1t9572m-fill" data-item-order="0" data-item-id="tx_ressourc_4mc0ex1t9572m" data-item-class="Label Stroke SceneTarget Indexed ColorStrokeGray" data-item-index="7" data-renderer-id="0" transform="translate(580, 50)"><g id="tx_ressourc_4mc0ex1t9572m-fill" stroke="none" fill="#A3A3A3"><g><text style="font: 20px &quot;Shantell Sans&quot;, cursive; white-space: pre;"><tspan x="13.86" y="35" dominant-baseline="ideographic">Ressources et </tspan><tspan x="43.61" y="59" dominant-baseline="ideographic">support</tspan></text></g></g></g><g id="g-root-tx_introduc_145iihl1t958g4-fill" data-item-order="0" data-item-id="tx_introduc_145iihl1t958g4" data-item-class="Label Stroke SceneTarget Indexed Indexed_1 ColorStrokeGray" data-item-index="1" data-renderer-id="0" transform="translate(4, 50)"><g id="tx_introduc_145iihl1t958g4-fill" stroke="none" fill="#A3A3A3"><g><text style="font: 20px &quot;Shantell Sans&quot;, cursive; white-space: pre;"><tspan x="17.11" y="35" dominant-baseline="ideographic">Introduction </tspan><tspan x="37.08" y="59" dominant-baseline="ideographic">aux DAO</tspan></text></g></g></g><g id="g-root-bina_qpnd3t1tiqryj-fill" data-item-order="0" data-item-id="bina_qpnd3t1tiqryj" data-item-class="Icon Stroke SceneTarget Indexed ColorStrokeGray" data-item-index="2" data-renderer-id="0" transform="translate(148, 182)"></g><g id="g-root-bran_1cw4emx1tiqsqp-fill" data-item-order="0" data-item-id="bran_1cw4emx1tiqsqp" data-item-class="Icon Stroke SceneTarget Indexed ColorStrokeGray" data-item-index="4" data-renderer-id="0" transform="translate(340, 182)"></g><g id="g-root-3_1lrrevt1tiqr67-fill" data-item-order="0" data-item-id="3_1lrrevt1tiqr67" data-item-class="Icon Stroke SceneTarget Indexed ColorStrokeGray" data-item-index="6" data-renderer-id="0" transform="translate(532, 182)"></g><g id="g-root-circ_m7yfq11tipers-fill" data-item-order="0" data-item-id="circ_m7yfq11tipers" data-item-class="Icon Stroke SceneTarget Indexed ColorStrokeGray" data-item-index="8" data-renderer-id="0" transform="translate(724, 182)"></g><g id="g-root-tx_miseenpl_1hgcjrt1t95a0y-fill" data-item-order="0" data-item-id="tx_miseenpl_1hgcjrt1t95a0y" data-item-class="Label Stroke SceneTarget Indexed ColorStrokeGray" data-item-index="3" data-renderer-id="0" transform="translate(190, 26)"><g id="tx_miseenpl_1hgcjrt1t95a0y-fill" stroke="none" fill="#A3A3A3"><g><text style="font: 20px &quot;Shantell Sans&quot;, cursive; white-space: pre;"><tspan x="19.62" y="35" dominant-baseline="ideographic">Mise en place </tspan><tspan x="17.43" y="59" dominant-baseline="ideographic">et objectifs de </tspan><tspan x="38.35" y="83" dominant-baseline="ideographic">la DAO V1</tspan></text></g></g></g><g id="g-root-tx_vuedense_18lc0m11t957nv-fill" data-item-order="0" data-item-id="tx_vuedense_18lc0m11t957nv" data-item-class="Label Stroke SceneTarget Indexed ColorStrokeGray" data-item-index="2" data-renderer-id="0" transform="translate(94, 242)"><g id="tx_vuedense_18lc0m11t957nv-fill" stroke="none" fill="#A3A3A3"><g><text style="font: 20px &quot;Shantell Sans&quot;, cursive; white-space: pre;"><tspan x="12.32" y="35" dominant-baseline="ideographic">Vue d'ensemble </tspan><tspan x="37.3" y="59" dominant-baseline="ideographic">de la DAO </tspan><tspan x="37.09" y="83" dominant-baseline="ideographic">RealToken</tspan></text></g></g></g><g id="g-root-tx_fonction_1lw61w91t9598p-fill" data-item-order="0" data-item-id="tx_fonction_1lw61w91t9598p" data-item-class="Label Stroke SceneTarget Indexed ColorStrokeGray" data-item-index="4" data-renderer-id="0" transform="translate(280, 242)"><g id="tx_fonction_1lw61w91t9598p-fill" stroke="none" fill="#A3A3A3"><g><text style="font: 20px &quot;Shantell Sans&quot;, cursive; white-space: pre;"><tspan x="14.87" y="35" dominant-baseline="ideographic">Fonctionnement </tspan><tspan x="17.7" y="59" dominant-baseline="ideographic">technique de la </tspan><tspan x="57.01" y="83" dominant-baseline="ideographic">DAO V1</tspan></text></g></g></g><g id="g-root-tx_perspect_6iiah1t957uv-fill" data-item-order="0" data-item-id="tx_perspect_6iiah1t957uv" data-item-class="Label Stroke SceneTarget Indexed ColorStrokeGray" data-item-index="6" data-renderer-id="0" transform="translate(484, 242)"><g id="tx_perspect_6iiah1t957uv-fill" stroke="none" fill="#A3A3A3"><g><text style="font: 20px &quot;Shantell Sans&quot;, cursive; white-space: pre;"><tspan x="21.24" y="35" dominant-baseline="ideographic">Perspectives </tspan><tspan x="14.24" y="59" dominant-baseline="ideographic">d'avenir de la </tspan><tspan x="58.79" y="83" dominant-baseline="ideographic">DAO</tspan></text></g></g></g><g id="g-root-tx_guidepra_1urt2551t958g0-fill" data-item-order="0" data-item-id="tx_guidepra_1urt2551t958g0" data-item-class="Label Stroke SceneTarget Indexed ColorStrokeGray" data-item-index="5" data-renderer-id="0" transform="translate(382, 2)"><g id="tx_guidepra_1urt2551t958g0-fill" stroke="none" fill="#A3A3A3"><g><text style="font: 20px &quot;Shantell Sans&quot;, cursive; white-space: pre;"><tspan x="16.24" y="35" dominant-baseline="ideographic">Guide pratique </tspan><tspan x="48.34" y="59" dominant-baseline="ideographic">pour les </tspan><tspan x="19.87" y="83" dominant-baseline="ideographic">détenteurs de </tspan><tspan x="66.88" y="107" dominant-baseline="ideographic">REG</tspan></text></g></g></g><g id="g-root--1.line_sy_mczjtl1t957uz-stroke" data-item-order="-4891" data-item-id="-1.line_sy_mczjtl1t957uz" data-item-class="ScenePart Part Stroke ColorStrokeGray" data-item-index="-1" data-renderer-id="0" transform="translate(751, 169.99609375)"><g id="-1.line_sy_mczjtl1t957uz-stroke" fill="none" stroke-linecap="round" stroke-linejoin="round" stroke-miterlimit="4" stroke="#A3A3A3" stroke-width="4"><g><path d="M 76.2 10.003906C 54.1 8.803906 32 11.403906 10 10.003906"></path><path d="M 76.17 10.003906L 10 10.003906"></path><path d="M 67.7 19.203906C 71.4 17.003906 73.1 12.003906 76.9 10.003906C 74.3 6.503906 70.3 4.303906 67.7 0.803906" stroke-dasharray="none"></path><path d="M 67.7 19.203906L 76.9 10.003906L 67.7 0.803906" stroke-dasharray="none"></path></g></g></g><g id="g-root--1.vector_sy_mczjtl1t957v0-stroke" data-item-order="-4889" data-item-id="-1.vector_sy_mczjtl1t957v0" data-item-class="ScenePart Part Stroke ColorStrokeGray" data-item-index="-1" data-renderer-id="0" transform="translate(4, 169.99609375)"><g id="-1.vector_sy_mczjtl1t957v0-stroke" fill="none" stroke-linecap="round" stroke-linejoin="round" stroke-miterlimit="4" stroke="#A3A3A3" stroke-width="4"><g><path d="M 748.2 10.003906C 719.2 8.303906 690 8.403906 661 10.003906C 644.3 10.903906 627.6 11.203906 610.9 10.003906C 595.6 8.903906 580.3 11.203906 565 10.003906C 533.1 7.603906 501 10.403906 469 10.003906C 437 9.603906 405 11.603906 373 10.003906C 341 8.403906 309 9.303906 277 10.003906C 260.1 10.403906 243.1 9.803906 226.2 10.003906C 211.1 10.203906 196 8.503906 181 10.003906C 149.2 13.103906 116.9 12.003906 85 10.003906C 60 8.503906 34.9 8.203906 10 10.003906"></path><path d="M 748.17 10.003906L 661 10.003906L 565 10.003906L 469 10.003906L 373 10.003906L 277 10.003906L 181 10.003906L 85 10.003906L 10 10.003906"></path><path d="M 739.7 19.203906C 743.5 17.103906 747.1 14.003906 748.9 10.003906C 746.5 6.403906 742 4.503906 739.7 0.803906" stroke-dasharray="none"></path><path d="M 739.7 19.203906L 748.9 10.003906L 739.7 0.803906" stroke-dasharray="none"></path></g></g></g><g id="g-root-8.cu-smallCircle_sy_dhcjkp1t959fo-stroke" data-item-order="-4887" data-item-id="8.cu-smallCircle_sy_dhcjkp1t959fo" data-item-class="ScenePart Part Indexed Stroke ColorStrokeGray" data-item-index="8" data-renderer-id="0" transform="translate(745, 167)"><g id="8.cu-smallCircle_sy_dhcjkp1t959fo-stroke" fill="none" stroke-linecap="round" stroke-linejoin="round" stroke-miterlimit="4" stroke="#A3A3A3" stroke-width="4"><g><path d="M 16 13C 16.2 14.6 14.7 16 13 16C 11.3 16 9.7 14.6 10 13C 10.3 11.4 11.3 9.9 13 10C 14.7 10.1 16.2 11.4 16 13M 16 13C 16 14.6569 14.6569 16 13 16C 11.3431 16 10 14.6569 10 13C 10 11.3431 11.3431 10 13 10C 14.6569 10 16 11.3431 16 13Z"></path></g></g></g><g id="g-root-7.cu-smallCircle_sy_dhcjkp1t959fn-stroke" data-item-order="-4885" data-item-id="7.cu-smallCircle_sy_dhcjkp1t959fn" data-item-class="ScenePart Part Indexed Stroke ColorStrokeGray" data-item-index="7" data-renderer-id="0" transform="translate(649, 167)"><g id="7.cu-smallCircle_sy_dhcjkp1t959fn-stroke" fill="none" stroke-linecap="round" stroke-linejoin="round" stroke-miterlimit="4" stroke="#A3A3A3" stroke-width="4"><g><path d="M 16 13C 15.5 14.6 14.7 16 13 16C 11.3 16 9.4 14.6 10 13C 10.6 11.4 11.4 10.4 13 10C 14.6 9.6 16.3 11.4 16 13M 16 13C 16 14.6569 14.6569 16 13 16C 11.3431 16 10 14.6569 10 13C 10 11.3431 11.3431 10 13 10C 14.6569 10 16 11.3431 16 13Z"></path></g></g></g><g id="g-root-6.cu-smallCircle_sy_hx61p51t958ne-stroke" data-item-order="-4883" data-item-id="6.cu-smallCircle_sy_hx61p51t958ne" data-item-class="ScenePart Part Indexed Stroke ColorStrokeGray" data-item-index="6" data-renderer-id="0" transform="translate(553, 167)"><g id="6.cu-smallCircle_sy_hx61p51t958ne-stroke" fill="none" stroke-linecap="round" stroke-linejoin="round" stroke-miterlimit="4" stroke="#A3A3A3" stroke-width="4"><g><path d="M 16 13C 16 14.7 14.7 16 13 16C 11.3 16 10.5 14.6 10 13C 9.5 11.4 11.4 10.5 13 10C 14.6 9.5 16 11.3 16 13M 16 13C 16 14.6569 14.6569 16 13 16C 11.3431 16 10 14.6569 10 13C 10 11.3431 11.3431 10 13 10C 14.6569 10 16 11.3431 16 13Z"></path></g></g></g><g id="g-root-5.cu-smallCircle_sy_hx61p51t958nd-stroke" data-item-order="-4881" data-item-id="5.cu-smallCircle_sy_hx61p51t958nd" data-item-class="ScenePart Part Indexed Stroke ColorStrokeGray" data-item-index="5" data-renderer-id="0" transform="translate(457, 167)"><g id="5.cu-smallCircle_sy_hx61p51t958nd-stroke" fill="none" stroke-linecap="round" stroke-linejoin="round" stroke-miterlimit="4" stroke="#A3A3A3" stroke-width="4"><g><path d="M 16 13C 15.5 14.6 14.6 15.5 13 16C 11.4 16.5 10.6 14.5 10 13C 9.4 11.5 11.3 10 13 10C 14.7 10 15.6 11.4 16 13M 16 13C 16 14.6569 14.6569 16 13 16C 11.3431 16 10 14.6569 10 13C 10 11.3431 11.3431 10 13 10C 14.6569 10 16 11.3431 16 13Z"></path></g></g></g><g id="g-root-4.cu-smallCircle_sy_hx61p51t958nc-stroke" data-item-order="-4879" data-item-id="4.cu-smallCircle_sy_hx61p51t958nc" data-item-class="ScenePart Part Indexed Stroke ColorStrokeGray" data-item-index="4" data-renderer-id="0" transform="translate(361, 167)"><g id="4.cu-smallCircle_sy_hx61p51t958nc-stroke" fill="none" stroke-linecap="round" stroke-linejoin="round" stroke-miterlimit="4" stroke="#A3A3A3" stroke-width="4"><g><path d="M 16 13C 16.4 14.6 14.6 15.9 13 16C 11.3 16.1 10.1 14.6 10 13C 9.9 11.3 11.4 9.6 13 10C 14.6 10.4 15.7 11.4 16 13M 16 13C 16 14.6569 14.6569 16 13 16C 11.3431 16 10 14.6569 10 13C 10 11.3431 11.3431 10 13 10C 14.6569 10 16 11.3431 16 13Z"></path></g></g></g><g id="g-root-3.cu-smallCircle_sy_hx61p51t958nb-stroke" data-item-order="-4877" data-item-id="3.cu-smallCircle_sy_hx61p51t958nb" data-item-class="ScenePart Part Indexed Stroke ColorStrokeGray" data-item-index="3" data-renderer-id="0" transform="translate(265, 167)"><g id="3.cu-smallCircle_sy_hx61p51t958nb-stroke" fill="none" stroke-linecap="round" stroke-linejoin="round" stroke-miterlimit="4" stroke="#A3A3A3" stroke-width="4"><g><path d="M 16 13C 16.5 14.6 14.6 16.1 13 16C 11.3 15.9 10.5 14.6 10 13C 9.5 11.4 11.3 10 13 10C 14.7 10 16.2 11.4 16 13M 16 13C 16 14.6569 14.6569 16 13 16C 11.3431 16 10 14.6569 10 13C 10 11.3431 11.3431 10 13 10C 14.6569 10 16 11.3431 16 13Z"></path></g></g></g><g id="g-root-2.cu-smallCircle_sy_mczjtl1t957v2-stroke" data-item-order="-4875" data-item-id="2.cu-smallCircle_sy_mczjtl1t957v2" data-item-class="ScenePart Part Indexed Stroke ColorStrokeGray" data-item-index="2" data-renderer-id="0" transform="translate(169, 167)"><g id="2.cu-smallCircle_sy_mczjtl1t957v2-stroke" fill="none" stroke-linecap="round" stroke-linejoin="round" stroke-miterlimit="4" stroke="#A3A3A3" stroke-width="4"><g><path d="M 16 13C 15.9 14.6 14.6 15.7 13 16C 11.4 16.3 10.1 14.7 10 13C 10 11.3 11.4 9.5 13 10C 14.6 10.5 15.9 11.3 16 13M 16 13C 16 14.6569 14.6569 16 13 16C 11.3431 16 10 14.6569 10 13C 10 11.3431 11.3431 10 13 10C 14.6569 10 16 11.3431 16 13Z"></path></g></g></g><g id="g-root-1.cu-smallCircle_sy_mczjtl1t957v1-stroke" data-item-order="-4873" data-item-id="1.cu-smallCircle_sy_mczjtl1t957v1" data-item-class="ScenePart Part Indexed Indexed_1 Stroke ColorStrokeGray" data-item-index="1" data-renderer-id="0" transform="translate(73, 167)"><g id="1.cu-smallCircle_sy_mczjtl1t957v1-stroke" fill="none" stroke-linecap="round" stroke-linejoin="round" stroke-miterlimit="4" stroke="#A3A3A3" stroke-width="4"><g><path d="M 16 13C 15.5 14.6 14.7 16 13 16C 11.3 16 10.5 14.6 10 13C 9.5 11.4 11.4 10.4 13 10C 14.6 9.6 16.5 11.4 16 13M 16 13C 16 14.6569 14.6569 16 13 16C 11.3431 16 10 14.6569 10 13C 10 11.3431 11.3431 10 13 10C 14.6569 10 16 11.3431 16 13Z"></path></g></g></g><g id="g-root-tx_faq_dhcjkp1t959fp-stroke" data-item-order="0" data-item-id="tx_faq_dhcjkp1t959fp" data-item-class="Label Stroke SceneTarget Indexed ColorStrokeGray" data-item-index="8" data-renderer-id="0" transform="translate(724, 242)"></g><g id="g-root-seve_8x4eft1tiqs5i-stroke" data-item-order="0" data-item-id="seve_8x4eft1tiqs5i" data-item-class="Icon Stroke SceneTarget Indexed ColorStrokeGray" data-item-index="7" data-renderer-id="0" transform="translate(628, 110)"><g id="seve_8x4eft1tiqs5i-stroke" fill="none" stroke-linecap="round" stroke-linejoin="round" stroke-miterlimit="4" stroke="#A3A3A3" stroke-width="2"><g><path d="M 28.857143 32.285713C 32.285713 32.971428 35.714287 31.6 39.142857 32.285713C 36.742859 37.085716 36.742859 42.914288 34 47.714287M 15.142858 18.571428C 13.085714 18.571428 12.4 20.285715 11.714286 22C 7.942857 31.6 12.057143 42.57143 11.714286 52.857143C 11.714286 54.914288 13.428572 56.628574 15.142858 56.285713C 27.142857 53.200001 40.171429 55.600002 52.857143 56.285713C 54.914288 56.285713 56.285713 54.914288 56.285713 52.857143C 56.628574 42.57143 53.542858 31.942858 56.285713 22C 56.628574 20.285715 54.57143 18.914286 52.857143 18.571428C 50.799999 17.885714 48.057144 18.914286 46 18.571428M 22 11.714286C 23.371429 16.171429 23.714287 21.314285 22 25.428572M 46 11.714286C 47.714287 15.828571 44.971428 20.971428 46 25.428572M 22 18.571428C 27.485714 16.514286 33.657143 16.857143 39.142857 18.571428M 28.857143 32.285713L 39.142857 32.285713L 34 47.714287M 15.142858 18.571428C 13.24931 18.571428 11.714286 20.106453 11.714286 22L 11.714286 52.857143C 11.714286 54.750694 13.24931 56.285713 15.142858 56.285713L 52.857143 56.285713C 54.750694 56.285713 56.285713 54.750694 56.285713 52.857143L 56.285713 22C 56.285713 20.106453 54.750694 18.571428 52.857143 18.571428L 46 18.571428M 22 11.714286L 22 25.428572M 46 11.714286L 46 25.428572M 22 18.571428L 39.142857 18.571428"></path></g></g></g><g id="g-root-cros_1hbxwrd1tiqryg-stroke" data-item-order="0" data-item-id="cros_1hbxwrd1tiqryg" data-item-class="Icon Stroke SceneTarget Indexed ColorStrokeGray" data-item-index="5" data-renderer-id="0" transform="translate(436, 110)"><g id="cros_1hbxwrd1tiqryg-stroke" fill="none" stroke-linecap="round" stroke-linejoin="round" stroke-miterlimit="4" stroke="#A3A3A3" stroke-width="2"><g><path d="M 33 43C 32.200001 47.599998 34 52.400002 33 57M 33 11C 32.799999 12.4 33 13.6 33 15M 33 27C 32.599998 28.200001 32.799999 29.6 33 31M 51.200001 26.799999C 51.200001 27 50.799999 27 50.599998 27C 39.799999 25.4 28.799999 28.799999 18 27C 17.4 27 16.799999 26.6 17 26C 18 22.799999 17.799999 19.200001 17 16C 16.799999 15.4 17.4 15 18 15C 28.6 17 39.799999 14.8 50.599998 15C 50.799999 15 51.200001 15 51.200001 15.2C 52.599998 17.200001 55.200001 18.200001 56.200001 20.200001C 56.400002 20.6 56.599998 20.799999 56.599998 21C 56.599998 21.200001 56.400002 21.6 56.200001 21.799999C 54.599998 23.4 53 25.200001 51.200001 26.799999M 16.799999 42.799999C 17 42.799999 17.200001 43 17.4 43C 27.799999 46.200001 39.200001 44.599998 50 43C 50.599998 43 51.200001 42.599998 51 42C 50.200001 38.799999 50.799999 35.400002 51 32C 51 31.4 50.599998 31.200001 50 31C 39.400002 29 27.799999 28.200001 17.4 31C 17.200001 31 17 31.200001 16.799999 31.200001C 15 32.799999 13.4 34.599998 11.8 36.200001C 11.6 36.400002 11.4 36.799999 11.4 37C 11.4 37.200001 11.6 37.599998 11.8 37.799999C 13 39.599998 15.4 40.799999 16.799999 42.799999M 33 43L 33 57M 33 11L 33 15M 33 27L 33 31M 51.292 26.708C 51.104588 26.894938 50.850704 26.999945 50.585999 27L 18 27C 17.447716 27 17 26.552284 17 26L 17 16C 17 15.447716 17.447716 15 18 15L 50.585999 15C 50.850704 15.000056 51.104588 15.105062 51.292 15.292L 56.292 20.292C 56.480083 20.479609 56.585789 20.734344 56.585789 21C 56.585789 21.265656 56.480083 21.520391 56.292 21.708ZM 16.708 42.708C 16.895411 42.894939 17.149296 42.999943 17.414 43L 50 43C 50.552284 43 51 42.552284 51 42L 51 32C 51 31.447716 50.552284 31 50 31L 17.414 31C 17.149296 31.000055 16.895411 31.105062 16.708 31.292L 11.708 36.292C 11.519917 36.479607 11.414212 36.734344 11.414212 37C 11.414212 37.265656 11.519917 37.520393 11.708 37.708Z"></path></g></g></g><g id="g-root-writ_zladcp1tiqr5u-stroke" data-item-order="0" data-item-id="writ_zladcp1tiqr5u" data-item-class="Icon Stroke SceneTarget Indexed ColorStrokeGray" data-item-index="3" data-renderer-id="0" transform="translate(244, 110)"><g id="writ_zladcp1tiqr5u-stroke" fill="none" stroke-linecap="round" stroke-linejoin="round" stroke-miterlimit="4" stroke="#A3A3A3" stroke-width="2"><g><path d="M 29 57C 23.6 56.599998 18.200001 55.799999 13 57C 12 57.200001 11.2 56 11 55C 7.6 42.799999 11 29.6 11 17C 11 15.8 12 15.4 13 15C 14.2 14.6 15.8 14.6 17 15M 41 15C 42.200001 14.6 43.799999 15.4 45 15C 46 14.6 47 16 47 17C 47 21.6 46.599998 26.4 47 31M 33 15C 33.200001 12.8 31.200001 10.8 29 11C 26.799999 11.2 25 12.8 25 15C 23.6 14.8 22.200001 15.4 21 15C 20.6 17 21.4 19 21 21C 26.200001 19.6 31.6 21.200001 37 21C 36.400002 19 37.599998 17 37 15C 35.599998 15.2 34.200001 14.6 33 15M 43 31C 42 27.4 42 23.6 43 20C 43.200001 19.4 42.599998 18.799999 42 19C 40.400002 19.6 38.599998 18.4 37 19M 21 19C 19.4 18.799999 17.6 18.4 16 19C 15.4 19.200001 15 19.4 15 20C 14.6 30.6 13.8 41.400002 15 52C 15 52.599998 15.4 53.200001 16 53C 20.200001 51.799999 24.6 52.599998 29 53M 21 27C 26.4 26.799999 31.6 26.799999 37 27M 21 33C 26.4 33.400002 31.799999 33.599998 37 33M 21 39C 23.6 38.400002 26.4 39.200001 29 39M 41.400002 54.599998C 38.599998 55.400002 35.599998 55.599998 33 57C 34 54.200001 33.799999 51 35.400002 48.599998C 40.200001 43.799999 45.200001 39.200001 49.799999 34.200001C 51.400002 32.599998 54 32.799999 55.799999 34.200001C 57.599998 35.599998 57.400002 38.599998 55.799999 40.200001C 50.799999 44.799999 47.200001 51.200001 41.400002 54.599998M 48 36C 50.599998 37.200001 51.599998 40.599998 54 42M 35.400002 48.599998C 38 49.799999 40.200001 52 41.400002 54.599998M 29 57L 13 57C 11.895431 57 11 56.104568 11 55L 11 17C 11 15.895431 11.895431 15 13 15L 17 15M 41 15L 45 15C 46.104568 15 47 15.895431 47 17L 47 31M 33 15C 33 12.790861 31.209139 11 29 11C 26.790861 11 25 12.790861 25 15L 21 15L 21 21L 37 21L 37 15ZM 43 31L 43 20C 43 19.447716 42.552284 19 42 19L 37 19M 21 19L 16 19C 15.447716 19 15 19.447716 15 20L 15 52C 15 52.552284 15.447716 53 16 53L 29 53M 21 26.997999L 37 26.997999M 21 32.998001L 37 32.998001M 21 38.998001L 29 38.998001M 41.400002 54.599998L 33 57L 35.400002 48.599998L 49.757999 34.242001C 51.414852 32.585144 54.101143 32.585144 55.757999 34.241997C 57.414852 35.898853 57.414852 38.585144 55.757999 40.241997ZM 47.958 36.040001L 53.958 42.040001M 35.400002 48.598L 41.400002 54.598"></path></g></g></g><g id="g-root-coin_qpnd3t1tiqryk-stroke" data-item-order="0" data-item-id="coin_qpnd3t1tiqryk" data-item-class="Icon Stroke SceneTarget Indexed Indexed_1 ColorStrokeGray" data-item-index="1" data-renderer-id="0" transform="translate(52, 110)"><g id="coin_qpnd3t1tiqryk-stroke" fill="none" stroke-linecap="round" stroke-linejoin="round" stroke-miterlimit="4" stroke="#A3A3A3" stroke-width="2"><g><path d="M 34 25.428572C 34 23.714287 33.657143 22 34 20.285715M 28.857143 39.142857C 29.542856 41.542858 31.257143 41.885715 34 42.57143C 36.742859 43.257141 39.828571 42.57143 39.142857 39.142857C 38.114285 34 28.857143 34 28.857143 28.857143C 28.857143 25.428572 31.257143 24.742859 34 25.428572C 36.742859 26.114285 39.142857 26.800001 39.142857 28.857143M 34 42.57143C 33.314285 44.285713 33.657143 46 34 47.714287M 11.714286 34C 7.257143 45.314285 21.657143 55.257141 34 56.285713C 46.342857 57.314285 56.285713 46.342857 56.285713 34C 56.285713 21.657143 46 14.8 34 11.714286C 22 8.628572 9.314285 22 11.714286 34M 34 25.428572L 34 20.285715M 28.857143 39.142857C 28.857143 41.714287 31.154285 42.57143 34 42.57143C 36.845715 42.57143 39.142857 42.57143 39.142857 39.142857C 39.142857 34 28.857143 34 28.857143 28.857143C 28.857143 25.428572 31.154285 25.428572 34 25.428572C 36.845715 25.428572 39.142857 26.73143 39.142857 28.857143M 34 42.57143L 34 47.714287M 11.714286 34C 11.714287 46.308064 21.69194 56.285713 34 56.285713C 46.308064 56.285713 56.285713 46.308064 56.285713 34C 56.285713 21.69194 46.308064 11.714287 34 11.714287C 21.69194 11.714287 11.714287 21.69194 11.714287 34"></path></g></g></g><g id="g-root-tx_ressourc_4mc0ex1t9572m-stroke" data-item-order="0" data-item-id="tx_ressourc_4mc0ex1t9572m" data-item-class="Label Stroke SceneTarget Indexed ColorStrokeGray" data-item-index="7" data-renderer-id="0" transform="translate(580, 50)"></g><g id="g-root-tx_introduc_145iihl1t958g4-stroke" data-item-order="0" data-item-id="tx_introduc_145iihl1t958g4" data-item-class="Label Stroke SceneTarget Indexed Indexed_1 ColorStrokeGray" data-item-index="1" data-renderer-id="0" transform="translate(4, 50)"></g><g id="g-root-bina_qpnd3t1tiqryj-stroke" data-item-order="0" data-item-id="bina_qpnd3t1tiqryj" data-item-class="Icon Stroke SceneTarget Indexed ColorStrokeGray" data-item-index="2" data-renderer-id="0" transform="translate(148, 182)"><g id="bina_qpnd3t1tiqryj-stroke" fill="none" stroke-linecap="round" stroke-linejoin="round" stroke-miterlimit="4" stroke="#A3A3A3" stroke-width="2"><g><path d="M 11 34C 11.2 46.799999 21.4 56.400002 34 57C 46.599998 57.599998 57.799999 46.599998 57 34C 56.200001 21.4 46.599998 10.4 34 11C 21.4 11.6 10.2 21.4 11 34M 32.799999 34C 33.200001 33.599998 33.599998 33.200001 34 32.799999C 34.599998 33 34.799999 33.799999 35.200001 34C 34.799999 34.400002 34.400002 34.799999 34 35.200001C 33.599998 34.799999 33.200001 34.400002 32.799999 34M 43.799999 34C 44.200001 33.599998 44.599998 33.200001 45 32.799999C 45.400002 33.200001 45.799999 33.799999 46.200001 34C 45.799999 34.400002 45.599998 35 45 35.200001C 44.799999 34.799999 44 34.599998 43.799999 34M 21.799999 34C 22.200001 33.599998 22.6 33.200001 23 32.799999C 23.4 33.200001 23.799999 33.599998 24.200001 34C 23.799999 34.400002 23.4 34.799999 23 35.200001C 22.799999 34.799999 22.200001 34.200001 21.799999 34M 41 28C 38.200001 26.799999 36.799999 23.4 34 22C 31.4 23.6 29.4 26.200001 27 28M 27 40C 29.799999 41.200001 32.400002 43.400002 34 46C 36 43.599998 38.599998 41.799999 41 40M 11 34C 11 46.702549 21.297451 57 34 57C 46.702549 57 57 46.702549 57 34C 57 21.297451 46.702549 11 34 11C 21.297451 11 11 21.297451 11 34M 32.748959 34L 33.999123 32.749836L 35.24929 34L 33.999123 35.250164ZM 43.749134 33.999825L 44.999302 32.749657L 46.249466 33.999825L 44.999298 35.249989ZM 21.750786 34.000175L 23.00095 32.750008L 24.251114 34.000175L 23.00095 35.250336ZM 41 28L 34 22L 27 28M 27 40L 34 46L 41 40"></path></g></g></g><g id="g-root-bran_1cw4emx1tiqsqp-stroke" data-item-order="0" data-item-id="bran_1cw4emx1tiqsqp" data-item-class="Icon Stroke SceneTarget Indexed ColorStrokeGray" data-item-index="4" data-renderer-id="0" transform="translate(340, 182)"><g id="bran_1cw4emx1tiqsqp-stroke" fill="none" stroke-linecap="round" stroke-linejoin="round" stroke-miterlimit="4" stroke="#A3A3A3" stroke-width="2"><g><path d="M 17.6 17.200001C 17.6 20.6 20.4 23.4 23.799999 23.200001C 27.200001 23.200001 29.6 20.6 30 17.200001C 30.200001 13.8 27 10 23.799999 11C 20.6 12 17.799999 13.8 17.6 17.200001M 17.6 50.799999C 16.6 54.200001 20.6 56 23.799999 57C 27 58 29 54.200001 30 50.799999C 30.799999 47.599998 27.200001 44.799999 23.799999 44.799999C 20.4 44.799999 17.6 47.400002 17.6 50.799999M 38 23.200001C 38 26.6 40.799999 29.4 44.200001 29.4C 47.599998 29.4 49.799999 26.6 50.400002 23.200001C 51 20 47.599998 18 44.200001 17.200001C 41 16.4 37.799999 19.799999 38 23.200001M 23.799999 23.200001C 22.799999 30.4 21.799999 37.799999 23.799999 44.799999M 44.200001 29.4C 45.799999 33.599998 40.400002 38.599998 36 37.599998C 34 37.200001 31.799999 38.200001 30 37.599998C 26.799999 36.400002 22.799999 40.400002 23.799999 43.799999M 17.644001 17.133999C 17.643053 20.522383 20.389614 23.269712 23.778 23.269712C 27.166382 23.269712 29.912945 20.522383 29.911999 17.133999C 29.912945 13.745616 27.166382 10.998286 23.778 10.998286C 20.389614 10.998286 17.643053 13.745616 17.643999 17.133999M 17.644001 50.866001C 17.643053 54.254379 20.389614 57.001709 23.778 57.001709C 27.166382 57.001709 29.912945 54.254379 29.911999 50.865997C 29.912945 47.477615 27.166382 44.730286 23.778 44.730286C 20.389614 44.730286 17.643053 47.477615 17.643999 50.865997M 38.087997 23.265999C 38.087051 26.654383 40.833614 29.401712 44.221996 29.401712C 47.610382 29.401712 50.356945 26.654383 50.355999 23.265999C 50.356945 19.877617 47.610382 17.130285 44.221996 17.130285C 40.833614 17.130285 38.087051 19.877617 38.087997 23.265999M 23.778 23.265999L 23.778 44.734001M 44.222 29.4C 44.222004 33.916588 40.560585 37.578003 36.043999 37.578003L 29.912001 37.577999C 26.524284 37.577999 23.778 40.324284 23.778 43.711998"></path></g></g></g><g id="g-root-3_1lrrevt1tiqr67-stroke" data-item-order="0" data-item-id="3_1lrrevt1tiqr67" data-item-class="Icon Stroke SceneTarget Indexed ColorStrokeGray" data-item-index="6" data-renderer-id="0" transform="translate(532, 182)"><g id="3_1lrrevt1tiqr67-stroke" fill="none" stroke-linecap="round" stroke-linejoin="round" stroke-miterlimit="4" stroke="#A3A3A3" stroke-width="2"><g><path d="M 12.6 36.200001C 12.2 26.4 19.4 18.200001 29 15.8C 38.400002 13.2 46.799999 19.4 52.599998 27.200001C 58.400002 35.200001 55.200001 48.400002 46.599998 52.799999M 46.400002 44.799999C 45.599998 47.200001 46.799999 50.200001 46.400002 52.799999C 49.200001 51.799999 52.400002 52.799999 55.400002 52.799999M 23.4 36.200001C 26.799999 35.799999 30.4 37.400002 33.599998 36.200001C 35.799999 38.400002 37.599998 40.799999 39.400002 43.400002M 12.562 36.23C 12.563679 26.40909 19.371765 17.900902 28.953245 15.745562C 38.534729 13.59022 48.330441 18.363407 52.537548 27.237556C 56.744652 36.11171 54.239456 46.716579 46.506001 52.77M 46.436001 44.77L 46.433998 52.77L 55.438 52.77M 23.434 36.23L 33.562 36.23L 39.354 43.467999"></path></g></g></g><g id="g-root-circ_m7yfq11tipers-stroke" data-item-order="0" data-item-id="circ_m7yfq11tipers" data-item-class="Icon Stroke SceneTarget Indexed ColorStrokeGray" data-item-index="8" data-renderer-id="0" transform="translate(724, 182)"><g id="circ_m7yfq11tipers-stroke" fill="none" stroke-linecap="round" stroke-linejoin="round" stroke-miterlimit="4" stroke="#A3A3A3" stroke-width="2"><g><path d="M 26.6 29.4C 26.799999 25.6 29.6 21.4 33.400002 22C 37.400002 22.6 42 24.4 41.400002 28.4C 41 32.200001 39.599998 36.400002 35.599998 36.799999C 34.599998 36.799999 34.200001 37.799999 34 38.799999C 34 39.400002 34 40.200001 34 41M 34 46C 34.200001 46 34.400002 46.200001 34.599998 46.400002C 34.599998 46.799999 34.200001 47 34 47C 33.799999 47 33.599998 46.799999 33.599998 46.400002C 33.400002 46.200001 33.799999 46 34 46M 11 34C 10.4 46.799999 21.4 56.799999 34 57C 46.799999 57.200001 57.200001 46.799999 57 34C 56.799999 21.4 46.599998 13.2 34 11C 21.4 8.8 14.4 21.799999 11 34M 26.5 29.483999C 26.494209 25.54924 29.5287 22.278225 33.452839 21.989223C 37.376976 21.700222 40.857929 24.491394 41.428642 28.384552C 41.999352 32.27771 39.465981 35.950539 35.624001 36.800003C 34.689735 36.984322 34.012253 37.797806 34 38.75L 34 40.975998M 34 45.984001C 34.276142 45.984001 34.5 46.207859 34.5 46.484001C 34.5 46.760143 34.276142 46.984001 34 46.984001C 33.723858 46.984001 33.5 46.760143 33.5 46.484001C 33.5 46.207859 33.723858 45.984001 34 45.984001M 11 34.001999C 11 46.704548 21.297451 57.001999 34 57.001999C 46.702549 57.001999 57 46.704548 57 34.001999C 57 21.29945 46.702549 11.002001 34 11.002001C 21.297451 11.002001 11 21.29945 11 34.001999Z"></path></g></g></g><g id="g-root-tx_miseenpl_1hgcjrt1t95a0y-stroke" data-item-order="0" data-item-id="tx_miseenpl_1hgcjrt1t95a0y" data-item-class="Label Stroke SceneTarget Indexed ColorStrokeGray" data-item-index="3" data-renderer-id="0" transform="translate(190, 26)"></g><g id="g-root-tx_vuedense_18lc0m11t957nv-stroke" data-item-order="0" data-item-id="tx_vuedense_18lc0m11t957nv" data-item-class="Label Stroke SceneTarget Indexed ColorStrokeGray" data-item-index="2" data-renderer-id="0" transform="translate(94, 242)"></g><g id="g-root-tx_fonction_1lw61w91t9598p-stroke" data-item-order="0" data-item-id="tx_fonction_1lw61w91t9598p" data-item-class="Label Stroke SceneTarget Indexed ColorStrokeGray" data-item-index="4" data-renderer-id="0" transform="translate(280, 242)"></g><g id="g-root-tx_perspect_6iiah1t957uv-stroke" data-item-order="0" data-item-id="tx_perspect_6iiah1t957uv" data-item-class="Label Stroke SceneTarget Indexed ColorStrokeGray" data-item-index="6" data-renderer-id="0" transform="translate(484, 242)"></g><g id="g-root-tx_guidepra_1urt2551t958g0-stroke" data-item-order="0" data-item-id="tx_guidepra_1urt2551t958g0" data-item-class="Label Stroke SceneTarget Indexed ColorStrokeGray" data-item-index="5" data-renderer-id="0" transform="translate(382, 2)"></g></g></g></svg>