<svg width="842" height="336" xmlns="http://www.w3.org/2000/svg" fill="none" fill-rule="evenodd" clip-rule="evenodd" stroke-linecap="round" stroke-linejoin="round" stroke-miterlimit="1.5"><style id="fontImports">@import url(https://fonts.googleapis.com/css2?family=Shantell+Sans:wght@300..800&amp;display=block);</style><g id="prefix__items" style="isolation:isolate"><g id="prefix__blend" style="mix-blend-mode:screen"><g id="prefix__g-root-tx_faq_dhcjkp1t959fp-fill" data-item-order="0" data-item-id="tx_faq_dhcjkp1t959fp" data-item-class="Label Stroke SceneTarget Indexed ColorStrokeGray" data-item-index="8" data-renderer-id="0" transform="translate(724 242)"><text style="font:20px &quot;Shantell Sans&quot;,cursive;white-space:pre" id="prefix__tx_faq_dhcjkp1t959fp-fill" stroke="none" fill="#A3A3A3"><tspan x="14.46" y="35" dominant-baseline="ideographic">FAQ</tspan></text></g><g id="prefix__g-root-tx_ressourc_4mc0ex1t9572m-fill" data-item-order="0" data-item-id="tx_ressourc_4mc0ex1t9572m" data-item-class="Label Stroke SceneTarget Indexed ColorStrokeGray" data-item-index="7" data-renderer-id="0" transform="translate(580 50)"><text style="font:20px &quot;Shantell Sans&quot;,cursive;white-space:pre" id="prefix__tx_ressourc_4mc0ex1t9572m-fill" stroke="none" fill="#A3A3A3"><tspan x="23.86" y="35" dominant-baseline="ideographic">Recursos y </tspan> <tspan x="43.61" y="59" dominant-baseline="ideographic">soporte</tspan></text></g><g id="prefix__g-root-tx_introduc_145iihl1t958g4-fill" data-item-order="0" data-item-id="tx_introduc_145iihl1t958g4" data-item-class="Label Stroke SceneTarget Indexed Indexed_1 ColorStrokeGray" data-item-index="1" data-renderer-id="0" transform="translate(4 50)"><text style="font:20px &quot;Shantell Sans&quot;,cursive;white-space:pre" id="prefix__tx_introduc_145iihl1t958g4-fill" stroke="none" fill="#A3A3A3"><tspan x="17.11" y="35" dominant-baseline="ideographic">Introducción </tspan> <tspan x="37.08" y="59" dominant-baseline="ideographic">a las DAO</tspan></text></g><g id="prefix__g-root-tx_miseenpl_1hgcjrt1t95a0y-fill" data-item-order="0" data-item-id="tx_miseenpl_1hgcjrt1t95a0y" data-item-class="Label Stroke SceneTarget Indexed ColorStrokeGray" data-item-index="3" data-renderer-id="0" transform="translate(190 26)"><text style="font:20px &quot;Shantell Sans&quot;,cursive;white-space:pre" id="prefix__tx_miseenpl_1hgcjrt1t95a0y-fill" stroke="none" fill="#A3A3A3"><tspan x="1.62" y="35" dominant-baseline="ideographic">Implementación </tspan> <tspan x="17.43" y="59" dominant-baseline="ideographic">y objetivos de </tspan> <tspan x="38.35" y="83" dominant-baseline="ideographic">la DAO V1</tspan></text></g><g id="prefix__g-root-tx_vuedense_18lc0m11t957nv-fill" data-item-order="0" data-item-id="tx_vuedense_18lc0m11t957nv" data-item-class="Label Stroke SceneTarget Indexed ColorStrokeGray" data-item-index="2" data-renderer-id="0" transform="translate(94 242)"><text style="font:20px &quot;Shantell Sans&quot;,cursive;white-space:pre" id="prefix__tx_vuedense_18lc0m11t957nv-fill" stroke="none" fill="#A3A3A3"><tspan x="22.32" y="35" dominant-baseline="ideographic">Vista general </tspan> <tspan x="39.3" y="59" dominant-baseline="ideographic">de la DAO </tspan> <tspan x="39.09" y="83" dominant-baseline="ideographic">RealToken</tspan></text></g><g id="prefix__g-root-tx_fonction_1lw61w91t9598p-fill" data-item-order="0" data-item-id="tx_fonction_1lw61w91t9598p" data-item-class="Label Stroke SceneTarget Indexed ColorStrokeGray" data-item-index="4" data-renderer-id="0" transform="translate(280 242)"><text style="font:20px &quot;Shantell Sans&quot;,cursive;white-space:pre" id="prefix__tx_fonction_1lw61w91t9598p-fill" stroke="none" fill="#A3A3A3"><tspan x="14.87" y="35" dominant-baseline="ideographic">Funcionamiento </tspan> <tspan x="37.7" y="59" dominant-baseline="ideographic">técnico de la </tspan> <tspan x="67.01" y="83" dominant-baseline="ideographic">DAO V1</tspan></text></g><g id="prefix__g-root-tx_perspect_6iiah1t957uv-fill" data-item-order="0" data-item-id="tx_perspect_6iiah1t957uv" data-item-class="Label Stroke SceneTarget Indexed ColorStrokeGray" data-item-index="6" data-renderer-id="0" transform="translate(484 242)"><text style="font:20px &quot;Shantell Sans&quot;,cursive;white-space:pre" id="prefix__tx_perspect_6iiah1t957uv-fill" stroke="none" fill="#A3A3A3"><tspan x="21.24" y="35" dominant-baseline="ideographic">Perspectivas </tspan> <tspan x="14.24" y="59" dominant-baseline="ideographic">de futuro de la </tspan> <tspan x="58.79" y="83" dominant-baseline="ideographic">DAO</tspan></text></g><g id="prefix__g-root-tx_guidepra_1urt2551t958g0-fill" data-item-order="0" data-item-id="tx_guidepra_1urt2551t958g0" data-item-class="Label Stroke SceneTarget Indexed ColorStrokeGray" data-item-index="5" data-renderer-id="0" transform="translate(382 2)"><text style="font:20px &quot;Shantell Sans&quot;,cursive;white-space:pre" id="prefix__tx_guidepra_1urt2551t958g0-fill" stroke="none" fill="#A3A3A3"><tspan x="16.24" y="35" dominant-baseline="ideographic">Guía práctica </tspan> <tspan x="48.34" y="59" dominant-baseline="ideographic">para los </tspan> <tspan x="19.87" y="83" dominant-baseline="ideographic">poseedores de </tspan> <tspan x="66.88" y="107" dominant-baseline="ideographic">REG</tspan></text></g><g id="prefix__g-root--1_line_sy_mczjtl1t957uz-stroke" data-item-order="-4891" data-item-id="-1.line_sy_mczjtl1t957uz" data-item-class="ScenePart Part Stroke ColorStrokeGray" data-item-index="-1" data-renderer-id="0" transform="translate(751 169.996)"><g id="prefix__-1_line_sy_mczjtl1t957uz-stroke" fill="none" stroke-linecap="round" stroke-linejoin="round" stroke-miterlimit="4" stroke="#A3A3A3" stroke-width="4"><path d="M76.2 10.004c-22.1-1.2-44.2 1.4-66.2 0M76.17 10.004H10"/><path d="M67.7 19.204c3.7-2.2 5.4-7.2 9.2-9.2-2.6-3.5-6.6-5.7-9.2-9.2"/><path d="M67.7 19.204l9.2-9.2-9.2-9.2"/></g></g><g id="prefix__g-root--1_vector_sy_mczjtl1t957v0-stroke" data-item-order="-4889" data-item-id="-1.vector_sy_mczjtl1t957v0" data-item-class="ScenePart Part Stroke ColorStrokeGray" data-item-index="-1" data-renderer-id="0" transform="translate(4 169.996)"><g id="prefix__-1_vector_sy_mczjtl1t957v0-stroke" fill="none" stroke-linecap="round" stroke-linejoin="round" stroke-miterlimit="4" stroke="#A3A3A3" stroke-width="4"><path d="M748.2 10.004c-29-1.7-58.2-1.6-87.2 0-16.7.9-33.4 1.2-50.1 0-15.3-1.1-30.6 1.2-45.9 0-31.9-2.4-64 .4-96 0s-64 1.6-96 0-64-.7-96 0c-16.9.4-33.9-.2-50.8 0-15.1.2-30.2-1.5-45.2 0-31.8 3.1-64.1 2-96 0-25-1.5-50.1-1.8-75 0M748.17 10.004H10"/><path d="M739.7 19.204c3.8-2.1 7.4-5.2 9.2-9.2-2.4-3.6-6.9-5.5-9.2-9.2"/><path d="M739.7 19.204l9.2-9.2-9.2-9.2"/></g></g><g id="prefix__g-root-8_cu-smallCircle_sy_dhcjkp1t959fo-stroke" data-item-order="-4887" data-item-id="8.cu-smallCircle_sy_dhcjkp1t959fo" data-item-class="ScenePart Part Indexed Stroke ColorStrokeGray" data-item-index="8" data-renderer-id="0" transform="translate(745 167)"><path d="M16 13c.2 1.6-1.3 3-3 3s-3.3-1.4-3-3c.3-1.6 1.3-3.1 3-3 1.7.1 3.2 1.4 3 3m0 0a3 3 0 11-6 0 3 3 0 016 0z" id="prefix__8_cu-smallCircle_sy_dhcjkp1t959fo-stroke" fill="none" stroke-linecap="round" stroke-linejoin="round" stroke-miterlimit="4" stroke="#A3A3A3" stroke-width="4"/></g><g id="prefix__g-root-7_cu-smallCircle_sy_dhcjkp1t959fn-stroke" data-item-order="-4885" data-item-id="7.cu-smallCircle_sy_dhcjkp1t959fn" data-item-class="ScenePart Part Indexed Stroke ColorStrokeGray" data-item-index="7" data-renderer-id="0" transform="translate(649 167)"><path d="M16 13c-.5 1.6-1.3 3-3 3s-3.6-1.4-3-3c.6-1.6 1.4-2.6 3-3 1.6-.4 3.3 1.4 3 3m0 0a3 3 0 11-6 0 3 3 0 016 0z" id="prefix__7_cu-smallCircle_sy_dhcjkp1t959fn-stroke" fill="none" stroke-linecap="round" stroke-linejoin="round" stroke-miterlimit="4" stroke="#A3A3A3" stroke-width="4"/></g><g id="prefix__g-root-6_cu-smallCircle_sy_hx61p51t958ne-stroke" data-item-order="-4883" data-item-id="6.cu-smallCircle_sy_hx61p51t958ne" data-item-class="ScenePart Part Indexed Stroke ColorStrokeGray" data-item-index="6" data-renderer-id="0" transform="translate(553 167)"><path d="M16 13c0 1.7-1.3 3-3 3s-2.5-1.4-3-3 1.4-2.5 3-3 3 1.3 3 3m0 0a3 3 0 11-6 0 3 3 0 016 0z" id="prefix__6_cu-smallCircle_sy_hx61p51t958ne-stroke" fill="none" stroke-linecap="round" stroke-linejoin="round" stroke-miterlimit="4" stroke="#A3A3A3" stroke-width="4"/></g><g id="prefix__g-root-5_cu-smallCircle_sy_hx61p51t958nd-stroke" data-item-order="-4881" data-item-id="5.cu-smallCircle_sy_hx61p51t958nd" data-item-class="ScenePart Part Indexed Stroke ColorStrokeGray" data-item-index="5" data-renderer-id="0" transform="translate(457 167)"><path d="M16 13c-.5 1.6-1.4 2.5-3 3s-2.4-1.5-3-3c-.6-1.5 1.3-3 3-3s2.6 1.4 3 3m0 0a3 3 0 11-6 0 3 3 0 016 0z" id="prefix__5_cu-smallCircle_sy_hx61p51t958nd-stroke" fill="none" stroke-linecap="round" stroke-linejoin="round" stroke-miterlimit="4" stroke="#A3A3A3" stroke-width="4"/></g><g id="prefix__g-root-4_cu-smallCircle_sy_hx61p51t958nc-stroke" data-item-order="-4879" data-item-id="4.cu-smallCircle_sy_hx61p51t958nc" data-item-class="ScenePart Part Indexed Stroke ColorStrokeGray" data-item-index="4" data-renderer-id="0" transform="translate(361 167)"><path d="M16 13c.4 1.6-1.4 2.9-3 3-1.7.1-2.9-1.4-3-3-.1-1.7 1.4-3.4 3-3 1.6.4 2.7 1.4 3 3m0 0a3 3 0 11-6 0 3 3 0 016 0z" id="prefix__4_cu-smallCircle_sy_hx61p51t958nc-stroke" fill="none" stroke-linecap="round" stroke-linejoin="round" stroke-miterlimit="4" stroke="#A3A3A3" stroke-width="4"/></g><g id="prefix__g-root-3_cu-smallCircle_sy_hx61p51t958nb-stroke" data-item-order="-4877" data-item-id="3.cu-smallCircle_sy_hx61p51t958nb" data-item-class="ScenePart Part Indexed Stroke ColorStrokeGray" data-item-index="3" data-renderer-id="0" transform="translate(265 167)"><path d="M16 13c.5 1.6-1.4 3.1-3 3-1.7-.1-2.5-1.4-3-3s1.3-3 3-3 3.2 1.4 3 3m0 0a3 3 0 11-6 0 3 3 0 016 0z" id="prefix__3_cu-smallCircle_sy_hx61p51t958nb-stroke" fill="none" stroke-linecap="round" stroke-linejoin="round" stroke-miterlimit="4" stroke="#A3A3A3" stroke-width="4"/></g><g id="prefix__g-root-2_cu-smallCircle_sy_mczjtl1t957v2-stroke" data-item-order="-4875" data-item-id="2.cu-smallCircle_sy_mczjtl1t957v2" data-item-class="ScenePart Part Indexed Stroke ColorStrokeGray" data-item-index="2" data-renderer-id="0" transform="translate(169 167)"><path d="M16 13c-.1 1.6-1.4 2.7-3 3-1.6.3-2.9-1.3-3-3 0-1.7 1.4-3.5 3-3s2.9 1.3 3 3m0 0a3 3 0 11-6 0 3 3 0 016 0z" id="prefix__2_cu-smallCircle_sy_mczjtl1t957v2-stroke" fill="none" stroke-linecap="round" stroke-linejoin="round" stroke-miterlimit="4" stroke="#A3A3A3" stroke-width="4"/></g><g id="prefix__g-root-1_cu-smallCircle_sy_mczjtl1t957v1-stroke" data-item-order="-4873" data-item-id="1.cu-smallCircle_sy_mczjtl1t957v1" data-item-class="ScenePart Part Indexed Indexed_1 Stroke ColorStrokeGray" data-item-index="1" data-renderer-id="0" transform="translate(73 167)"><path d="M16 13c-.5 1.6-1.3 3-3 3s-2.5-1.4-3-3 1.4-2.6 3-3c1.6-.4 3.5 1.4 3 3m0 0a3 3 0 11-6 0 3 3 0 016 0z" id="prefix__1_cu-smallCircle_sy_mczjtl1t957v1-stroke" fill="none" stroke-linecap="round" stroke-linejoin="round" stroke-miterlimit="4" stroke="#A3A3A3" stroke-width="4"/></g><g id="prefix__g-root-seve_8x4eft1tiqs5i-stroke" data-item-order="0" data-item-id="seve_8x4eft1tiqs5i" data-item-class="Icon Stroke SceneTarget Indexed ColorStrokeGray" data-item-index="7" data-renderer-id="0" transform="translate(628 110)"><path d="M28.857 32.286c3.429.685 6.857-.686 10.286 0-2.4 4.8-2.4 10.628-5.143 15.428M15.143 18.571c-2.057 0-2.743 1.715-3.429 3.429-3.771 9.6.343 20.571 0 30.857 0 2.057 1.715 3.772 3.429 3.429 12-3.086 25.028-.686 37.714 0 2.057 0 3.429-1.372 3.429-3.429.343-10.286-2.743-20.914 0-30.857.343-1.714-1.715-3.086-3.429-3.429-2.057-.685-4.8.343-6.857 0m-24-6.857c1.371 4.457 1.714 9.6 0 13.715m24-13.715c1.714 4.115-1.029 9.257 0 13.715M22 18.57c5.486-2.057 11.657-1.714 17.143 0M28.857 32.286h10.286L34 47.714M15.143 18.571A3.429 3.429 0 0011.714 22v30.857a3.429 3.429 0 003.429 3.429h37.714a3.429 3.429 0 003.429-3.429V22a3.429 3.429 0 00-3.429-3.429H46m-24-6.857V25.43m24-13.715V25.43M22 18.57h17.143" id="prefix__seve_8x4eft1tiqs5i-stroke" fill="none" stroke-linecap="round" stroke-linejoin="round" stroke-miterlimit="4" stroke="#A3A3A3" stroke-width="2"/></g><g id="prefix__g-root-writ_zladcp1tiqr5u-stroke" data-item-order="0" data-item-id="writ_zladcp1tiqr5u" data-item-class="Icon Stroke SceneTarget Indexed ColorStrokeGray" data-item-index="3" data-renderer-id="0" transform="translate(244 110)"><path d="M29 57c-5.4-.4-10.8-1.2-16 0-1 .2-1.8-1-2-2-3.4-12.2 0-25.4 0-38 0-1.2 1-1.6 2-2 1.2-.4 2.8-.4 4 0m24 0c1.2-.4 2.8.4 4 0 1-.4 2 1 2 2 0 4.6-.4 9.4 0 14M33 15c.2-2.2-1.8-4.2-4-4-2.2.2-4 1.8-4 4-1.4-.2-2.8.4-4 0-.4 2 .4 4 0 6 5.2-1.4 10.6.2 16 0-.6-2 .6-4 0-6-1.4.2-2.8-.4-4 0m10 16c-1-3.6-1-7.4 0-11 .2-.6-.4-1.2-1-1-1.6.6-3.4-.6-5 0m-16 0c-1.6-.2-3.4-.6-5 0-.6.2-1 .4-1 1-.4 10.6-1.2 21.4 0 32 0 .6.4 1.2 1 1 4.2-1.2 8.6-.4 13 0m-8-26c5.4-.2 10.6-.2 16 0m-16 6c5.4.4 10.8.6 16 0m-16 6c2.6-.6 5.4.2 8 0m12.4 15.6c-2.8.8-5.8 1-8.4 2.4 1-2.8.8-6 2.4-8.4 4.8-4.8 9.8-9.4 14.4-14.4 1.6-1.6 4.2-1.4 6 0 1.8 1.4 1.6 4.4 0 6-5 4.6-8.6 11-14.4 14.4M48 36c2.6 1.2 3.6 4.6 6 6m-18.6 6.6c2.6 1.2 4.8 3.4 6 6M29 57H13a2 2 0 01-2-2V17a2 2 0 012-2h4m24 0h4a2 2 0 012 2v14M33 15a4 4 0 10-8 0h-4v6h16v-6zm10 16V20a1 1 0 00-1-1h-5m-16 0h-5a1 1 0 00-1 1v32a1 1 0 001 1h13m-8-26.002h16m-16 6h16m-16 6h8M41.4 54.6L33 57l2.4-8.4 14.358-14.358a4.243 4.243 0 116 6zm6.558-18.56l6 6M35.4 48.598l6 6" id="prefix__writ_zladcp1tiqr5u-stroke" fill="none" stroke-linecap="round" stroke-linejoin="round" stroke-miterlimit="4" stroke="#A3A3A3" stroke-width="2"/></g><g id="prefix__g-root-coin_qpnd3t1tiqryk-stroke" data-item-order="0" data-item-id="coin_qpnd3t1tiqryk" data-item-class="Icon Stroke SceneTarget Indexed Indexed_1 ColorStrokeGray" data-item-index="1" data-renderer-id="0" transform="translate(52 110)"><path d="M34 25.429c0-1.715-.343-3.429 0-5.143m-5.143 18.857c.686 2.4 2.4 2.743 5.143 3.428 2.743.686 5.829 0 5.143-3.428C38.114 34 28.857 34 28.857 28.857c0-3.428 2.4-4.114 5.143-3.428 2.743.685 5.143 1.371 5.143 3.428M34 42.571c-.686 1.715-.343 3.429 0 5.143M11.714 34C7.257 45.314 21.657 55.257 34 56.286 46.343 57.314 56.286 46.343 56.286 34 56.286 21.657 46 14.8 34 11.714 22 8.63 9.314 22 11.714 34M34 25.429v-5.143m-5.143 18.857c0 2.571 2.297 3.428 5.143 3.428 2.846 0 5.143 0 5.143-3.428C39.143 34 28.857 34 28.857 28.857c0-3.428 2.297-3.428 5.143-3.428 2.846 0 5.143 1.302 5.143 3.428M34 42.571v5.143M11.714 34c0 12.308 9.978 22.286 22.286 22.286 12.308 0 22.286-9.978 22.286-22.286 0-12.308-9.978-22.286-22.286-22.286-12.308 0-22.286 9.978-22.286 22.286" id="prefix__coin_qpnd3t1tiqryk-stroke" fill="none" stroke-linecap="round" stroke-linejoin="round" stroke-miterlimit="4" stroke="#A3A3A3" stroke-width="2"/></g><g id="prefix__g-root-bina_qpnd3t1tiqryj-stroke" data-item-order="0" data-item-id="bina_qpnd3t1tiqryj" data-item-class="Icon Stroke SceneTarget Indexed ColorStrokeGray" data-item-index="2" data-renderer-id="0" transform="translate(148 182)"><path d="M11 34c.2 12.8 10.4 22.4 23 23 12.6.6 23.8-10.4 23-23-.8-12.6-10.4-23.6-23-23-12.6.6-23.8 10.4-23 23m21.8 0l1.2-1.2c.6.2.8 1 1.2 1.2L34 35.2 32.8 34m11 0l1.2-1.2c.4.4.8 1 1.2 1.2-.4.4-.6 1-1.2 1.2-.2-.4-1-.6-1.2-1.2m-22 0l1.2-1.2 1.2 1.2-1.2 1.2c-.2-.4-.8-1-1.2-1.2M41 28c-2.8-1.2-4.2-4.6-7-6-2.6 1.6-4.6 4.2-7 6m0 12c2.8 1.2 5.4 3.4 7 6 2-2.4 4.6-4.2 7-6m-30-6c0 12.703 10.297 23 23 23s23-10.297 23-23-10.297-23-23-23-23 10.297-23 23m21.749 0l1.25-1.25L35.25 34 34 35.25zm11 0L45 32.75 46.25 34 45 35.25zm-21.998 0L23 32.75 24.25 34l-1.25 1.25zM41 28l-7-6-7 6m0 12l7 6 7-6" id="prefix__bina_qpnd3t1tiqryj-stroke" fill="none" stroke-linecap="round" stroke-linejoin="round" stroke-miterlimit="4" stroke="#A3A3A3" stroke-width="2"/></g><g id="prefix__g-root-bran_1cw4emx1tiqsqp-stroke" data-item-order="0" data-item-id="bran_1cw4emx1tiqsqp" data-item-class="Icon Stroke SceneTarget Indexed ColorStrokeGray" data-item-index="4" data-renderer-id="0" transform="translate(340 182)"><path d="M17.6 17.2c0 3.4 2.8 6.2 6.2 6 3.4 0 5.8-2.6 6.2-6 .2-3.4-3-7.2-6.2-6.2s-6 2.8-6.2 6.2m0 33.6c-1 3.4 3 5.2 6.2 6.2s5.2-2.8 6.2-6.2c.8-3.2-2.8-6-6.2-6-3.4 0-6.2 2.6-6.2 6M38 23.2c0 3.4 2.8 6.2 6.2 6.2 3.4 0 5.6-2.8 6.2-6.2.6-3.2-2.8-5.2-6.2-6-3.2-.8-6.4 2.6-6.2 6m-14.2 0c-1 7.2-2 14.6 0 21.6m20.4-15.4c1.6 4.2-3.8 9.2-8.2 8.2-2-.4-4.2.6-6 0-3.2-1.2-7.2 2.8-6.2 6.2m-6.156-26.666a6.134 6.134 0 1012.268 0 6.134 6.134 0 10-12.268 0m0 33.732a6.134 6.134 0 1012.268 0 6.134 6.134 0 10-12.268 0m20.444-27.6a6.134 6.134 0 1012.268 0 6.134 6.134 0 10-12.268 0m-14.31 0v21.468M44.222 29.4a8.178 8.178 0 01-8.178 8.178h-6.132a6.134 6.134 0 00-6.134 6.134" id="prefix__bran_1cw4emx1tiqsqp-stroke" fill="none" stroke-linecap="round" stroke-linejoin="round" stroke-miterlimit="4" stroke="#A3A3A3" stroke-width="2"/></g><g id="prefix__g-root-3_1lrrevt1tiqr67-stroke" data-item-order="0" data-item-id="3_1lrrevt1tiqr67" data-item-class="Icon Stroke SceneTarget Indexed ColorStrokeGray" data-item-index="6" data-renderer-id="0" transform="translate(532 182)"><path d="M12.6 36.2c-.4-9.8 6.8-18 16.4-20.4 9.4-2.6 17.8 3.6 23.6 11.4 5.8 8 2.6 21.2-6 25.6m-.2-8c-.8 2.4.4 5.4 0 8 2.8-1 6 0 9 0m-32-16.6c3.4-.4 7 1.2 10.2 0 2.2 2.2 4 4.6 5.8 7.2m-26.838-7.17a21 21 0 1133.944 16.54m-.07-8l-.002 8h9.004M23.434 36.23h10.128l5.792 7.238" id="prefix__3_1lrrevt1tiqr67-stroke" fill="none" stroke-linecap="round" stroke-linejoin="round" stroke-miterlimit="4" stroke="#A3A3A3" stroke-width="2"/></g><g id="prefix__g-root-circ_m7yfq11tipers-stroke" data-item-order="0" data-item-id="circ_m7yfq11tipers" data-item-class="Icon Stroke SceneTarget Indexed ColorStrokeGray" data-item-index="8" data-renderer-id="0" transform="translate(724 182)"><path d="M26.6 29.4c.2-3.8 3-8 6.8-7.4 4 .6 8.6 2.4 8 6.4-.4 3.8-1.8 8-5.8 8.4-1 0-1.4 1-1.6 2V41m0 5c.2 0 .4.2.6.4 0 .4-.4.6-.6.6-.2 0-.4-.2-.4-.6-.2-.2.2-.4.4-.4M11 34c-.6 12.8 10.4 22.8 23 23 12.8.2 23.2-10.2 23-23-.2-12.6-10.4-20.8-23-23-12.6-2.2-19.6 10.8-23 23m15.5-4.516a7.504 7.504 0 119.124 7.316A2.014 2.014 0 0034 38.75v2.226m0 5.008a.5.5 0 110 1 .5.5 0 010-1M11 34.002c0 12.703 10.297 23 23 23s23-10.297 23-23-10.297-23-23-23-23 10.297-23 23z" id="prefix__circ_m7yfq11tipers-stroke" fill="none" stroke-linecap="round" stroke-linejoin="round" stroke-miterlimit="4" stroke="#A3A3A3" stroke-width="2"/></g><g id="prefix__g-root-cros_1hbxwrd1tiqryg-stroke" data-item-order="0" data-item-id="cros_1hbxwrd1tiqryg" data-item-class="Icon Stroke SceneTarget Indexed ColorStrokeGray" data-item-index="5" data-renderer-id="0" transform="translate(436 110)"><path d="M33 43c-.8 4.6 1 9.4 0 14m0-46c-.2 1.4 0 2.6 0 4m0 12c-.4 1.2-.2 2.6 0 4m18.2-4.2c0 .2-.4.2-.6.2-10.8-1.6-21.8 1.8-32.6 0-.6 0-1.2-.4-1-1 1-3.2.8-6.8 0-10-.2-.6.4-1 1-1 10.6 2 21.8-.2 32.6 0 .2 0 .6 0 .6.2 1.4 2 4 3 5 5 .2.4.4.6.4.8 0 .2-.2.6-.4.8-1.6 1.6-3.2 3.4-5 5m-34.4 16c.2 0 .4.2.6.2 10.4 3.2 21.8 1.6 32.6 0 .6 0 1.2-.4 1-1-.8-3.2-.2-6.6 0-10 0-.6-.4-.8-1-1-10.6-2-22.2-2.8-32.6 0-.2 0-.4.2-.6.2-1.8 1.6-3.4 3.4-5 5-.2.2-.4.6-.4.8 0 .2.2.6.4.8 1.2 1.8 3.6 3 5 5M33 43v14m0-46v4m0 12v4m18.292-4.292a1 1 0 01-.706.292H18a1 1 0 01-1-1V16a1 1 0 011-1h32.586a1 1 0 01.706.292l5 5a1 1 0 010 1.416zm-34.584 16a1 1 0 00.706.292H50a1 1 0 001-1V32a1 1 0 00-1-1H17.414a1 1 0 00-.706.292l-5 5a1 1 0 000 1.416z" id="prefix__cros_1hbxwrd1tiqryg-stroke" fill="none" stroke-linecap="round" stroke-linejoin="round" stroke-miterlimit="4" stroke="#A3A3A3" stroke-width="2"/></g></g></g></svg>