<svg width="852" height="289" xmlns="http://www.w3.org/2000/svg" fill="none" fill-rule="evenodd" clip-rule="evenodd" stroke-linecap="round" stroke-linejoin="round" stroke-miterlimit="1.5"><style id="fontImports">@import url(https://fonts.googleapis.com/css2?family=Shantell+Sans:wght@300..800&amp;display=block);</style><g id="prefix__items" style="isolation:isolate"><g id="prefix__blend" style="mix-blend-mode:screen"><g id="prefix__g-root-4_cu_sy_1q7l3i01qqp8uj-fill" data-item-order="-64508" data-item-id="4.cu_sy_1q7l3i01qqp8uj" data-item-class="ScenePart Part Indexed Fill Stroke" data-item-index="4" data-renderer-id="0" transform="translate(442 105)"><path d="M81.469 86.464c.346 1.287.531 2.64.531 4.036 0 8.56-6.94 15.5-15.5 15.5a15.43 15.43 0 01-8.331-2.427A11.859 11.859 0 0152.5 105c-3.288 0-6.253-1.32-8.349-3.435A11.56 11.56 0 0141 102c-6.627 0-12-5.596-12-12.5 0-1.126.143-2.217.411-3.254A10.472 10.472 0 0126 78.5c0-3.6 1.812-6.777 4.574-8.669A13.433 13.433 0 0129 63.5C29 56.044 35.044 50 42.5 50c.536 0 1.066.031 1.586.092C47.712 47.518 52.175 46 57 46c5.757 0 10.997 2.161 14.918 5.698A9.482 9.482 0 0175.5 51a9.5 9.5 0 019.5 9.5c0 2.399-.889 4.59-2.356 6.262C84.733 69.227 86 72.46 86 76c0 4.162-1.751 7.899-4.531 10.464zM18 34a8 8 0 1016 0 8 8 0 00-16 0m0-20a4 4 0 11-8 0 4 4 0 018 0" id="prefix__4_cu_sy_1q7l3i01qqp8uj-fill" stroke="none" fill="#4f4a20"/></g><g id="prefix__g-root-3_cu_sy_1q7l3i01qqp8ui-fill" data-item-order="-64506" data-item-id="3.cu_sy_1q7l3i01qqp8ui" data-item-class="ScenePart Part Indexed Fill Stroke" data-item-index="3" data-renderer-id="0" transform="translate(302 105)"><path d="M28.274 49.698A10.484 10.484 0 0024.5 49C18.701 49 14 53.701 14 59.5c0 .912.116 1.797.335 2.641C11.636 65.308 10 69.457 10 74c0 5.691 2.567 10.764 6.576 14.063A10.482 10.482 0 0016 91.5c0 5.799 4.701 10.5 10.5 10.5.79 0 1.56-.087 2.3-.253C31.354 104.365 34.979 106 39 106c4.501 0 8.507-2.049 11.068-5.232A8.961 8.961 0 0056 103a9 9 0 009-9c0-.861-.121-1.693-.346-2.481C67.982 87.645 70 82.564 70 77c0-4.337-1.227-8.382-3.344-11.789A15.1 15.1 0 0067 62c0-8.284-6.716-15-15-15-1.789 0-3.505.313-5.096.888A17.339 17.339 0 0039 46c-4.067 0-7.801 1.386-10.726 3.698zM62 34a8 8 0 1016 0 8 8 0 00-16 0m24-20a4 4 0 11-8 0 4 4 0 018 0" id="prefix__3_cu_sy_1q7l3i01qqp8ui-fill" stroke="none" fill="#562d69"/></g><g id="prefix__g-root-2_cu_sy_241rs1qqp88x-fill" data-item-order="-64504" data-item-id="2.cu_sy_241rs1qqp88x" data-item-class="ScenePart Part Indexed Fill Stroke" data-item-index="2" data-renderer-id="0" transform="translate(474 9)"><path d="M83 70c4.95 0 9.518-1.598 13.194-4.294A11.452 11.452 0 00101.5 67c6.351 0 11.5-5.149 11.5-11.5 0-2.986-1.138-5.706-3.004-7.75A10.481 10.481 0 00114 39.5c0-2.42-.819-4.648-2.194-6.424.128-.839.194-1.7.194-2.576 0-9.113-7.163-16.5-16-16.5-.99 0-1.96.093-2.901.27C90.011 11.613 85.95 10 81.5 10c-4.567 0-8.726 1.7-11.842 4.483A10.496 10.496 0 0066.5 14C60.701 14 56 18.701 56 24.5c0 2.572.925 4.928 2.46 6.754A13.292 13.292 0 0056 39c0 2.302.575 4.464 1.584 6.339A13.45 13.45 0 0054 54.5C54 61.956 60.044 68 67.5 68c1.622 0 3.177-.286 4.618-.81A22.296 22.296 0 0083 70zM28 40a8 8 0 1016 0 8 8 0 00-16 0m-10 0a4 4 0 11-8 0 4 4 0 018 0" id="prefix__2_cu_sy_241rs1qqp88x-fill" stroke="none" fill="#224754"/></g><g id="prefix__g-root-1_cu_sy_241rs1qqp88w-fill" data-item-order="-64502" data-item-id="1.cu_sy_241rs1qqp88w" data-item-class="ScenePart Part Indexed Indexed_1 Fill Stroke" data-item-index="1" data-renderer-id="0" transform="translate(242 9)"><path d="M20.598 19H20.5C14.701 19 10 23.701 10 29.5c0 3.074 1.321 5.839 3.426 7.759A16.508 16.508 0 0013 41c0 .745.049 1.478.145 2.196A13.437 13.437 0 0011 50.5C11 57.956 17.044 64 24.5 64c.347 0 .69-.013 1.03-.039C29.172 67.682 34.308 70 40 70c5.641 0 10.737-2.277 14.373-5.941A9.46 9.46 0 0058.5 65a9.5 9.5 0 006.212-16.687C67.948 45.469 70 41.232 70 36.5c0-4.075-1.522-7.783-4.01-10.55a9.5 9.5 0 00-11.188-9.799C50.681 12.338 45.12 10 39 10c-7.525 0-14.206 3.535-18.402 9zM80 40a8 8 0 1016 0 8 8 0 00-16 0m34 0a4 4 0 11-8 0 4 4 0 018 0" id="prefix__1_cu_sy_241rs1qqp88w-fill" stroke="none" fill="#404b29"/></g><g id="prefix__g-root-tx_pouvoird_3zh141qqp79f-fill" data-item-order="0" data-item-id="tx_pouvoird_3zh141qqp79f" data-item-class="Label Stroke SceneTarget Indexed Indexed_1 ColorFillGray ColorStrokeGray" data-item-index="1" data-renderer-id="0" transform="translate(14 27)"><text style="font:700 20px &quot;Shantell Sans&quot;,cursive;white-space:pre" id="prefix__tx_pouvoird_3zh141qqp79f-fill" stroke="none" fill="#8e8e8e"><tspan x="21.23" y="35" dominant-baseline="ideographic">Poder de decisi贸n</tspan></text></g><g id="prefix__g-root-tx_transpar_qqa0oo1qqp79d-fill" data-item-order="0" data-item-id="tx_transpar_qqa0oo1qqp79d" data-item-class="Label Stroke SceneTarget Indexed ColorFillGray ColorStrokeGray" data-item-index="2" data-renderer-id="0" transform="translate(590 27)"><text style="font:700 20px &quot;Shantell Sans&quot;,cursive;white-space:pre" id="prefix__tx_transpar_qqa0oo1qqp79d-fill" stroke="none" fill="#8e8e8e"><tspan x="12" y="35" dominant-baseline="ideographic">Transparencia total</tspan></text></g><g id="prefix__g-root-tx_voixdire_detibc1qqp8ua-fill" data-item-order="0" data-item-id="tx_voixdire_detibc1qqp8ua" data-item-class="Label Stroke SceneTarget Indexed Indexed_1 ColorStrokeGray" data-item-index="1" data-renderer-id="0" transform="translate(2 63)"><text style="font:20px &quot;Shantell Sans&quot;,cursive;white-space:pre" id="prefix__tx_voixdire_detibc1qqp8ua-fill" stroke="none" fill="#8e8e8e"><tspan x="40" y="35" dominant-baseline="ideographic">Voz directa en las </tspan> <tspan x="40" y="59" dominant-baseline="ideographic">decisiones importantes.</tspan></text></g><g id="prefix__g-root-tx_opration_qqa0oo1qqp79c-fill" data-item-order="0" data-item-id="tx_opration_qqa0oo1qqp79c" data-item-class="Label Stroke SceneTarget Indexed ColorStrokeGray" data-item-index="2" data-renderer-id="0" transform="translate(590 63)"><text style="font:20px &quot;Shantell Sans&quot;,cursive;white-space:pre" id="prefix__tx_opration_qqa0oo1qqp79c-fill" stroke="none" fill="#8e8e8e"><tspan x="12" y="35" dominant-baseline="ideographic">Operaciones y decisiones </tspan> <tspan x="12" y="59" dominant-baseline="ideographic">registradas en la </tspan> <tspan x="12" y="83" dominant-baseline="ideographic">blockchain.</tspan></text></g><g id="prefix__g-root-tx_rcompens_v5h1q01qqp9mv-fill" data-item-order="0" data-item-id="tx_rcompens_v5h1q01qqp9mv" data-item-class="Label Stroke SceneTarget Indexed ColorFillGray ColorStrokeGray" data-item-index="3" data-renderer-id="0" transform="translate(14 159)"><text style="font:700 20px &quot;Shantell Sans&quot;,cursive;white-space:pre" id="prefix__tx_rcompens_v5h1q01qqp9mv-fill" stroke="none" fill="#8e8e8e"><tspan x="21.83" y="35" dominant-baseline="ideographic">Recompensas atractivas</tspan></text></g><g id="prefix__g-root-tx_innovati_1cwr27s1qqp79p-fill" data-item-order="0" data-item-id="tx_innovati_1cwr27s1qqp79p" data-item-class="Label Stroke SceneTarget Indexed ColorFillGray ColorStrokeGray" data-item-index="4" data-renderer-id="0" transform="translate(530 159)"><text style="font:700 20px &quot;Shantell Sans&quot;,cursive;white-space:pre" id="prefix__tx_innovati_1cwr27s1qqp79p-fill" stroke="none" fill="#8e8e8e"><tspan x="12" y="35" dominant-baseline="ideographic">Innovaci贸n constante</tspan></text></g><g id="prefix__g-root-tx_rcompens_zlajug1qqp8um-fill" data-item-order="0" data-item-id="tx_rcompens_zlajug1qqp8um" data-item-class="Label Stroke SceneTarget Indexed ColorStrokeGray" data-item-index="3" data-renderer-id="0" transform="translate(74 195)"><text style="font:20px &quot;Shantell Sans&quot;,cursive;white-space:pre" id="prefix__tx_rcompens_zlajug1qqp8um-fill" stroke="none" fill="#8e8e8e"><tspan x="16" y="35" dominant-baseline="ideographic">Recompensas por </tspan> <tspan x="16" y="59" dominant-baseline="ideographic">participaci贸n en la </tspan> <tspan x="16" y="83" dominant-baseline="ideographic">gobernanza.</tspan></text></g><g id="prefix__g-root-tx_contribu_1lrrldk1qqp9ms-fill" data-item-order="0" data-item-id="tx_contribu_1lrrldk1qqp9ms" data-item-class="Label Stroke SceneTarget Indexed ColorStrokeGray" data-item-index="4" data-renderer-id="0" transform="translate(530 195)"><text style="font:20px &quot;Shantell Sans&quot;,cursive;white-space:pre" id="prefix__tx_contribu_1lrrldk1qqp9ms-fill" stroke="none" fill="#8e8e8e"><tspan x="12" y="35" dominant-baseline="ideographic">Contribuir a la evoluci贸n de </tspan> <tspan x="12" y="59" dominant-baseline="ideographic">la plataforma.</tspan></text></g><g id="prefix__g-root-4_cu_sy_1q7l3i01qqp8uj-stroke" data-item-order="-64508" data-item-id="4.cu_sy_1q7l3i01qqp8uj" data-item-class="ScenePart Part Indexed Fill Stroke" data-item-index="4" data-renderer-id="0" transform="translate(442 105)"><path d="M81.469 86.464c.346 1.287.531 2.64.531 4.036 0 8.56-6.94 15.5-15.5 15.5a15.43 15.43 0 01-8.331-2.427A11.859 11.859 0 0152.5 105c-3.288 0-6.253-1.32-8.349-3.435A11.56 11.56 0 0141 102c-6.627 0-12-5.596-12-12.5 0-1.126.143-2.217.411-3.254A10.472 10.472 0 0126 78.5c0-3.6 1.812-6.777 4.574-8.669A13.433 13.433 0 0129 63.5C29 56.044 35.044 50 42.5 50c.536 0 1.066.031 1.586.092C47.712 47.518 52.175 46 57 46c5.757 0 10.997 2.161 14.918 5.698A9.482 9.482 0 0175.5 51a9.5 9.5 0 019.5 9.5c0 2.399-.889 4.59-2.356 6.262C84.733 69.227 86 72.46 86 76c0 4.162-1.751 7.899-4.531 10.464zM18 34a8 8 0 1016 0 8 8 0 00-16 0m0-20a4 4 0 11-8 0 4 4 0 018 0" id="prefix__4_cu_sy_1q7l3i01qqp8uj-stroke" fill="none" stroke-linecap="round" stroke-linejoin="round" stroke-miterlimit="4" stroke="#FFE60A" stroke-width="2" stroke-dasharray="5 7"/></g><g id="prefix__g-root-3_cu_sy_1q7l3i01qqp8ui-stroke" data-item-order="-64506" data-item-id="3.cu_sy_1q7l3i01qqp8ui" data-item-class="ScenePart Part Indexed Fill Stroke" data-item-index="3" data-renderer-id="0" transform="translate(302 105)"><path d="M28.274 49.698A10.484 10.484 0 0024.5 49C18.701 49 14 53.701 14 59.5c0 .912.116 1.797.335 2.641C11.636 65.308 10 69.457 10 74c0 5.691 2.567 10.764 6.576 14.063A10.482 10.482 0 0016 91.5c0 5.799 4.701 10.5 10.5 10.5.79 0 1.56-.087 2.3-.253C31.354 104.365 34.979 106 39 106c4.501 0 8.507-2.049 11.068-5.232A8.961 8.961 0 0056 103a9 9 0 009-9c0-.861-.121-1.693-.346-2.481C67.982 87.645 70 82.564 70 77c0-4.337-1.227-8.382-3.344-11.789A15.1 15.1 0 0067 62c0-8.284-6.716-15-15-15-1.789 0-3.505.313-5.096.888A17.339 17.339 0 0039 46c-4.067 0-7.801 1.386-10.726 3.698zM62 34a8 8 0 1016 0 8 8 0 00-16 0m24-20a4 4 0 11-8 0 4 4 0 018 0" id="prefix__3_cu_sy_1q7l3i01qqp8ui-stroke" fill="none" stroke-linecap="round" stroke-linejoin="round" stroke-miterlimit="4" stroke="#CD6AFB" stroke-width="2" stroke-dasharray="5 7"/></g><g id="prefix__g-root-2_cu_sy_241rs1qqp88x-stroke" data-item-order="-64504" data-item-id="2.cu_sy_241rs1qqp88x" data-item-class="ScenePart Part Indexed Fill Stroke" data-item-index="2" data-renderer-id="0" transform="translate(474 9)"><path d="M83 70c4.95 0 9.518-1.598 13.194-4.294A11.452 11.452 0 00101.5 67c6.351 0 11.5-5.149 11.5-11.5 0-2.986-1.138-5.706-3.004-7.75A10.481 10.481 0 00114 39.5c0-2.42-.819-4.648-2.194-6.424.128-.839.194-1.7.194-2.576 0-9.113-7.163-16.5-16-16.5-.99 0-1.96.093-2.901.27C90.011 11.613 85.95 10 81.5 10c-4.567 0-8.726 1.7-11.842 4.483A10.496 10.496 0 0066.5 14C60.701 14 56 18.701 56 24.5c0 2.572.925 4.928 2.46 6.754A13.292 13.292 0 0056 39c0 2.302.575 4.464 1.584 6.339A13.45 13.45 0 0054 54.5C54 61.956 60.044 68 67.5 68c1.622 0 3.177-.286 4.618-.81A22.296 22.296 0 0083 70zM28 40a8 8 0 1016 0 8 8 0 00-16 0m-10 0a4 4 0 11-8 0 4 4 0 018 0" id="prefix__2_cu_sy_241rs1qqp88x-stroke" fill="none" stroke-linecap="round" stroke-linejoin="round" stroke-miterlimit="4" stroke="#1AC6FF" stroke-width="2" stroke-dasharray="5 7"/></g><g id="prefix__g-root-1_cu_sy_241rs1qqp88w-stroke" data-item-order="-64502" data-item-id="1.cu_sy_241rs1qqp88w" data-item-class="ScenePart Part Indexed Indexed_1 Fill Stroke" data-item-index="1" data-renderer-id="0" transform="translate(242 9)"><path d="M20.598 19H20.5C14.701 19 10 23.701 10 29.5c0 3.074 1.321 5.839 3.426 7.759A16.508 16.508 0 0013 41c0 .745.049 1.478.145 2.196A13.437 13.437 0 0011 50.5C11 57.956 17.044 64 24.5 64c.347 0 .69-.013 1.03-.039C29.172 67.682 34.308 70 40 70c5.641 0 10.737-2.277 14.373-5.941A9.46 9.46 0 0058.5 65a9.5 9.5 0 006.212-16.687C67.948 45.469 70 41.232 70 36.5c0-4.075-1.522-7.783-4.01-10.55a9.5 9.5 0 00-11.188-9.799C50.681 12.338 45.12 10 39 10c-7.525 0-14.206 3.535-18.402 9zM80 40a8 8 0 1016 0 8 8 0 00-16 0m34 0a4 4 0 11-8 0 4 4 0 018 0" id="prefix__1_cu_sy_241rs1qqp88w-stroke" fill="none" stroke-linecap="round" stroke-linejoin="round" stroke-miterlimit="4" stroke="#A8DD38" stroke-width="2" stroke-dasharray="5 7"/></g><g id="prefix__g-root-face_qriyuw1qqs1s5-stroke" data-item-order="0" data-item-id="face_qriyuw1qqs1s5" data-item-class="Icon Stroke SceneTarget ColorFillGray ColorStrokeGray" data-item-index="0" data-renderer-id="0" transform="translate(374 3)"><path d="M46.6 39.682c-3-3-9-4.5-12-1.5m-17.7 7.5c-.3-1.2-.3-2.4-.3-3.9 0-16.2 13.2-29.4 29.4-29.4s29.4 13.2 29.4 29.4c0 10.8-5.7 20.1-14.4 25.2M40.45 77.8c6-2.4 4.875-7.689 3.675-12.489l9.552-3.699a4.47 4.47 0 002.637-5.553h0a4.47 4.47 0 00-5.865-2.784l-17.574 6.81c-1.5.6-3.3-.6-3.3-2.1l-.117-2.841a4.182 4.182 0 00-4.635-3.984h0a4.182 4.182 0 00-3.723 4.155v12.27c0 7.8 7.2 13.5 14.7 11.7 0 0 3.15-.885 4.65-1.485zm-8.625-50.118a1.125 1.125 0 110-2.25m0 2.25a1.125 1.125 0 100-2.25m15.975 2.25a1.125 1.125 0 110-2.25m0 2.25a1.125 1.125 0 100-2.25" id="prefix__face_qriyuw1qqs1s5-stroke" fill="none" stroke-linecap="round" stroke-linejoin="round" stroke-miterlimit="4" stroke="#8e8e8e" stroke-width="2"/></g><g id="prefix__g-root-brai_142zh881qqs078-stroke" data-item-order="0" data-item-id="brai_142zh881qqs078" data-item-class="Icon Stroke SceneTarget Indexed Indexed_1 InsideFill" data-item-index="1" data-renderer-id="0" transform="translate(254 21)"><path d="M45.374 28a4.485 4.485 0 01-4.174 4.467 5.581 5.581 0 01-4.95 8.983 3 3 0 11-5.874.945 4.5 4.5 0 01-4.508 0 3 3 0 11-5.875-.945 5.581 5.581 0 01-4.95-8.983 4.478 4.478 0 010-8.934 5.582 5.582 0 014.95-8.984 3 3 0 115.876-.944 4.5 4.5 0 014.507 0 3 3 0 115.874.944 5.582 5.582 0 014.95 8.984A4.485 4.485 0 0145.374 28zm-17.25 6.75v1.5m0-6v1.5m4.677-1.5v1.5m-4.677-10.5v1.5m0-6v1.5m0 21v1.5M20.625 19a2.25 2.25 0 104.5 0 2.25 2.25 0 00-4.5 0zm11.25 3.75a2.25 2.25 0 104.5 0 2.25 2.25 0 00-4.5 0zm-13.5 12.75a2.25 2.25 0 104.5 0 2.25 2.25 0 00-4.5 0zm12.75.75a2.25 2.25 0 104.5 0 2.25 2.25 0 00-4.5 0zm3.75-6.75a2.25 2.25 0 104.5 0 2.25 2.25 0 00-4.5 0zm1.502-6.75a1.5 1.5 0 001.5-1.5V19m-23.252 9.75h2.25a1.5 1.5 0 001.5-1.5v-1.5a1.5 1.5 0 011.5-1.5h1.5a1.5 1.5 0 001.5-1.5v-1.5m0 14.25a1.5 1.5 0 011.5 1.5v3m11.25-3.75h3" id="prefix__brai_142zh881qqs078-stroke" fill="none" stroke-linecap="round" stroke-linejoin="round" stroke-miterlimit="4" stroke="#94d50a" stroke-width="2"/></g><g id="prefix__g-root-out_8z006w1qqs1z6-stroke" data-item-order="0" data-item-id="out_8z006w1qqs1z6" data-item-class="Icon Stroke SceneTarget Indexed InsideFill" data-item-index="2" data-renderer-id="0" transform="translate(530 21)"><path d="M31.75 28a3.75 3.75 0 10-7.5 0v5.25h7.5zm-3.75.75L38.5 19m-6.75 9.75H43a2.25 2.25 0 010 4.5H13a2.25 2.25 0 010-4.5h11.25M43 33.25l-3.3 10.569a2.04 2.04 0 01-1.95 1.431h-19.5a2.04 2.04 0 01-1.95-1.431L13 33.25m12.75 3v6m-4.5-6v6m9-6v6m4.5-6v6m-13.5-21l-10.5-10.5m6 0h-6v6" id="prefix__out_8z006w1qqs1z6-stroke" fill="none" stroke-linecap="round" stroke-linejoin="round" stroke-miterlimit="4" stroke="#00b9ff" stroke-width="2"/></g><g id="prefix__g-root-1_detibc1qqs16x-stroke" data-item-order="0" data-item-id="1_detibc1qqs16x" data-item-class="Icon Stroke SceneTarget Indexed InsideFill" data-item-index="3" data-renderer-id="0" transform="translate(314 153)"><path d="M39.942 32.145l4.691 8.125c.207.357.042.6-.364.525l-5.037-.852-1.746 4.8c-.141.387-.429.414-.639.06l-4.5-7.61m-16.289-5.048l-4.691 8.125c-.208.357-.043.6.364.525l5.037-.852 1.747 4.8c.142.389.43.414.64.06l4.5-7.6M40 22.947a4.175 4.175 0 00-2.633-3.88 4.176 4.176 0 00-5.486-5.488 4.176 4.176 0 00-7.76 0 4.176 4.176 0 00-5.492 5.488 4.174 4.174 0 000 7.759 4.176 4.176 0 005.488 5.487 4.174 4.174 0 007.759 0 4.176 4.176 0 005.487-5.487A4.171 4.171 0 0040 22.948zm-6-3.75l-7.078 7.08c-.44.44-1.153.44-1.592 0l-2.58-2.58" id="prefix__1_detibc1qqs16x-stroke" fill="none" stroke-linecap="round" stroke-linejoin="round" stroke-miterlimit="4" stroke="#c147fa" stroke-width="2"/></g><g id="prefix__g-root-incr_1upa0vs1qqs077-stroke" data-item-order="0" data-item-id="incr_1upa0vs1qqs077" data-item-class="Icon Stroke SceneTarget Indexed InsideFill" data-item-index="4" data-renderer-id="0" transform="translate(470 153)"><path d="M10.756 44.875h34.5m-28.506 0v-3.75a.75.75 0 00-.75-.75h-3a.75.75 0 00-.75.75v3.75m13.5 0v-9.75a.75.75 0 00-.75-.75h-3a.75.75 0 00-.75.75v9.75m13.5 0v-15.75a.75.75 0 00-.75-.75h-3a.75.75 0 00-.75.75v15.75m13.5 0v-21.75a.75.75 0 00-.75-.75h-3a.75.75 0 00-.75.75v21.75m-24.744-15l27-18m-.75 6l.75-6-6-.75" id="prefix__incr_1upa0vs1qqs077-stroke" fill="none" stroke-linecap="round" stroke-linejoin="round" stroke-miterlimit="4" stroke="#ffe000" stroke-width="2"/></g></g></g></svg>