<svg width="914" height="614" xmlns="http://www.w3.org/2000/svg" fill="none" fill-rule="evenodd" clip-rule="evenodd" stroke-linecap="round" stroke-linejoin="round" stroke-miterlimit="1.5"><style id="fontImports">@import url(https://fonts.googleapis.com/css2?family=Shantell+Sans:wght@300..800&amp;display=block);</style><g id="prefix__items" style="isolation:isolate"><g id="prefix__blend" style="mix-blend-mode:screen"><g id="prefix__g-root-ti_1ur5vrd1tsukui-fill" data-item-order="-521821" data-item-id="ti_1ur5vrd1tsukui" data-item-class="Shape Stroke Fill" data-item-index="none" data-renderer-id="0" transform="translate(3 3)"><path d="M10 585.64h864v12l24-293.82L874 10v12H10" id="prefix__ti_1ur5vrd1tsukui-fill" stroke="none" fill="#505050"/></g><g id="prefix__g-root-1_Vector_sy_magrux1rkxvcz-fill" data-item-order="-245372" data-item-id="1.Vector_sy_magrux1rkxvcz" data-item-class="ScenePart Part Indexed Indexed_1 Fill Stroke" data-item-index="1" data-renderer-id="0" transform="translate(15 335)"><path d="M189.5 112.3l4.1-14.5-17.4-11.9-5.9 21zm-13.3-26.4l-21.1 15.8 16.7 12.5 21.8-16.4zm-4.4 28.3l19.6-54.1L174.1 49l-19 52.7zm2.3-65.2l-45.5 44.8 16 12.4 46.8-46.1zm-29.5 57.2l51.2-88.4-16.5-11.4-50.7 87.4zm34.7-99.8l-74 91 17.2 10.6 73.3-90.2zM122.5 108l42-93.8-17.6-9.7-41.6 92.9zM146.9 4.5l-62.3 95 17.6 9.7 62.3-95zm-44.7 104.7l43.3-93.9-17.2-10.6-43.7 94.8zM128.3 4.7L56.8 94.5l16.8 10.9 71.9-90.1zM73.6 105.4L121 14.1 104 3.6 56.8 94.5zM104 3.6l-72 98.8 17.1 10.5L121 14.1zM49.1 112.9L97.8 19 81 7.9l-49 94.5zM81 7.9L18.8 83.8l17 10.9 62-75.7zM35.8 94.7l39.2-80L58.2 3.5 18.8 83.8zM58.2 3.5L20 47.3l17 10.9 38-43.5zM37 58.2l16.8-37.4-14-17.7L20 47.3zm2.8-55.1L7.5 9.5 22.3 27l31.5-6.2zM22.3 27l4.1-11L7.8 8.9l-.3.6z" fill-rule="nonzero" id="prefix__1_Vector_sy_magrux1rkxvcz-fill" stroke="none" fill="#293f64"/></g><g id="prefix__g-root-2_Vector_sy_magrux1rkxvd0-fill" data-item-order="-245370" data-item-id="2.Vector_sy_magrux1rkxvd0" data-item-class="ScenePart Part Indexed Fill Stroke" data-item-index="2" data-renderer-id="0" transform="translate(183 287)"><path d="M182.6 159l1.9-.2-.1-20-3 .2zm1.8-20.2l-34.9-1.6 8.3 20.4 26.7 1.2zm-26.6 18.8l31.3-33.5-12.6-15.7-27 28.8zm18.7-49.2l-52 31.2 13 15.5 51.6-31zm-39 46.7l59.1-68.4-14-14.4-58.1 67.3zm45.1-82.8l-87.4 71.5 14.5 14 86.9-71.1zm-72.9 85.5l86.7-112.7-15-13.3-86.2 112zm71.7-126L68.3 141.3l14.5 13.8 113.6-110zM82.8 155.1L197.6 21.4 183.1 7.6 68.3 141.3zM183.1 7.6L38.7 145.5l14.8 13.6L197.6 21.4zM53.5 159.1L167.8 17.4 153 3.9 38.7 145.5zM153 3.9l-137.1 133 14.6 13.6L167.8 17.4zM30.5 150.5l110-131.1L126 5.6 15.9 136.9zM126 5.6L19.7 105.3l15 13.3 105.8-99.2zm-91.3 113l73.1-98.8-14.5-14-73.6 99.5zM93.3 5.8L14.5 69.4l14.4 14.1 78.9-63.7zM28.9 83.5l50.8-65.9L65.9 2.8 14.5 69.4zm37-80.7L21.5 32.6 36 47l43.7-29.4zM36 47l17.2-25.8L40.6 4 21.5 32.6zm4.6-43l-30.4 8.9 15.6 16.3 27.4-8zM25.8 29.2l5.6-16.3-19-6.4-2.2 6.4z" fill-rule="nonzero" id="prefix__2_Vector_sy_magrux1rkxvd0-fill" stroke="none" fill="#2b503e"/></g><g id="prefix__g-root-3_Vector_sy_magrux1rkxvd1-fill" data-item-order="-245368" data-item-id="3.Vector_sy_magrux1rkxvd1" data-item-class="ScenePart Part Indexed Fill Stroke" data-item-index="3" data-renderer-id="0" transform="translate(351 239)"><path d="M183.4 208.4l10.7-8.9-8.3-19-15.2 12.5zm2.4-27.9l-39 5.3 7.7 19.1 39.6-5.4zm-31.3 24.4l35.7-26-10.3-17.2-33.1 24.1zm25.4-43.2l-66.1 32.4 11.5 16.6 64.9-31.8zm-54.6 49l64.3-61.1-12-16.3-63.8 60.8zm52.3-77.4L76.2 189.9l11.6 16.4 101.8-56.7zm-89.8 73L196.1 110l-12.6-15.6-107.3 95.5zm95.7-111.9L46.8 193.3l13 15.3L196.1 110zM59.8 208.6L191 77.5l-13.1-15.1L46.8 193.3zM177.9 62.4l-162 122.7 12.7 15.5L191 77.5zM28.6 200.6L194.5 54.9 182 39.3 15.9 185.1zM182 39.3L18.3 159 31 174.5 194.5 54.9zM31 174.5L195.4 23.6 182.6 8.3 18.3 159zM182.6 8.3L22.4 130.4l12.9 15.3L195.4 23.6zM35.3 145.7L166.7 21.9 154.2 6.3 22.4 130.4zM154.2 6.3l-136 91.4 12.3 15.8 136.2-91.6zM30.5 113.5l101.9-93-12.1-16L18.2 97.7zm89.8-109L16.8 67.9 28.9 84l103.5-63.5zM28.9 84l72.9-66.4L90.1 1.2 16.8 67.9zM90.1 1.2L22.4 38.5 35 54.4l66.8-36.8zM35 54.4l30.6-33.7-10-18.8-33.2 36.6zM55.6 1.9L17.7 7.4l7.6 19.1 40.3-5.8zM25.3 26.5l6-4.2L19.9 5.9l-2.2 1.5z" fill-rule="nonzero" id="prefix__3_Vector_sy_magrux1rkxvd1-fill" stroke="none" fill="#4f4a20"/></g><g id="prefix__g-root-4_Vector_sy_dfg8p51rkxszy-fill" data-item-order="-245366" data-item-id="4.Vector_sy_dfg8p51rkxszy" data-item-class="ScenePart Part Indexed Fill Stroke" data-item-index="4" data-renderer-id="0" transform="translate(519 191)"><path d="M189.7 251.8l5.5-4.4-8.1-19.3-10 8.3zm-2.6-23.7l-47.5 5.4 7 19.3 48.6-5.4zm-40.5 24.7l43.3-28.7-9.3-17.9-41 27.3zm34-46.6l-77.9 30.5 9.5 17.7 77.7-30.3zm-68.4 48.2l81.5-56.4-10.5-17.1-80.5 55.8zm71-73.5L71.6 241.7l11.2 16.7L193.7 198zM82.8 258.4l110.8-89.7-11.4-16.5-110.6 89.5zm99.4-106.2L29 241.7l11.2 16.6 153.4-89.6zm-142 106.1l154.2-118.1-11.2-16.6L29 241.7zm143-134.7l-162.4 97 11.1 16.6 162.5-97zM31.9 237.2l157.5-117.9-11.1-16.7-157.5 118zm146.4-134.6L22.5 194.4l10.9 16.8 156-91.9zM33.4 211.2l160.2-115-10.5-17.1L22.5 194.4zM183.1 79.1L15.4 165.8l10.5 17.1 167.7-86.7zM25.9 182.9l165.3-120L180.5 46 15.4 165.8zM180.5 46L22.2 132.3l10.7 16.9 158.3-86.3zM32.9 149.2L192.1 32.9l-11-16.7L22.2 132.3zm148.2-133L15.6 114.5 26.9 131l165.2-98.1zM26.9 131L169.4 20.1 158.3 3.5l-142.7 111zM158.3 3.5L21.7 81.7l10.8 16.8 136.9-78.4zm-125.8 95l105.5-76L128 5 21.7 81.7zM128 5L16.3 53.8l10.1 17.5L138 22.5zM26.4 71.3l67.4-49.8L83.6 4.2 16.3 53.8zM83.6 4.2L21.9 31.7l9.6 17.6 62.3-27.8zM31.5 49.3l34.3-22.5-5.6-20.3-38.3 25.2zM60.2 6.5L15.3 4.6l2.2 20.2 48.3 2zM17.5 24.8l2.6-.8-5.2-19.3.4-.1z" fill-rule="nonzero" id="prefix__4_Vector_sy_dfg8p51rkxszy-fill" stroke="none" fill="#5a3f27"/></g><g id="prefix__g-root-5_Vector_sy_dfg8p51rkxszz-fill" data-item-order="-245364" data-item-id="5.Vector_sy_dfg8p51rkxszz" data-item-class="ScenePart Part Indexed Fill Stroke" data-item-index="5" data-renderer-id="0" transform="translate(687 143)"><path d="M183.1 303.8l10-5.7-6.1-19.5-13.7 7.8zm3.9-25.2l-45 4.1 7 19.5 44.1-4.1zm-38 23.6l39.4-26.9-8.9-18.2-37.5 25.6zm30.5-45.1l-86.9 27.7 7.9 18.5 87.9-28zm-79 46.2l94.9-51.5-8.7-18-94.1 51zm86.2-69.5L58 289.5l9.7 17.6 127.7-55.3zm-119 73.3l121.2-82-9.9-17.4-121 81.8zM179 207.7L17.6 282.4l9.5 17.7 161.8-75zM27.1 300.1l166.1-102.6-9.6-17.6-166 102.5zm156.5-120.2L18.8 257.6l9.5 17.6 164.9-77.7zM28.3 275.2l164.4-99.5-9.4-17.7-164.5 99.6zm155-117.2L21.2 232.8l9.6 17.6 161.9-74.7zM30.8 250.4l160.9-102.1-9.7-17.5-160.8 102zM182 130.8L15.5 209.4 25 227l166.7-78.7zM25 227l164-100.7-9.5-17.6-164 100.7zm154.5-118.3L23 182.5l9.8 17.5L189 126.3zM32.8 200L191.1 97.1l-9.9-17.4L23 182.5zM181.2 79.7L21.1 158.5l9.7 17.5 160.3-78.9zM30.8 176L193.2 75.5l-9.4-17.7L21.1 158.5zm153-118.2L23.7 129.5l9.4 17.7 160.1-71.7zM33.1 147.2l158.2-96.7-9.1-17.9-158.5 96.9zM182.2 32.6L20.6 99.9l9 18 161.7-67.4zM29.6 117.9L196 19.6l-9.3-17.8L20.6 99.9zM186.7 1.8l-164 76.1 9.6 17.6L196 19.6zM32.3 95.5l114.6-72.4-9.5-17.6L22.7 77.9zm105.1-90l-114.5 52L32.8 75l114.1-51.9zM32.8 75L114 19.3l-9-18.1-82.1 56.3zM105 1.2L19.8 29.9l8.4 18.3L114 19.3zm-76.8 47l37.1-22.1-6-19.7-39.5 23.5zM59.3 6.4L13.2 9.2l5 19.7 47.1-2.8zM18.2 28.9l6.9-3.2-8.6-18.1-3.3 1.6z" fill-rule="nonzero" id="prefix__5_Vector_sy_dfg8p51rkxszz-fill" stroke="none" fill="#692e2c"/></g><g id="prefix__g-root-tx_particip_1cymqrt1rkxudg-fill" data-item-order="0" data-item-id="tx_particip_1cymqrt1rkxudg" data-item-class="Label Stroke SceneTarget Indexed Indexed_1 InsideFill" data-item-index="1" data-renderer-id="0" transform="translate(39 347)"><text style="font:20px &quot;Shantell Sans&quot;,cursive;white-space:pre" id="prefix__tx_particip_1cymqrt1rkxudg-fill" stroke="none" fill="#A3A3A3"><tspan x="3.73" y="35" dominant-baseline="ideographic">Participar en las </tspan> <tspan x="26.98" y="59" dominant-baseline="ideographic">discusiones</tspan></text></g><g id="prefix__g-root-tx_jouerunr_4jt8g91rkxukg-fill" data-item-order="0" data-item-id="tx_jouerunr_4jt8g91rkxukg" data-item-class="Label Stroke SceneTarget Indexed InsideFill" data-item-index="5" data-renderer-id="0" transform="translate(711 155)"><text style="font:20px &quot;Shantell Sans&quot;,cursive;white-space:pre" id="prefix__tx_jouerunr_4jt8g91rkxukg-fill" stroke="none" fill="#A3A3A3"><tspan x="8.6" y="35" dominant-baseline="ideographic">Jugar un papel</tspan></text></g><g id="prefix__g-root-tx_votersur_1qa39551rkxssh-fill" data-item-order="0" data-item-id="tx_votersur_1qa39551rkxssh" data-item-class="Label Stroke SceneTarget Indexed InsideFill" data-item-index="4" data-renderer-id="0" transform="translate(543 203)"><text style="font:20px &quot;Shantell Sans&quot;,cursive;white-space:pre" id="prefix__tx_votersur_1qa39551rkxssh-fill" stroke="none" fill="#A3A3A3"><tspan x="6.91" y="35" dominant-baseline="ideographic">Votar sobre las </tspan> <tspan x="30.89" y="59" dominant-baseline="ideographic">propuestas</tspan></text></g><g id="prefix__g-root-tx_acqurird_1heg8w91rkxtl6-fill" data-item-order="0" data-item-id="tx_acqurird_1heg8w91rkxtl6" data-item-class="Label Stroke SceneTarget Indexed InsideFill" data-item-index="3" data-renderer-id="0" transform="translate(375 251)"><text style="font:20px &quot;Shantell Sans&quot;,cursive;white-space:pre" id="prefix__tx_acqurird_1heg8w91rkxtl6-fill" stroke="none" fill="#A3A3A3"><tspan x="30" y="35" dominant-baseline="ideographic">Adquirir </tspan> <tspan x="22.82" y="59" dominant-baseline="ideographic">tokens REG</tspan></text></g><g id="prefix__g-root-tx_soumettr_1heg8w91rkxtl7-fill" data-item-order="0" data-item-id="tx_soumettr_1heg8w91rkxtl7" data-item-class="Label Stroke SceneTarget Indexed InsideFill" data-item-index="2" data-renderer-id="0" transform="translate(201 299)"><text style="font:20px &quot;Shantell Sans&quot;,cursive;white-space:pre" id="prefix__tx_soumettr_1heg8w91rkxtl7-fill" stroke="none" fill="#A3A3A3"><tspan x="30" y="35" dominant-baseline="ideographic">Presentar </tspan> <tspan x="27.39" y="59" dominant-baseline="ideographic">propuestas</tspan></text></g><g id="prefix__g-root-ti_1ur5vrd1tsukui-stroke" data-item-order="-521821" data-item-id="ti_1ur5vrd1tsukui" data-item-class="Shape Stroke Fill" data-item-index="none" data-renderer-id="0" transform="translate(3 3)"><path d="M10 585.64h864v12l24-293.82L874 10v12H10" id="prefix__ti_1ur5vrd1tsukui-stroke" fill="none" stroke-linecap="round" stroke-linejoin="round" stroke-miterlimit="4" stroke="#A3A3A3" stroke-width="2"/></g><g id="prefix__g-root-1_Vector_sy_magrux1rkxvcz-stroke" data-item-order="-245372" data-item-id="1.Vector_sy_magrux1rkxvcz" data-item-class="ScenePart Part Indexed Indexed_1 Fill Stroke" data-item-index="1" data-renderer-id="0" transform="translate(15 335)"><path d="M190 10c-29.9-.8-59.8 1.4-89.7 0C74.2 8.8 48.1 8.8 22 10c-2 .1-4 .4-6 0-3.3-.6-5.9 2.7-6 6-.1 3.3 2.7 5.7 6 6 2 .2 4 .2 6 0-1.2 28 1.8 56.1 0 84 25.7.6 51.5 1.8 77.2 0 30.2-2.1 60.5.6 90.8 0 .2-32 .2-64 0-96m0 0H16a6 6 0 100 12h6v84h168V10z" id="prefix__1_Vector_sy_magrux1rkxvcz-stroke" fill="none" stroke-linecap="round" stroke-linejoin="round" stroke-miterlimit="4" stroke="#A3A3A3" stroke-width="2"/></g><g id="prefix__g-root-2_Vector_sy_magrux1rkxvd0-stroke" data-item-order="-245370" data-item-id="2.Vector_sy_magrux1rkxvd0" data-item-class="ScenePart Part Indexed Fill Stroke" data-item-index="2" data-renderer-id="0" transform="translate(183 287)"><path d="M22 10c-2-.4-4-.1-6 0-3.3.1-5.7 2.7-6 6-.3 3.3 2.7 6.4 6 6 2-.2 4-.4 6 0 .1 15.4-.4 30.7 0 46.1.4 13.7-1.6 27.6 0 41.3 1.7 14.8-.2 29.7 0 44.6 14 .2 28.1-.6 42.1 0 15 .7 30.1-1.3 45.1 0 12.8 1.1 25.8-1 38.7 0 14 1.1 28.1.3 42.1 0 .1-14.5-.7-29 0-43.4.8-15.2-1.8-30.6 0-45.7 2.2-18.2.6-36.6 0-54.9-25.8-.9-51.6.9-77.4 0C82.4 9 52.2 8.3 22 10m0 0h-6a6 6 0 100 12h6v132h168V10H22z" id="prefix__2_Vector_sy_magrux1rkxvd0-stroke" fill="none" stroke-linecap="round" stroke-linejoin="round" stroke-miterlimit="4" stroke="#A3A3A3" stroke-width="2"/></g><g id="prefix__g-root-3_Vector_sy_magrux1rkxvd1-stroke" data-item-order="-245368" data-item-id="3.Vector_sy_magrux1rkxvd1" data-item-class="ScenePart Part Indexed Fill Stroke" data-item-index="3" data-renderer-id="0" transform="translate(351 239)"><path d="M22 10c-2-.1-4.1-.6-6 0-3.2.9-5.4 2.8-6 6-.6 3.3 2.7 5.7 6 6 2 .2 4-.1 6 0-.1 31 1.3 62 0 92.9-1.2 29-1.6 58.1 0 87.1 18.9 1.1 37.9 1.3 56.8 0 20.2-1.4 40.6-1.4 60.8 0 16.8 1.1 33.6-.6 50.4 0-.6-19.9.4-39.9 0-59.8-.5-23.5-.9-47 0-70.4.8-20.6 1.5-41.3 0-61.8-11.2-.7-22.6-1.5-33.7 0-11.4 1.5-23-.2-34.5 0-10.2.2-20.4-.1-30.6 0-10.7.1-21.6.7-32.3 0-12.3-.8-24.6.5-36.9 0m0 0h-6a6 6 0 100 12h6v180h168V10H22z" id="prefix__3_Vector_sy_magrux1rkxvd1-stroke" fill="none" stroke-linecap="round" stroke-linejoin="round" stroke-miterlimit="4" stroke="#A3A3A3" stroke-width="2"/></g><g id="prefix__g-root-4_Vector_sy_dfg8p51rkxszy-stroke" data-item-order="-245366" data-item-id="4.Vector_sy_dfg8p51rkxszy" data-item-class="ScenePart Part Indexed Fill Stroke" data-item-index="4" data-renderer-id="0" transform="translate(519 191)"><path d="M22 10c-1.8.8-4 .1-6 0-3.3-.2-5.7 2.7-6 6-.3 3.3 2.7 6.2 6 6 2-.1 4.1-.7 6 0 .1 25.7 1.7 51.4 0 77.1-1.6 23.5-1.8 47.2 0 70.6 2.1 26.7-1.9 53.6 0 80.3 15.3-.9 30.7.1 46 0 14.1-.1 28.3.5 42.4 0 13.1-.4 26.2-.9 39.3 0 13.4.9 27-1.6 40.3 0 1.5-24.7 1.8-49.5 0-74.2-2-27.5 1.2-55.1 0-82.6-1.2-27.7-.5-55.5 0-83.2-25.5 0-50.9.8-76.4 0-30.5-1-61.1 1.9-91.6 0m0 0h-6a6 6 0 100 12h6v228h168V10H22z" id="prefix__4_Vector_sy_dfg8p51rkxszy-stroke" fill="none" stroke-linecap="round" stroke-linejoin="round" stroke-miterlimit="4" stroke="#A3A3A3" stroke-width="2"/></g><g id="prefix__g-root-5_Vector_sy_dfg8p51rkxszz-stroke" data-item-order="-245364" data-item-id="5.Vector_sy_dfg8p51rkxszz" data-item-class="ScenePart Part Indexed Fill Stroke" data-item-index="5" data-renderer-id="0" transform="translate(687 143)"><path d="M22 10c-1.9.5-4-.2-6 0-3.3.3-6.3 2.7-6 6 .3 3.3 2.7 6 6 6 2 0 4.1.6 6 0 1.8 22.6 1.7 45.5 0 68.1-1.7 22.9 0 45.8 0 68.7 0 23.3-.4 46.5 0 69.8.4 23.1-1.1 46.3 0 69.4 26.3-.6 52.7.8 79 0 29.7-.9 59.3.1 89 0 1.8-25.9-.6-52 0-78 .6-23.9.5-47.8 0-71.6-.5-21-.7-42.1 0-63.1.9-25.1.6-50.2 0-75.3-14-.2-28 .4-42 0-13.1-.4-26.2.7-39.3 0-14.2-.8-28.4-.6-42.5 0-14.7.7-29.5.3-44.2 0m0 0h-6a6 6 0 100 12h6v276h168V10H22z" id="prefix__5_Vector_sy_dfg8p51rkxszz-stroke" fill="none" stroke-linecap="round" stroke-linejoin="round" stroke-miterlimit="4" stroke="#A3A3A3" stroke-width="2"/></g><g id="prefix__g-root-cn_4g2kae1vgxse8-stroke" data-item-order="0" data-item-id="cn_4g2kae1vgxse8" data-item-class="Curve Stroke" data-item-index="none" data-renderer-id="0" transform="translate(477 154.811)"><path d="M10 58.189c3.667-3.534 7.333-7.1 11-10.7a125.17 125.17 0 0124.1-18.5c8.733-5.2 17.967-9.3 27.7-12.3 9.8-3 19.767-4.834 29.9-5.5 5.133-.334 10.233-.667 15.3-1" id="prefix__cn_4g2kae1vgxse8-stroke" fill="none" stroke-linecap="round" stroke-linejoin="round" stroke-miterlimit="4" stroke="#A3A3A3" stroke-width="2"/></g><g id="prefix__g-root-cycl_1q5pxpi1y8foqu-stroke" data-item-order="0" data-item-id="cycl_1q5pxpi1y8foqu" data-item-class="Icon Stroke SceneTarget Indexed" data-item-index="3" data-renderer-id="0" transform="translate(423 179)"><g id="prefix__cycl_1q5pxpi1y8foqu-stroke" fill="none" stroke-linecap="round" stroke-linejoin="round" stroke-miterlimit="4" stroke="#A3A3A3" stroke-width="2"><path d="M22.4 54C13 47.4 9 36 12.8 25c3.8-11 16-14.4 27.4-13.2m5.4 2.2c9.2 7 12.2 17.6 9.6 28.8-2.4 11.4-16.6 18-27.2 13.4m-12.6-.4c2.4.2 4.6-1.4 7.2-1.8-.8-2.4-2.2-4.8-2-7.2m32-34.6c-2.4 0-4.6 1.8-7 1.8-.2 2.6 1.4 4.8 1.8 7.2m-19.8 5.4c1.2 3.6 3.2 5.4 6.8 6.8 3.4 1.4 8-3.2 6.8-6.8-1.2-3.4-3-7-6.8-6.8-3.8.2-5.8 3.4-6.8 6.8M45 44c-1.4-4.6-5.8-7.2-10.6-7.4-4.6-.2-10.2 2.6-10.4 7.4m5.6-22.2c2.8 4 7.8 3.4 11.6 4.8"/><path d="M22.498 53.922c-10.072-5.793-14.242-18.188-9.719-28.891C17.302 14.328 29.098 8.68 40.272 11.866m5.23 2.212c10.046 5.767 14.236 18.104 9.78 28.796C50.825 53.565 39.114 59.275 27.946 56.2m-12.586-.368l7.14-1.914-1.914-7.14m32.054-34.61l-7.14 1.914 1.914 7.14m-19.834 5.46a6.796 6.796 0 1013.592 0 6.796 6.796 0 10-13.592 0m17.368 17.25a11.128 11.128 0 00-20.91 0M29.6 21.844c2.318 4.308 7.466 4.838 11.566 4.838"/></g></g><g id="prefix__g-root-cn_zpohfa1v73si1-stroke" data-item-order="0" data-item-id="cn_zpohfa1v73si1" data-item-class="Curve Stroke" data-item-index="none" data-renderer-id="0" transform="translate(309 203)"><path d="M10 58l11.6-9.6c7.733-6.467 16-12.167 24.8-17.1a168.133 168.133 0 0127.4-12.2c9.533-3.2 19.3-5.5 29.3-6.9 4.933-.733 9.9-1.467 14.9-2.2" id="prefix__cn_zpohfa1v73si1-stroke" fill="none" stroke-linecap="round" stroke-linejoin="round" stroke-miterlimit="4" stroke="#A3A3A3" stroke-width="2"/></g><g id="prefix__g-root-idea_1lvip6x1rl4umn-stroke" data-item-order="0" data-item-id="idea_1lvip6x1rl4umn" data-item-class="Icon Stroke SceneTarget Indexed" data-item-index="2" data-renderer-id="0" transform="translate(255 227)"><path d="M37 33c-2-.2-4.2.6-6 0m9-11c-.2-3.4-2.8-6.4-6-6-3.2-.4-5.6 2.8-6 6-.4 2 1 4.2 3 5 .2.6.2 1.4 0 2 2 0 4-.2 6 0 .2-.6 0-1.4 0-2 2-.6 3.2-3 3-5M14.6 46.4C14 48.4 16 50 18 50c2-.2 4-1.6 3.6-3.6-.6-1.8-1.8-3-3.6-3.4-1.8-.4-3.2 1.6-3.4 3.4M25 57c-1.6-2.8-3.8-4.4-7-5.4-3.2-1.2-6.2 2.2-7 5.4 4.4-1.6 9.4.2 14 0m5.6-10.6c-.4 2 1.4 3.4 3.4 3.6 2 0 3-1.6 3.6-3.6.4-1.8-1.8-3.2-3.6-3.4-2-.4-2.8 1.6-3.4 3.4M41 57c-1.2-3.2-3.8-6-7-5.4-3.2.6-5.4 2.4-7 5.4 4.6.4 9.4 1 14 0m5.6-10.6c.4 2 1.4 3.2 3.4 3.6 1.8.4 4.2-1.8 3.6-3.6-.8-1.8-1.6-3.2-3.6-3.4-2-.2-3.2 1.6-3.4 3.4M57 57c0-3.4-3.8-5.2-7-5.4-3.2-.4-5.4 2.4-7 5.4 4.6 0 9.4-1 14 0M34 11c.2.6.2 1.4 0 2m7.8 1.2c-.4.6-.8 1.2-1.4 1.4M45 21c-.6.2-1.4 0-2 0m-16.8-6.8c.6.4.8 1.2 1.4 1.4M23 21c.6-.2 1.4 0 2 0m7 16c1.4.2 2.8.2 4 0m1-4.032h-6m9-11a6.178 6.178 0 00-6-6 6.178 6.178 0 00-6 6 5.882 5.882 0 003 5v2h6v-2a5.886 5.886 0 003-5zm-25.5 24.5a3.5 3.5 0 107 0 3.5 3.5 0 00-7 0zm10.5 10.5a7.224 7.224 0 00-14 0zm5.5-10.5a3.5 3.5 0 107 0 3.5 3.5 0 00-7 0zm10.5 10.5a7.224 7.224 0 00-14 0zm5.5-10.5a3.5 3.5 0 107 0 3.5 3.5 0 00-7 0zm10.5 10.5a7.224 7.224 0 00-14 0zm-23-46v2m7.778 1.222l-1.414 1.414M45 20.968h-2M26.222 14.19l1.414 1.414M23 20.968h2m7 16h4" id="prefix__idea_1lvip6x1rl4umn-stroke" fill="none" stroke-linecap="round" stroke-linejoin="round" stroke-miterlimit="4" stroke="#A3A3A3" stroke-width="2"/></g><g id="prefix__g-root-cn_hs5jqu1uwvshs-stroke" data-item-order="0" data-item-id="cn_hs5jqu1uwvshs" data-item-class="Curve Stroke" data-item-index="none" data-renderer-id="0" transform="translate(141 251)"><path d="M10 58l11.6-9.6c7.733-6.467 16-12.167 24.8-17.1a168.133 168.133 0 0127.4-12.2c9.533-3.2 19.3-5.5 29.3-6.9 4.933-.733 9.9-1.467 14.9-2.2" id="prefix__cn_hs5jqu1uwvshs-stroke" fill="none" stroke-linecap="round" stroke-linejoin="round" stroke-miterlimit="4" stroke="#A3A3A3" stroke-width="2"/></g><g id="prefix__g-root-3_8vt51rl4w77-stroke" data-item-order="0" data-item-id="3_8vt51rl4w77" data-item-class="Icon Stroke SceneTarget Indexed Indexed_1" data-item-index="1" data-renderer-id="0" transform="translate(87 275)"><path d="M21 27c-.2 1 1 2.4 2 2 1.2-.4 2.8.4 4 0 1.6 2.4 4.6 3.6 6 6-.8-1.8.4-4 0-6 5.2.6 10.8 1.6 16 0 1-.4 1.8-1 2-2 .8-4.6-1.8-9.6 0-14 .4-1-1-1.8-2-2-8.6-1.4-17.6 2.2-26 0-1-.2-2.4 1-2 2 1.8 4.4 1.4 9.6 0 14m-5.4 12.6c.6 2.2 2 4.6 4.4 4.4 2.4-.2 3.8-2.2 4.6-4.4.6-2.4-2.2-5.2-4.6-4.6-2.4.6-5.2 2.2-4.4 4.6m10.8 9c-3-1.4-5.8-3.2-9-2.2S12.6 50.2 11 53m32.6-13.4C43 42 45.6 44 48 44c2.4 0 5.4-2.2 4.6-4.4-1-2.4-2.2-5.4-4.6-4.6-2.4.8-4.6 2-4.4 4.6m-2 9c2.4-2.4 6-3.6 9-2.2s4.8 3.8 6.4 6.6m-27.4-9.4c-1 2.2 2 4 4.4 4.4 2.4.4 4.2-2 4.6-4.4.2-2.6-2.2-5.4-4.6-4.6-2.4.8-4.8 2-4.4 4.6M43 57c-.2-4.2-4.8-6-9-7-4.2-.8-7.6 3-9 7m17-41c1.4 1.4 3 2.4 4 4-1.6.8-2.6 2.8-4 4m-12-8c-1.2 1.4-2.6 2.8-4 4 1.2 1.4 2.2 3.2 4 4m8-8c-.2 3-3.4 5-4 8m-13 3a2 2 0 002 2h4l6 6v-6h16a2 2 0 002-2V13a2 2 0 00-2-2H23a2 2 0 00-2 2zm-5.5 12.5a4.5 4.5 0 109 0 4.5 4.5 0 00-9 0m10.84 9.04A9.26 9.26 0 0011 53m32.5-13.5a4.5 4.5 0 109 0 4.5 4.5 0 00-9 0m-1.84 9.04A9.26 9.26 0 0157 53m-27.5-9.5a4.5 4.5 0 109 0 4.5 4.5 0 00-9 0M43 57a9.3 9.3 0 00-18 0m17-41l4 4-4 4m-12-8l-4 4 4 4m8-8l-4 8" id="prefix__3_8vt51rl4w77-stroke" fill="none" stroke-linecap="round" stroke-linejoin="round" stroke-miterlimit="4" stroke="#A3A3A3" stroke-width="2"/></g><g id="prefix__g-root-cn_1cuvghi1vqhvri-stroke" data-item-order="0" data-item-id="cn_1cuvghi1vqhvri" data-item-class="Curve Stroke" data-item-index="none" data-renderer-id="0" transform="translate(645 105.855)"><path d="M10 59.142l10.4-11.6c6.867-7.667 14.7-14.267 23.5-19.8a109.08 109.08 0 0128.1-12.4 106.957 106.957 0 0130.5-4.2H118" id="prefix__cn_1cuvghi1vqhvri-stroke" fill="none" stroke-linecap="round" stroke-linejoin="round" stroke-miterlimit="4" stroke="#A3A3A3" stroke-width="2"/></g><g id="prefix__g-root-lapt_1hfp72h1rl4vew-stroke" data-item-order="0" data-item-id="lapt_1hfp72h1rl4vew" data-item-class="Icon Stroke SceneTarget Indexed" data-item-index="5" data-renderer-id="0" transform="translate(759 83)"><path d="M51 45.6c0 3.4 0 6.8.8 10M13.6 16.8c0 2.6 2.2 5 5 4.8 2.6 0 4.8-2.2 4.8-4.8.2-2.8-2.2-5.6-4.8-5-2.8.6-6 2.4-5 5m19.2 12.6c-2.6 1-5.6 1-8.2 0-2.4-1-3.8-4-6.2-4.8-.8-1-1.4-.6-1.4-.6-1.2-.4-2.2.2-2.8 1-.2 1.2-.6 1.4-.6 1.4 1.4 5-2.2 10-1.4 15 .2 1.4.8 2.8 2.2 3.2C18 45.2 21.6 46 25 47c1 2 .8 4.2.8 6.4 0 1.6 1.4 2.6 3 2.8 2 .2 3.4-1.8 3-3.4-.6-2.8-.4-5.8-1-8.6-.2-1.2-1-2.8-2.2-2.6-3.6.6-7-1-10.2-2.4 1-2 0-4.4.6-6.4.6.8 1.8 1.4 2.6 2 .6.4 1.2.8 1.8.6 3.2-.6 6.4-.8 9.4 0 1.6.4 3-1.4 3-3 .2-1.6-1.4-3.4-3-3m15.2-.8c.4 3-.6 6.2-1.4 9-2.4-.4-4.8 0-7.2 0m.4 8c.4 3.2.4 6.8-.8 10m-3-14c6 2.2 12.6 0 18.8 0 0 0 .8.2 1 1 .2.6-.2 1.4 0 2 0 0 0 .6-1 1-6 1.4-12.6 0-18.8 0 0 0-1 0-1-1 0-.6.2-1.4 0-2 0 0 0-1.2 1-1m15.046 3.942l.826 10.024M13.616 16.74a4.912 4.912 0 109.824 0 4.912 4.912 0 00-9.824 0m19.21 12.66h-.016l-8.3.048-6.088-4.906c-.058-.048-.124-.08-.186-.122a3.227 3.227 0 00-.294-.2 2.85 2.85 0 00-.324-.136c-.074-.02-.142-.056-.218-.084a3.144 3.144 0 00-.45-.09c-.042 0-.08-.02-.124-.024h0-.2a2.95 2.95 0 00-2.4 1.09L14.2 25c-.05.06-.084.13-.128.2s-.13.182-.184.282a3.35 3.35 0 00-.138.328c-.028.074-.062.142-.086.218-.04.141-.068.285-.086.43 0 .05-.024.094-.028.142v.028h0l-1.416 14.694a3 3 0 002.318 3.2l10.642 2.434.72 6.54a3 3 0 002.986 2.676 3 3 0 002.986-3.328l-.954-8.66a3 3 0 00-2.314-2.6l-10.16-2.318.642-6.558 2.576 2.092a3 3 0 001.884.664h.018l9.366-.054a3 3 0 00-.018-6zm15.116-.744l-1.372 8.986-7.222.056m.416 7.844l-.826 10.024M35.966 41.66h18.878s1.036 0 1.036 1.036v1.812s0 1.036-1.036 1.036H35.966s-1.036 0-1.036-1.036v-1.812s0-1.036 1.036-1.036" id="prefix__lapt_1hfp72h1rl4vew-stroke" fill="none" stroke-linecap="round" stroke-linejoin="round" stroke-miterlimit="4" stroke="#A3A3A3" stroke-width="2"/></g><g id="prefix__g-root-voti_4g2dxl1rl4vey-stroke" data-item-order="0" data-item-id="voti_4g2dxl1rl4vey" data-item-class="Icon Stroke SceneTarget Indexed" data-item-index="4" data-renderer-id="0" transform="translate(591 131)"><path d="M28 31c.2-1-1-2.4-2-2-1.8.6-4 .4-6 0-1-.2-2.4 1-2 2m15 0c0-1.2.8-2.2 2-2 6.6.6 13.4-.6 20 0 1.2 0 1.8 1 2 2 .4 1.6.2 3.4 0 5-.2 1.2-1 2-2 2-6.6-.4-13.6-1.6-20 0-1 .2-2.2-.8-2-2 .2-1.6.4-3.4 0-5M18 17c.2-1 1-1.8 2-2 2-.4 4 .2 6 0 1-.2 2.2 1 2 2-.4 1.6-.4 3.4 0 5 .2 1-.8 2-2 2-2-.2-4-.2-6 0-1 .2-1.8-1-2-2-.4-1.6.4-3.4 0-5m15 0c.2-1 1-1.8 2-2 6.4-1.6 13.4-.4 20 0 1.2 0 2.4 1 2 2-.6 1.6.4 3.4 0 5-.2 1-1 1.8-2 2-6.6.8-13.6-2-20 0-1 .4-1.8-.8-2-2-.2-1.6-.2-3.4 0-5M38.2 57c.2-.8-.2-1.6.2-2.2 1.2-2.8-1.8-6.8-4.8-6.4-2.4.2-5-.6-7.2-1.6-.4-3.2.8-6.6 0-9.8-.6-2-1.8-3-3.8-3.6-2-.8-4.4 1.8-3.8 3.6 1.8 5.2-1.6 11.4 0 16.6-1-.6-1.8-1.6-2.8-2.2-1.4-.8-3.4-1-4.2.4-.6 1.4-1.4 3-.2 4 .4.2.6.8 1 1.2M28 31.006a2 2 0 00-2-2h-6a2 2 0 00-2 2m15 .002a2 2 0 012-2h20a2 2 0 012 2v5a2 2 0 01-2 2H35a2 2 0 01-2-2v-5zM18 17.006a2 2 0 012-2h6a2 2 0 012 2v5a2 2 0 01-2 2h-6a2 2 0 01-2-2v-5zm15-.002a2 2 0 012-2h20a2 2 0 012 2v5a2 2 0 01-2 2H35a2 2 0 01-2-2v-5zM38.134 57l.2-2.246a6 6 0 00-4.674-6.4l-7.3-1.624v-9.68a3.75 3.75 0 00-7.5 0v16.6l-2.956-2.218a3.066 3.066 0 00-4.292 4.292l.948 1.264" id="prefix__voti_4g2dxl1rl4vey-stroke" fill="none" stroke-linecap="round" stroke-linejoin="round" stroke-miterlimit="4" stroke="#A3A3A3" stroke-width="2"/></g></g></g></svg>